/* XPM */
static char *result[] = {
/* columns rows colors chars-per-pixel */
"64 64 80 1 ",
"  c #020202",
". c #070806",
"X c #0A0C07",
"o c #0B0C09",
"O c #0F110C",
"+ c #12150E",
"@ c #16190F",
"# c #131611",
"$ c #161912",
"% c #191D15",
"& c #1A1E18",
"* c #1D2116",
"= c #1E221B",
"- c #202417",
"; c #21251A",
": c #252A1C",
"> c #282E1F",
", c #2A301E",
"< c #262B22",
"1 c #292E24",
"2 c #2D3324",
"3 c #2E3429",
"4 c #303725",
"5 c #323926",
"6 c #31372B",
"7 c #343C2B",
"8 c #363D31",
"9 c #383F31",
"0 c #3B442D",
"q c #3F482E",
"w c #3C4433",
"e c #3F4830",
"r c #3E4638",
"t c #3E4939",
"y c #40492F",
"u c #434C33",
"i c #424B3B",
"p c #465136",
"a c #485337",
"s c #47513B",
"d c #4A543B",
"f c #4D593E",
"g c #505B3F",
"h c #434C43",
"j c #465141",
"k c #4A5542",
"l c #4F5943",
"z c #4C5549",
"x c #525D45",
"c c #51574B",
"v c #535C4A",
"b c #575D51",
"n c #556146",
"m c #56624B",
"M c #5A664E",
"N c #5B684D",
"B c #5C6553",
"V c #5C6851",
"C c #5F6659",
"Z c #606E4E",
"A c #616D56",
"S c #606759",
"D c #646A5D",
"F c #637156",
"G c #65725A",
"H c #68765D",
"J c #6A7A5E",
"K c #676D60",
"L c #686D61",
"P c #6D7D62",
"I c #718265",
"U c #7D8576",
"Y c #7D8678",
"T c #868D6D",
"R c #8D956D",
"E c #8F9868",
"W c #90986C",
"Q c #828A72",
"! c #879073",
"~ c #899173",
/* pixels */
"RTQ!~~~!!!Q!!!!!~~~~~~!!~!~R~~R~RR~RRRRRWWWWWWWWWWWWWWWWRRRRR~TE",
"UUYYYUYYYYYYQYPQUUYUQUUUQQQQQQQQQQTTTTTTTTTTTTTRTTRTTTTT~TTT!QTT",
"KKDDDDDDKDDKLLLLKDDDKKDKKKKSLDDDDDDDLDDDDDDDDDDDDDDDDDDDDDDDDDDD",
"DCvccccccccczccbcccczccczccccccvbcbccccccccxcccccccccccccccccbSD",
"Db8>422214141313222222221142245764621222222222224144144124441wBD",
"Kc7:,477777786777777777777774>:--:>577777777777777777577752>:0bL",
"Dbs0udmBmmMmmmbmmmmMMmmmMMBvd02:>4ydvMmmmmmMmmMbmmmmmmMMMxdyydSD",
"DBfagMAFFHHGGHHAAHHFFHHFFHFANa5;:7fZAHHHFHHFFHGAFHHAGHGFAAvlakCL",
"DBddVVVVANSVVAVNBVVVVVVVVSZSFx7-:9vFVVVVVASNVAVVNAAVVVVVSNVmadSK",
"KMpdVVVVn71dx63VM37mi<emw1iAHv7-:ymHVu1im7<fx27Av17ni<eMNAAMaaSD",
"CBddNCVmu@ 4uoOzho+u2 ;u% 8GGx7-:9mHS1 :u$.5w.$vi.%i; ;amVAmadCD",
"KCnnVFV8$<7*@8w<;82+;9>+@4fAGv7-:ymGAp:+@67&%66&1r2@;8;$uDAMvvSD",
"CKBVVFV1 8M=ovV#$vt.<B8 -dmSDx7::0NAAxi@.ib%Ozso;Ai.3B< 8AAVVADD",
"KCCVVVVd2==tk21it=<i6&6i:%uAGx7-:0mGA8$3i<;9i;<kt<8k9&;7kAVVVADD",
"KCVVVVVne#ojV=#mx#;v9.6v<.9AGx7;;0bHA1.7v;Oik#&Bko1F9o-umAVVVVDD",
"KCVVVFV6+6j1=jk;<zi$<j6#;0xAGx7-:wmGNf7%$9i=&jk&1zr&6s<@wAAVVBDD",
"DCVVVFV3.7l=#kv%=mjO1z6O-ixAAx7-=wmGVl0*Otl=*vl$<Vro1c<owAAVVVDD",
"KCVVVVVl0%#wz&=ck$<VrO3z<owAGv7-:wMGV3.5k=#jv==mj#1l7o=umVVVVVDK",
"KCCVVVVl6%$wi;&lj=1nt$6k:#yAGx7;:0mJA6O3k1=hj;<li#<j7#=0xVVVVVDD",
"DCVVVGV1.8v=ohk#=Vjo1Gwo-pmSGx7;:wmFVne$OjV=#mz#=lw.3m<X8FAVVVDD",
"KCVVVGV8+2i1=wr=<st=8z6#*7gAGx7;:0mGVd5$$wl1<jt=<t7=3i>#iFAVVVDD",
"KCVVVVVnp+.iv&Olso<Gt.=p* 9GGx7;:0mGV1.:t$#vB#$vi.<m6.-dmVVVBVDD",
"CCVVVCVs>+#38*$66=1t4+*,%%iGGx7-=wmGAw@*>@#wt<=83#=81##2kAVVVVDD",
"KKVVVGV< >e#.50.%vr.*p= -amAAx7;:wMGVne$ 2qoolkoOu2 =u* 8AAVVVDD",
"KKVVVVVt<tm01kl28Vv<wnt1rNNVFv7;:eVFVVnw2kn33VB36mi1eme1iAVVVVDD",
"DCVVVVVVVVVVVVVVVVVVVVVVVVVVAx7;:0mAVVVBVVVVVVVVVVVVVVBVVVVVBVDD",
"cbVVMVVAGVVGGVVGGVVGCVVGFVVVma5::7dmVVVVGVVVVVVFFVVFAVAFANVVVADD",
"hzMVVVVMVVVVVVVVVVVVVVVVVVVNf02::5enVVVVVVVVVVVVVVVVVBMBVVVVBVDD",
"hhfnNVVVVVVVVMVVVVVMVVVVVVVVnu5::5pmVVVVVVBVVNVVVVVVVVVVVVVMlxSD",
"hhefMAVVVVVVVVMVMVVVVVVMVVVMs7,>>20sVVVVVNVVVBVVVVVVMVVVVVVmpaSD",
"httdMAVVVVVMVMVVVVVVVVVVVVGv;o:24*.3VFVVVVVVVBVVVVVMVVMBVVVMpaBK",
"hhdnMVVVMVVVVVVVVVMVMVVVVVFk&.%>>+.<mGVVBVVVNVMVVVVVVVVVVVVMfkCD",
"hjzVVVVVVVMVVMVVVMVVVMVVVVlp0:OoX+,qdnVVVVVMVVVVVMVVVVMVVVVMmVDK",
"zvVGVVVVVVVVVVVVVVVVVVVVVNdpNs#  =gnpfVVMVVVVVMVVVVVVVVVVMVVVCKC",
"CCVVVMVVBVVVVVVMVVVVVVVVVVddFn$  <VFafVVVVMVVVVVVVVMMVVVVVVVACDK",
"LCmnVVVVVVVMVVVVVVMVVVMVVVdfPV%  1GHalVVVVVVBVVVMVVVVVVMVVVMnMCC",
"KBskVVVVVVMVVVVVVVVVVVVVVMddJm&  1FFpfVVVVMVVVVVVVVVVVVVVVVmdfBD",
"KBpaNCVVVVVVVVMVMVVVMVVVCVddJM%  1FFsfVVVVVVVVmVVVVMVBVVVVFmpsBK",
"KBpdmVVVVVVVVMVVVVVMVVVVVMddJm$  <FFafVVVVVVVVVVVVVVVVVVVVVmsdCK",
"CBlnVVVMVVVMVVVVVVVVVVVVAMdfPV&  1HHplVVNBVVVVVVMVVVVVMVVVVMxvCC",
"KCVVVVVVVVVVVVVBMVVVVMVVAMddHm%  <FFpfVVVVVVVVVMVVVVVVVVVVVMVVKK",
"DKCVVVVVVVMVMVVVVVVMVVVVVMfaZk+  =nNplVVVVVVVVVVVMVVVVVVVVVVVVCD",
"DDVVVVVVMVVVVVVVVVVVVVVMVVlup5+. %0puxVAVNVVVMVVVVMVMVVVVBVNVCKD",
"DCVVVVMVVVVMVVMVVMVVMVVVVNx0*o#;*+O-unVVBVVBVVBVMVVVVVVVVVVVVVCK",
"KDVVVVVVMVVVVVMVVMVVVVVBVVme+.-55% *pmVVVVVVVVNVVVVMVVVmVVVVVVKK",
"KGVVMVMVVVVVVVVVVVVVVVVVVVNx7,2>,,2emNVVVVNBVVVBVVVVVVVVVVVVVVCD",
"CCMmVVVVVVBVMVVVVVVMVMVVVVAVnu5::5amVVVVVVVVBVVVVVVVVMVVVVVVmVCK",
"DCkkMVVVVVVVVVVMVVVVVVVVVVVNfq2:>5uxVVVVVMVVNVVVVVMVVVVVVVVMdlCK",
"KbudmVVVVVVBVNVVVVmVVVVVMVVMmu5::5smVVVVVVVMVVMVVVVVVMVVVBVmppBK",
"DBpdVVVVVVVVVVVBVVVVVVVVVVVVVl6:=0mVVVMVVVVVVVVVMVVVVVVVVVVmsdCC",
"KVllNVVVVVVVVVVVVVVVVVVVVVMVGv5::rVFVVVVVMVVVVVVMVMVVVVVVVVmlvCK",
"KSVNVVBVVVVVVMVVVMVVVVVMVVVVFn7*=eMAVMVVVVVVVMVVVVVVVMVVVVVVNVCK",
"DCmnVVVVVNVVVVmVVVMVVVVVVVVVNd5:>0dMVVVVVVMVVVVMVVVVVVMVVVVBnMDD",
"DBddNVVVVBVVVVVVVVVVVVVVVVVMle4:>5enVVVVVVVVVVVVVVVVVMVVVVVmddCD",
"KBidVAVVVVVVVVVVVVVVVVVVVMCVlq2::5enVCVVVVVVVVVVBVVMVVMVVVAMsaCD",
"KbsdNVVVMVMVVVVVVMVVVVVVVVVVfq2:>5exVVMVVVMVVVVVVVVVVVVVVVVmadCD",
"bvffnVVFVVVVVVVVVVVVVCVVAVNnxu4::7annNVVVAVVCVVVAVAVVVVVVVNxaxVK",
"hteqqsMNMVMBVVVVMMVVNVMMBMayu04:>5qp0fVVMMVMMVVVVMMMVVVVVma0qdCD",
"hw*oO>dxddddddddddddddddxi:X+@>44=@OX2ffsfsskdkdddddsdddxu=Oo1bD",
"h6+.X=tfdddsdddddadpddddgu;..X*1>%..X>dfaafaaaaadsdsddapgu*.o&bD",
"hhthkxNMZVVVVNVVVVANVNVVFNxkj6%OO=wjknVAMNVMNVNVVNNVVVVNAMlsikCD",
"hzVPIIIIIJIIIPIIPPIIIPIPJIIIIl#  =VIIIJIPIIIIPIIIIIIPIIIIIIIFDDD",
"hzMAAGJJJJJJJJJJJJJJJJPJPPGFPk#  =mPFGJJJJJJJJJJJJJJJJJJJJHVVADD",
"hzMVVFJJJJJJJJGJJJJJJJGJJJAVFk#  =nGVFJJJJJJJJJJJJJGJJJJJGABVBDD"
};
