/* XPM */
static char *result[] = {
/* columns rows colors chars-per-pixel */
"64 64 212 2 ",
"   c #010101",
".  c #0C0D04",
"X  c #060508",
"o  c #0C0D0C",
"O  c #0E1006",
"+  c #1A1C01",
"@  c #12130E",
"#  c #181A0B",
"$  c #0C0414",
"%  c #0E0018",
"&  c #14091B",
"*  c #141512",
"=  c #171916",
"-  c #1A1B18",
";  c #1E210E",
":  c #292C03",
">  c #2C2E0E",
",  c #2F3300",
"<  c #2D320B",
"1  c #313501",
"2  c #343905",
"3  c #313508",
"4  c #353A09",
"5  c #393E0C",
"6  c #272915",
"7  c #252518",
"8  c #2E3216",
"9  c #373A16",
"0  c #1A0627",
"q  c #1B1725",
"w  c #210A2D",
"e  c #231928",
"r  c #240C32",
"t  c #240539",
"y  c #2B1638",
"u  c #311E3B",
"i  c #252426",
"p  c #2C2D22",
"a  c #282629",
"s  c #2C2B2D",
"d  c #322C2D",
"f  c #2E3229",
"g  c #34362B",
"h  c #373929",
"j  c #2F2434",
"k  c #2D2B31",
"l  c #342B3A",
"z  c #2F3030",
"x  c #333233",
"c  c #363A32",
"v  c #3A3B34",
"b  c #343139",
"n  c #39333A",
"m  c #3C3B3C",
"M  c #413C3C",
"N  c #3C410F",
"B  c #3E4311",
"V  c #3E431D",
"C  c #3F4022",
"Z  c #3C423B",
"A  c #414614",
"S  c #434816",
"D  c #404418",
"F  c #464B1B",
"G  c #484E1E",
"H  c #4B511E",
"J  c #494F20",
"K  c #444628",
"L  c #4A4D2E",
"P  c #4D5223",
"I  c #4E5528",
"U  c #515626",
"Y  c #535826",
"T  c #585C27",
"R  c #515729",
"E  c #54592A",
"W  c #595D2D",
"Q  c #464736",
"!  c #4B4E33",
"~  c #43423C",
"^  c #4E513A",
"/  c #565D32",
"(  c #5A5F31",
")  c #535638",
"_  c #5C622F",
"`  c #5C6134",
"'  c #5D643A",
"]  c #5C653B",
"[  c #616737",
"{  c #616639",
"}  c #656A3D",
"|  c #686C3E",
" . c #2F0D44",
".. c #2E1141",
"X. c #361847",
"o. c #361A4B",
"O. c #3B1955",
"+. c #392743",
"@. c #3E3A41",
"#. c #431C57",
"$. c #411B5B",
"%. c #412D46",
"&. c #413B44",
"*. c #433C4A",
"=. c #49235E",
"-. c #4F3C57",
";. c #441B64",
":. c #472166",
">. c #4B2166",
",. c #57326C",
"<. c #603E6A",
"1. c #3F4640",
"2. c #444444",
"3. c #464C44",
"4. c #4C4C45",
"5. c #49454B",
"6. c #49464A",
"7. c #515541",
"8. c #555A43",
"9. c #515048",
"0. c #585B48",
"q. c #5B5B4D",
"w. c #4D4553",
"e. c #524954",
"r. c #555253",
"t. c #5A5552",
"y. c #5B5A53",
"u. c #5A565A",
"i. c #5C5A5B",
"p. c #5B6349",
"a. c #5D6457",
"s. c #656C43",
"d. c #696E42",
"f. c #666A4A",
"g. c #6C7246",
"h. c #677149",
"j. c #6C734A",
"k. c #6E794D",
"l. c #707446",
"z. c #737846",
"x. c #71764A",
"c. c #73784D",
"v. c #67665A",
"b. c #626C5D",
"n. c #6D7751",
"m. c #6F7A54",
"M. c #6B745E",
"N. c #767B51",
"B. c #787D53",
"V. c #737E5A",
"C. c #787C5A",
"Z. c #625D64",
"A. c #645B6A",
"S. c #656163",
"D. c #6B666A",
"F. c #706C67",
"G. c #697465",
"H. c #6A7564",
"J. c #75796D",
"K. c #756B76",
"L. c #767175",
"P. c #7B767A",
"I. c #827A69",
"U. c #827B7A",
"Y. c #7B8056",
"T. c #77815C",
"R. c #7D835A",
"E. c #7C8662",
"W. c #7D8866",
"Q. c #7F8B6A",
"!. c #80865E",
"~. c #81885D",
"^. c #838A64",
"/. c #838D6B",
"(. c #86906D",
"). c #89916C",
"_. c #8C8D7A",
"`. c #869374",
"'. c #8B9574",
"]. c #8D9976",
"[. c #8B967A",
"{. c #8E9A7B",
"}. c #919D7D",
"|. c #95A17E",
" X c #826C8B",
".X c #837A86",
"XX c #806493",
"oX c #8A848D",
"OX c #90888F",
"+X c #929D81",
"@X c #9A939C",
"#X c #A29C98",
"$X c #95A284",
"%X c #98A688",
"&X c #99A888",
"*X c #9CAA8D",
"=X c #9DAC91",
"-X c #AFA79B",
";X c #A1B095",
":X c #A2B298",
">X c #A7B89F",
",X c #A59EA0",
"<X c #B2AAB1",
"1X c #BCB4BB",
"2X c #C2BCBD",
"3X c #BFAFC1",
"4X c #D1CBD2",
"5X c #DCDBD5",
"6X c #E4DED5",
"7X c #E9E7E7",
"8X c #F5F5F3",
"9X c #F8F9F6",
/* pixels */
"B F J J G G S J J B A A F J S S S S S S B N F F J J J F F J S S S F J F S S S S S A 5 S J F J J F F J F S S S F F B S S S S S B ",
"F =X%X{.$X$XR.}.$XN.Y.c.).&XR.B.B.c.c.Y.E 2 '.=X+X}.%X^.).%XR.N.N.E.&X/.N.B.N.c.B.} 1 n.:X+X+X+X].!.%X/.c.Y.Y.$X{.B.B.B.c.c.N.F ",
"F %XW.x.} E W T E ` ` ` W E ` _ [ B.c.B.E 2 `.'.x.g.E W ( E W ` ` ( E ( ( ( x.N.c.} 1 n.%XB.x.W E ` E W ` ` W E W ` _ g.B.c.c.F ",
"J }.x.| E h.k.k.k.g.T } k.k.` h.I ` Y.B.Y 1 '.N.x.R h.h.h.h.h.W ( h.j.' s.( R N.N.} , n./.c.W } k.j.j.N.[ T k.m.g.] } H g.N.c.J ",
"G $X} E &XG.3.Z Z c 6 g Z 1.g 3.R.Y [ Y.E 2 `.N.E Q.+X] p.h.s.I ( s.j.` ' Y.` W B.} 1 V.).E j.;X4.1.Z Z p 8 Z Z Z c b.l.I g.c.G ",
"F $XT j.G.X O p.a.a.p.) 8.K : + p | F R.R 2 `.x.P +X' T.T.[ m.E.} m.W ` ( P j.S c.} 1 n.'.B {.f   8 b.a.b.^ p.L V + + 8.P } c.G ",
"G $XE k.1.O T.=X/.^.~.R.R.Y.j.A 9 } P R.E 1 '.N.I W./ >X'.c.R.R.N.R.c.B.Y.F s.F N.} 1 V.'.S `.  V &X|.R.^.Y.R.Y.B.` , / I } c.H ",
"S Y.` ` p p.;XY.x.x.x.x.x.c.c.g.F } P R.E 2 j.x.F } ] {.z.c.c.k.N.x.c.x.B.F | F B.} 1 ( R.F g.@ $X].x.x.x.c.c.c.c.N.Y ` P } B.S ",
"S R.` ` 8 a.~.x.c.c.c.c.c.c.c.k.F } J I.Y 2 j.j.F } ( `.x.c.c.c.x.c.x.N.B.F d.S N.} 1 ` !.S g.* }.x.c.c.c.c.c.c.c.N.E ` U } c.F ",
"G $XE k.1.K Y.c.c.c.x.c.c.c.c.g.G } P !.Y 2 `.N.I /.G N.c.x.c.c.c.c.c.x.B.F d.F B.} , V.'.S `.@ x.x.c.c.c.x.c.c.c.N.E ` P } c.G ",
"J $XE k.1.^ R.c.x.c.c.c.c.c.c.z.G } G !.Y 2 '.N.I /.U ^.x.c.c.c.c.c.c.x.B.F | F c.} , V.'.A '.* ^.x.c.c.c.c.c.c.c.N.W ( U } c.P ",
"S )._ s.g 8.R.x.c.c.c.c.x.c.c.x.F | G B.Y 2 R.x.J V.E ^.x.c.c.c.x.c.x.N.B.F d.S B.} 1 s.^.F C.* /.x.c.x.c.c.c.x.c.N.W ` P } c.F ",
"S x.' T 7 8.R.c.x.N.c.c.c.c.c.j.G } J !.E 4 } j.F { / ^.x.c.c.x.N.x.c.c.B.F d.F B.} 2 E B.G [ @ /.x.c.c.c.c.c.c.x.B.E ` P } c.S ",
"G {.T g.g G.^.c.c.x.c.c.c.c.c.c.G } J !.R 1 /.c.J C.' }.x.c.c.c.c.c.c.c.B.G d.S c.} , j.).S W.= &Xl.c.x.x.c.c.c.c.B.W ( U } c.G ",
"S R.` ` g > x.c.c.c.x.x.c.x.c.H F } P R.R 4 c.x.G j.P R.c.x.c.c.x.c.c.c.B.F d.F B.} 1 ' !.F j.. W N.c.c.x.c.c.c.N.s.5 [ P } c.F ",
"G }.W _ h + A g.j.x.z.x.x.c.G 5 G } G R.R 2 /.x.F } P x.l.x.x.l.j.x.x.j.c.F d.F B.} , k.).S | @ 2 U c.x.x.x.x.x.} N 5 } P } c.G ",
"S Y.] P Y.p B F F F F F F F F G c.` U R.E 2 d.c.H c.} S G F F G F F S H D d.x.J B.} 2 ( C.P } g.# F G F F G F G F S ( B.G | c.S ",
"S c.Y.` Y | s.} } [ | } | | } | ` R B.B.R 2 d.B.g.P } } } } } } | } } } | } G x.c.} 2 ( B.B.J [ d.} | } } } } } } } | U | N.c.S ",
"S c.c.N.' F P H H H J J H P H H E B.c.B.E 4 d.N.c.g.F P P J P G P G H F J J x.c.B.} 2 ( B.c.c.P G G P J J P H P J J G } B.c.c.S ",
"S Y.Y.Y.Y.R.R.R.I.!.!.R.R.R.R.R.R.B.B.R.E 2 x.B.B.Y.R.R.R.R.R.!.!.!.~.Y.I.!.B.B.B.| 1 _ !.B.B.!.!.!.Y.!.R.R.R.R.!.Y.!.B.B.B.B.S ",
"B E E E E Y E E E E Y E R E Y E E E E E F 5 P E E E Y E E Y E Y Y Y E Y R E E E E U 4 * p T E Y Y Y E R E R E E E E E E E E E B ",
"B 1 1 1 2 1 2 2 2 2 2 4 2 2 2 2 2 4 2 2 5 A 2 2 2 1 1 2 2 2 2 2 2 2 2 2 5 4 2 2 3 > 6 o = < > > 2 2 1 4 4 2 4 1 2 2 4 4 2 2 4 5 ",
"F '.`.`.`.].x.(.`.d.d.| R.{.j.g.d.d.d.j.U 2 E.'.`.`.{.N.R.{.j.g.d.x.}.C.d.d.d.d.^ - & q e a a 3.E.c.[.C.| g.d.`./.| d.d.d.d.d.F ",
"F =X'.B.B.c.j.c.c.x.x.j.x.N.x.x.x.B.N.B.E 1 [.$XT.N.c.x.k.c.k.g.x.x.N.x.j.7.y.y.v i b Z.A.9.F.v.c.x.N.x.x.x.x.c.x.x.x.c.N.c.N.G ",
"J }.k.x.R J I P I I S J I I H I G x.c.B.E 1 `.N.N.' H E E I Y H H E K ) p.w.2.6.e.A.L.<X1X#X-XI.! P I I P F P I J J J E N.N.x.J ",
"J +Xg.E Q.+XQ.Q.Q.T.' m././.s.W.c.J g.B.E 1 `.Y.` h.*XJ.H.H.H.) 7.a.g i.L.Z.s s K.<X2X5X7X5X-Xv.m Q.Q./.g.' E./.E.j./.W W x.x.J ",
"F $XY s.$X] E ` H ' W R R F P G } | G !.R 2 `.c.J *Xc   ; z s i v r.r.w.m s o 7 OX6X8X8X9X8X-Xt.Q ` I R ] I ( G G G Y B.G { N.G ",
"P %XE n.] T.>X].Y.]./.W.^.N.B.c.S } P C.E 1 [.N.R J.  V &X|.4.a 5.Z.u.j X     i +X5X8X8X7X4XoX6.:X=X^.^.}.Y._.B.B.C.W W U } N.J ",
"S ^.( ' ( T.`.x.c.z.x.x.x.c.c.x.F | H Y.Y 2 N.x.P p.- *X{.y.i.D.6.a * $ $ $ $ d I.-X3X4X<XK.Z.u.+XC.j.x.x.x.x.x.c.N./ ( P } N.S ",
"S c.` R P E.R.c.c.c.c.c.c.c.c.x.F } H I.Y 2 s.x.G L b +XJ.D.u.&.j & % 0 r y w e m i.L..XK.3.q.^ +Xg.c.c.x.x.x.N.c.B.W ( P } N.S ",
"F {.( h.s.' N.c.x.c.c.x.c.x.c.x.G } J !.Y 2 /.x.I a.m D.OXP.n $ w y o.o.X.X.y r q b w.@.v.S /.J B.c.c.c.x.N.c.x.x.B.W ( U } c.G ",
"J $XE j.h.` N.c.c.c.c.c.c.c.c.j.F } J !.E 2 M.h 4.S.r.u.y.6.a t #.;.;.#. .r y *.w.r.5.q.Q.S `.F B.c.c.x.N.x.c.N.x.B.W ( P } c.G ",
"G }.W s.} m.R.x.c.c.c.x.c.c.c.l.F } P R.E 9 4.d @.2.@.@.r.S.A.,.;.;.$.#.X.l @.u.J.v.M j.).S /.J '.x.c.c.c.c.c.c.c.B.E ( U } N.G ",
"A c.' R U s.B.c.c.c.c.c.c.c.c.x.F } P R.E M 6.M a & % +. X2X3X X#.t t l e.S.i.t.B.} 2 W B.G } F C.c.c.c.c.c.x.c.c.N.W ' P s.c.A ",
"F /.( ' / W.^.c.x.c.c.c.c.x.c.x.F p.C y.~ x a e e w  .=.XX2X<XL.-.%.-.5.i.8.f.! N.} 1 s.^.S B.J %Xl.c.c.x.c.c.c.c.B.E ( U } N.F ",
"S /.( } ' f.B.c.c.c.c.c.c.c.c.x.G ^ b m n q & 0  .$.;.;.,. XU.F.Z.Z.F.v.p.B g.S N.} 1 s.^.F E.G ^.x.c.c.c.c.c.x.c.N.E ( J } c.F ",
"F ).` E U ( B.B.B.B.B.B.B.B.B.c.K M x e q w ..#.;.:.:.o...+.D.oXD.F.C.s.D 2 d.F B.} 1 f.^.S s.A N.B.B.B.B.B.B.B.B.B.W / U } c.G ",
"F ^.( U c.U F G F G S F F F F L M x p e r O.;.>.;.O.o.+.+.n 6.i.q.! G B 2 ( c.S B.} 1 { ^.F d.} F F F F F F F F G F Y B.G } c.F ",
"S c.c.W { x.} d.d.| d.d.| d.d.2.6.&.g %.>.>.:.$.o...u @.u.i.v g d.d.d.d.d.N.P d.c.} 2 W B.x.G x.d.} d.| d.} d.| d.s.c.W ( c.c.S ",
"S c.c.N.E A F S F F F F F F S n Z.U.F.K.<.O.o.+.+.@.@.k M ! K V S F S F F S d.c.B.} 2 W B.c.l.S F F F F F F F F S S S ( B.c.x.S ",
"S B.N.c.N.N.B.c.N.B.N.c.B.B.N.3.D.@X,XU.-.l u l b 6.0.Q 8.N.B.N.B.B.N.N.N.N.N.c.B.} 2 ` B.B.N.B.B.c.N.B.B.c.B.N.B.B.B.c.B.c.c.S ",
"S } } } } } } } } } } } } } } } i..X@XZ.d n &.*.a Q } } } } } } } } } } } } } } | W 2 R d.} } } } } } } } } } } } } } } } } } S ",
"5 1 1 1 1 1 1 1 1 1 2 1 1 , 1 2 C q.A.5.z s M 9 > 3 , 1 1 , 1 1 1 1 , 1 2 2 1 2 2 2 A 2 : 1 1 , , 1 , , 1 2 1 1 , 2 2 2 2 2 2 5 ",
"S n.n.n.n.V.` n.n.( ( W s.V.' W W 0.5.@.b j 7.x.m.m.V.} s.V.' W ( ' C.s.W ( ( ( ` E 2 ( c.m.m.m.j.' C.s.W ( W V.j.W / ( W ( ( S ",
"F :X&X/.).'.!.).).B.R.Y.^.].!.Y.R.B.B.R.W 1 }.;X(.).'.!.^.'.R.R.Y.!.].^.B.!.B.B.B.d., V.>X].).'.).~.].^.B.Y.R.`.).B.!.B.B.B.B.G ",
"G $Xc.c.W B S S S F F F S A F S P B.x.B.E 1 '.E.x.s.A S S A F F F F A S S S x.c.N.} 1 n.].x.x.S S S A S F F F S S F A { B.c.x.G ",
"G }.z.W h.{.`.(.`.W.{ N.'.'.j./.} P N.B.E 1 `.B.s.E ].`.`.`.`.s.j.'.[.V.R.N.J j.N.} 1 m.^.x.J `.`.`.(.'.c.} /.`.^.c.^.J { N.c.G ",
"G $XW p.=Xg X = = = * * * * . @ f.{ P R.E 1 `.N.J *XR.S P G P J F J F F F } x.F N.} , m.'.S `./.X o = = = @ = * @ X h B.G } N.G ",
"G $XW k.3.  V $X|.$X).^.^.c.Y 4 # | H Y.E 2 [.c.I Q./ :X%XY.'.{.Y.].x.c.B.F | F N.} , V.`.S '.X O h.=X}.$XY.].B.g.S + Q Y } c.H ",
"G '.W g.Z 8 $X{.x.j.c.x.x.c.B.U H | P R.Y 2 E.N.P C.` *XB.z.x.x.x.x.c.x.B.F d.F c.} 1 j.).S E.. g.;XR.g.x.c.j.c.c.g.B [ P } c.F ",
"S x.` T 6 G.$Xz.x.c.c.c.c.c.c.c.F } H Y.E 2 } j.S _ p.'.g.c.c.c.c.c.c.c.B.F d.S B.} 2 E B.F { = ;XE.z.c.c.x.c.c.c.B.( ( P | c.S ",
"F (.W | c ) Y.x.c.c.x.c.c.c.x.x.F | H Y.E 2 R.x.P N.R ^.x.c.c.c.x.c.c.c.B.F d.S c.} 1 d.^.S Y.* ^.g.c.c.c.c.c.x.c.B.W ` I | c.F ",
"H $XE c.3.C Y.x.x.c.c.c.c.c.c.x.G } J I.E 1 [.c.I Q.S c.c.c.c.c.c.c.c.c.B.F d.F B.} 1 V.].S '.@ z.c.c.c.x.c.c.c.c.N.E ( P | c.H ",
"J $XE k.Z p.~.x.c.c.c.c.c.x.c.j.G } J !.E 1 `.N.R Q.( `.x.c.x.c.c.c.x.c.B.F | F B.} , m.).A `.* '.k.c.c.c.c.c.c.c.B.W ` P } N.G ",
"S Y.' _ p ^ Y.x.c.c.c.c.c.c.c.z.F } J R.E 4 j.x.J s.I Y.x.c.c.c.x.c.c.c.B.F d.S N.} 1 ` !.S d.@ Y.x.c.c.c.c.x.c.x.N.E ` I } c.S ",
"S Y.` ` p a.^.k.c.c.x.c.c.c.c.x.G | J R.R 4 j.x.F s.] ].j.c.c.c.c.c.c.c.B.F s.F B.} 2 ` !.F f.* |.x.c.c.c.c.c.c.N.B.W ` P } c.F ",
"F ].W g.v 7.~.x.c.c.c.c.c.N.N.} G } J !.Y 2 Q.x.P E.( ).x.x.x.c.c.c.c.c.B.F d.F N.} 1 j.).S /.* /.N.c.c.c.x.c.c.c.N.P ` P } N.G ",
"F ^.` _ p + [ B.B.B.B.N.N.B.s.5 S } J !.U 2 N.x.F { J C.B.B.B.B.N.B.B.B.R.F } S N.} 2 { !.F }   A d.B.B.B.B.B.B.N.R 1 ' U } c.F ",
"F `.W E 8.+ : E E E E E E W 5 2 ` | F !.E 2 E.c.S c.E E E / W E E E / E E R x.S N.} 1 f./.A l.h + A ( W E E / W P , S x.J { c.F ",
"S c.g.U z.8./ ` ` ` ` ` ` ` { } c.U } C.Y 2 d.c.W ` N.( ( ( ( ( ` ` ( ` ( B.W ( N.} 2 W N.[ U B.K [ ( ' ( ( ( ( ` { x.} E x.c.S ",
"S N.N.l.P U U P P P P P P U P U J } B.B.E 4 d.N.N.W J U P P P U P U P P U J ( N.B.} 1 ( B.B.{ G Y U J U P P U P U U J R x.N.c.S ",
"S c.c.N.g.} } } s.} } s.} } } } d.N.c.B.E 4 d.N.c.c.} } } } s.} } } } s.} } c.c.c.} 2 ( B.x.B.s.| } } } } } s.} } } } j.c.c.c.S ",
"S x.z.x.x.c.c.x.c.c.x.c.x.x.c.x.x.x.x.N.R 2 d.x.x.x.x.c.x.N.x.x.c.c.c.c.c.x.c.x.c.} 2 W c.x.x.x.c.x.c.c.c.c.c.x.x.c.c.x.x.x.x.S ",
"B A A A A B S B A S S B S B S S A B A S B N B S B A A A A A A A A A B A A A B S A A 5 A A A A A A A A A B A A A A A B B S B S N "
};
