/* XPM */
static char *result[] = {
/* columns rows colors chars-per-pixel */
"64 64 225 2 ",
"   c #020202",
".  c #0B0C04",
"X  c #050509",
"o  c #0B0B0B",
"O  c #0E1006",
"+  c #1A1C01",
"@  c #14150E",
"#  c #171809",
"$  c #0D0E12",
"%  c #0F0E1F",
"&  c #140E16",
"*  c #0F121F",
"=  c #141513",
"-  c #171814",
";  c #1A1C13",
":  c #14141B",
">  c #1A171C",
",  c #242605",
"<  c #2A2E03",
"1  c #2F3301",
"2  c #2F3308",
"3  c #313501",
"4  c #343905",
"5  c #363B09",
"6  c #393E0D",
"7  c #262615",
"8  c #2B2C1D",
"9  c #2E3117",
"0  c #383C15",
"q  c #171626",
"w  c #1C1B25",
"e  c #1C1C2B",
"r  c #231B26",
"t  c #201E2D",
"y  c #1D212E",
"u  c #1F2533",
"i  c #2B2C22",
"p  c #24232E",
"a  c #2A2829",
"s  c #2E3127",
"d  c #333425",
"f  c #32352B",
"g  c #393A29",
"h  c #242433",
"j  c #252837",
"k  c #2B2B34",
"l  c #272A39",
"z  c #2C2C3C",
"x  c #322E36",
"c  c #322E3C",
"v  c #2D313C",
"b  c #373935",
"n  c #3C3C33",
"m  c #34323C",
"M  c #463F3C",
"N  c #3D420F",
"B  c #3C4113",
"V  c #3F441C",
"C  c #3F4125",
"Z  c #3E4137",
"A  c #3C423B",
"S  c #414615",
"D  c #444816",
"F  c #41441F",
"G  c #464B1C",
"H  c #494E1E",
"J  c #454926",
"K  c #4A4F22",
"L  c #4D5223",
"P  c #4E5429",
"I  c #515626",
"U  c #565A27",
"Y  c #515728",
"T  c #54592B",
"R  c #585D2D",
"E  c #464738",
"W  c #4E5238",
"Q  c #565C32",
"!  c #5A5E31",
"~  c #545639",
"^  c #5C622F",
"/  c #5C6134",
"(  c #5D643B",
")  c #5C653B",
"_  c #61663A",
"`  c #656A3B",
"'  c #656A3D",
"]  c #2E2D42",
"[  c #312E42",
"{  c #2E3142",
"}  c #323344",
"|  c #3A3844",
" . c #36334A",
".. c #39354C",
"X. c #363949",
"o. c #3B3A4C",
"O. c #3E3C52",
"+. c #463B48",
"@. c #423D4D",
"#. c #413E54",
"$. c #423E5A",
"%. c #3F4541",
"&. c #3F4049",
"*. c #3D4051",
"=. c #434445",
"-. c #484849",
";. c #4E504E",
":. c #515542",
">. c #555A43",
",. c #575B48",
"<. c #434354",
"1. c #4A4653",
"2. c #484957",
"3. c #44435A",
"4. c #49465A",
"5. c #4C4B5D",
"6. c #524D5A",
"7. c #54525E",
"8. c #59565A",
"9. c #605B5C",
"0. c #5C624A",
"q. c #5D6656",
"w. c #656C43",
"e. c #696E42",
"r. c #656948",
"t. c #6C7246",
"y. c #67714A",
"u. c #6D734B",
"i. c #6E794D",
"p. c #717546",
"a. c #71764B",
"s. c #73784D",
"d. c #646B58",
"f. c #677150",
"g. c #6D7751",
"h. c #6F7A54",
"j. c #717551",
"k. c #767B51",
"l. c #787D53",
"z. c #747E5A",
"x. c #4D4B63",
"c. c #4E4C68",
"v. c #514D62",
"b. c #584E66",
"n. c #4C5367",
"m. c #545264",
"M. c #5C5465",
"N. c #595A65",
"B. c #55546A",
"V. c #5B556B",
"C. c #5E5A6E",
"Z. c #4A5971",
"A. c #5A5875",
"S. c #615966",
"D. c #635E6B",
"F. c #625D72",
"G. c #635D7B",
"H. c #5C6169",
"J. c #67626D",
"K. c #6A7565",
"L. c #747C69",
"P. c #666273",
"I. c #696472",
"U. c #6A6877",
"Y. c #6D6A7B",
"T. c #706B71",
"R. c #736C75",
"E. c #746D7E",
"W. c #7C747C",
"Q. c #7B8056",
"!. c #77805C",
"~. c #7D835A",
"^. c #7D8662",
"/. c #7D8866",
"(. c #7C876A",
"). c #7E8771",
"_. c #80875D",
"`. c #838B64",
"'. c #838E6A",
"]. c #86916E",
"[. c #89916D",
"{. c #808B74",
"}. c #869374",
"|. c #8A9574",
" X c #8E9976",
".X c #8A9778",
"XX c #8E9A7B",
"oX c #919D7D",
"OX c #95A17E",
"+X c #615F82",
"@X c #696887",
"#X c #736B85",
"$X c #7B7583",
"%X c #767489",
"&X c #7A7788",
"*X c #6A7894",
"=X c #737290",
"-X c #7874A0",
";X c #817986",
":X c #847C8B",
">X c #857C9A",
",X c #7A8398",
"<X c #7782A1",
"1X c #88858B",
"2X c #8B8590",
"3X c #938997",
"4X c #999399",
"5X c #A5989C",
"6X c #95A283",
"7X c #98A689",
"8X c #9CAB8D",
"9X c #9DAB91",
"0X c #A2B297",
"qX c #908AA6",
"wX c #8695AA",
"eX c #9DA5B4",
"rX c #AABAA2",
"tX c #A5AABC",
"yX c #A6B1BC",
"uX c #AC9FCC",
"iX c #ABB7C4",
"pX c #B2BCC7",
"aX c #BCC7CB",
"sX c #BFC8D5",
"dX c #C7D0D4",
/* pixels */
"B G G J V H V V H B N B V H B V S S S S B B G G H G J D F G S D S D H D S D S S S B 6 S J G J G D S K S S S S H G B N D B B D B ",
"G 8X7XXXOX7X~.OXOXQ.Q.Q.|.7X~.Q.l.s.s.Q.U 3 |.8XXX6X7X`.`.).+.M M M 6.+.E j.k.s.k.' 3 g.0X6XoX6XoX~.8X'.s.Q.Q.oX XQ.Q.s.Q.s.i.G ",
"G 7X/.p.` T ^ U U ^ ^ / U U ^ ^ ` k.s.l.T 4 }..Xu.t.T U M #.+X@X@X@X@X+XG.+.t.s.k.' 3 g.7Xk.s.R R R R R ^ / ^ T R / R t.k.s.u.H ",
"H oXs.' T y.i.i.!.' U ' !.!.^ t.I / Q.k.T 3 }.k.p.T w.-.G.-X-X@XG.-X>XA.3.#.M j.k.' 3 h.`.s.R _ i.i.u.g.) R u.i.t.) ` L t.k.u.H ",
"H oX` T 8XK.-.Z A Z 8 f Z %.C %.Q.U / Q.U 3 |.k.R (.L.b B.qX>X+X$.@..... ...| M l.' 1 k.[.R y.0X-.E A A i 8 A A Z n f.t.P t.p.H ",
"H 6XU u.K.  O 0.q.q.0.~ W C , + s ' H ~.T 4 }.s.P XXM ..[ =XA. . . . .....O.} 7 E ! 3 j.|.B XXs   9 K.q.q.W q.J 0 + # >.L ` i.H ",
"G 6XT i.%.O !.8X^./.~.~.Q.Q.i.B 0 ` K ~.T 4 }.j.P /.d  .] +X>Xc.....@..... .p > ] b < k.[.D }.  V 7XOX~.`.Q.~.Q.Q./ 1 Q P ` a.H ",
"V Q./ ^ i q.8XQ.p.i.s.p.i.i.Q.t.G ' L ~.T 4 t.a.H Q i ..] G.uX>X$... .[ [ c c 4.c.| 2 ! _.G e.= 6XXXp.p.s.s.s.s.s.k.T / L ` a.V ",
"B !./ ^ 8 q._.s.s.s.s.s.s.s.s.i.G ' L _.I 3 t.a.F +.[ [ ] $.qXqXO.z ] ..$.c.A.A.+.W 4 / _.D e.= oXa.s.s.s.s.s.s.s.l.! ! L w.a.D ",
"H 7XU i.=.V Q.s.s.s.s.p.s.s.s.p.H ' K _.U 3 }.r.6.-X+X$.#.$.+XG.$.x.A.+X@XA.$.[ :.' 3 h.|.D |.@ p.s.s.s.s.s.s.a.s.l.T ! L ` a.G ",
"H 7XT g.A ~ ~.s.s.s.s.s.s.s.s.u.G ' K Q.Y 3 .Xr.+.#X-X=X#X@X@X@X#XG.G.#Xm.c m N.r.' 3 h.|.D |.= `.a.s.s.s.s.s.s.a.k.T / L ' j.K ",
"G ].^ ' f 0.~.i.s.s.s.s.s.s.s.p.H ' H _.U 5 ~.j.K 0.+.A.b.b.m.B.c...7.I.U.2X%X*Xd.' 3 r.`.D z.= `.a.s.s.s.a.s.s.s.l.Q / L ' i.G ",
"B s./ U 7 >.~.s.s.s.s.p.s.s.s.u.G ` K ~.Y 5 ` u.G / M @.H.@XZ.&.F.v.n.<XwXiX,X2.d.` 4 U l.G _ @ `.s.s.s.a.s.s.s.a.l.T ! L ' a.S ",
"G  X^ t.b d.`.s.s.s.s.s.s.s.s.s.G w.L ~.Y 4 '.s.L ~.E G.eX<X<XZ.>XqXZ.,XwX<Xn.f s.' 3 f.[.D `.> 7Xa.s.s.s.s.s.s.k.l.! ! I ' a.D ",
"V ~.^ / f 9 p.s.s.s.s.s.s.s.s.H G ` L ~.T 4 i.a.K t.L D.<X<XyX<X@X-X<XyXwXH.n.A l._ 4 _ _.D a.O R s.s.s.a.s.s.s.k.w.6 ( L ` j.S ",
"G XX^ ^ g + S t.a.a.u.a.a.p.H N H ` H ~.Y 4 '.j.D ` K J.*XyXaX<X*X*XwXaXwXq.N.C l.' 1 a.[.D r.O 5 I s.a.a.p.a.s.' 6 6 ` L ` j.G ",
"B Q./ L Q.s 0 H H G G G G H G H k._ I Q.U 5 e.s.H a._ 8.@X,XtXaXyXyXpXyXR.k 8 F k.` 3 / Q.L ` y.# H H G H H G G G S ! k.L w.s.S ",
"N Q.Q./ U ` ` ` ` ` ` w.` ` ' ' ! I l.l.Y 5 e.k.a.K _ <.,XeXyXsXaXaXdXY. .t O 0.k.` 4 ! l.k.L _ e.` ` ` ` ` ` w.w.` ` I ` k.a.S ",
"N s.s.Q.) H L H L K K L K K H H Y l.s.k.Y 5 e.k.k.t.0 z @XyXwXyXtXsX1Xe  .h b >.k.` 4 ! l.s.k.L K L L K L H L L K L G ` l.a.a.S ",
"G Q.Q.Q.Q.~.~.~.~.~.~.~._.~._.Q._.k.k._.U 5 p.l.l.l.E h 5.yXsXaXiXaX5.] } w #.=.a.w.3 ! _.l.k.~.Q.~.~.~.~.~.Q.Q.~.Q._.l.l.k.k.S ",
"B T U T U T T U U Y T U T T T T Y Y Y T G 6 I I T T 7 y | n.%X@X%X2.y X.h c D.<.s M 4 G Y T Y Y U U U T T Y T T U Y Y Y Y Y I 6 ",
"N 3 3 3 3 3 5 3 4 5 4 4 3 3 4 4 4 5 5 4 6 S 5 3 3 V a * } y w #.X.w > w z S.3XI.] | d 4 4 4 4 4 4 5 3 4 5 4 5 3 4 5 5 5 5 5 5 6 ",
"G .X}.}.}..Xi.].].e.t.' ^.XXi.t.e.e.e.a.I 4 ^.|.d.W.:Xo.y : b.3Xv.& : r o.x.R.3XM.} 5.%.(.{.}.}.`.j.XX!.' t.t.|.`.e.e.e.e.e.r.D ",
"G 8X Xk.k.s.u.s.s.p.a.u.s.s.p.u.s.k.k.l.Y 4 |.L.b <.R.3X7.> +.+.r > ..U.R.P.B.S.=.o.#X4.q.^.l.s.a.i.j.s.a.p.u.s.a.a.a.k.k.k.a.G ",
"G XXi.a.T K P P P P G L P P H P K p.s.l.Y 4 (.| <.{ z <.7.z y q t #.I.:XT.+.z q #.V.3.<.o.p.w.L I I P P H H P P L K H T k.k.a.G ",
"G 6Xt.T (.6X/././.!./ i.'.].e./.s.K t.l.Y 4 L.6.W.V.z w j X.u e $.F.M.@.j j l ] D.5.X.P.7.e.Q 7X/./.(.].t./ ^.'.^.u.'.! T a.u.J ",
"H 6XU w.6X) Q / L ) ^ Y T G L H ' ' G _.Y 4 {.:.J.P.l z j j e o.M...e ] X.} <.5.U.F.2.*.v S XXz.T / Y P ) Y Q H H H I k.K _ a.H ",
"H 7XT f.) !.0X XQ. X'./.`.s.l.k.D ' H _.U 3 XX:.m h h } l q e <.[ $.z c J.T.P.<.z j u j k S |.G 0X9X`.`.XX~.|.l.k.~.T ! L ` a.H ",
"S `./ ) R !.|.u.p.u.s.p.s.s.s.p.G w.K _.I 4 k.,.7.y ..5.X.e q o.I.:X4.e h h e e } o.{ X.| G k.K 6X!.u.p.t.a.a.s.s.k.T / P ` a.D ",
"S j./ Y L ^.~.a.s.s.s.s.s.s.s.p.G ' L Q.U 5 _ 8.Y.m D.:X*.z ..5.4X&Xx.m.U.5.z j D.;Xm.<.*.G ` L 6Xe.s.s.s.s.s.s.s.k.Q ! L ` j.S ",
"H XXR y.w.) k.s.s.s.p.s.s.s.s.u.G ' K Q.I 4 L.T.;X<.T.:Xo.M.F.V.#X#XO.E.4Xn.j e o.J.N.n.2.D (.H Q.s.s.s.s.s.s.s.s.k.R / P ` a.H ",
"G 6XT u.y./ k.s.s.s.s.s.s.s.s.u.H ' L _.U 2 M.&XC.| M.$X| P.3XH.J.;X3.P.:X5.j % v D.I.7.=.D .XH j.s.s.s.s.s.s.s.s.k.U / L ` a.J ",
"H oXR w.0.k.~.a.s.s.s.s.s.a.a.p.H ` K ~.Y 8 1.m.2.] X.N.z O.P.*.2.x.{ 2.5.v q q 7.$X$XD.,.D '.L }.i.a.a.s.s.s.s.s.k.T / L ` j.G ",
"B j./ Y U ` l.s.s.s.s.s.s.s.s.a.H ` K ~.P =.6.@.{ q e X.z e  .{ w & q > : = r <.qXqX$X8.,.K ` D ~.a.s.s.a.s.s.s.a.l.Q ! I ` a.S ",
"G './ ( ^ ^.`.a.s.a.s.a.s.s.s.a.H ' L k.d <.3.@.l p o o $ X o = X       o p 7.Y.Y.2.{ E `.D z.L 7Xa.s.s.s.s.s.s.s.k.T / L ` a.G ",
"D [.! ) ) y.l.s.s.s.s.s.s.s.s.a.G ' K :...@.#.} g -.j * $ p >   j <.> p +.4.o.5.<.h w ( `.D ~.K `.a.s.s.s.s.s.a.s.l.! ! P ` a.F ",
"G [./ T I / l.k.l.l.k.l.l.l.l.s.D w.K b.A.[ j E H E | X.j b.3.X +.uXb.a c.V. . .6.E < r.'.D w.S s.l.l.k.l.l.l.l.l.~.T ! L ' i.D ",
"D /./ P s.P H H G H H G G G G H e.' H 1.6.p E f.D 0.7.<.} C.5.X m tXE.+.] c.O.a ,._ 3 _ _.D t.` G H H G H G G G G D Y l.L ` j.S ",
"D s.p.R _ a.e.e.e.e.e.' e.e.e.e.p.H a.r.b 7 ' k.` J J.5.@.J.4.X x E.:XF.& z a W k.` 4 R l.a.H a.e.e.e.e.e.e.e.e.e.w.a.! ! k.a.S ",
"D s.s.k.T D D D D G G D G D G D H a.s.k.I 5 e.k.u.;.J.x.1.R.2.  c 4.v.$.t r a r.k.' 3 ! l.s.a.D D D G D D D D G D D S ! k.s.u.S ",
"V s.k.s.k.k.k.k.k.k.k.l.k.k.k.k.l.k.s.Q.T 5 p.l.r.8.J.B.<.W.m.  x v.#.3.o.v v r.Q.w.3 / ~.k.k.k.k.k.k.k.k.k.k.k.l.l.k.k.k.k.a.S ",
"S ' ` ` ` ' ` ` ' ' ` _ ' ` ` _ ' _ ' e.L 5 / ' Q 8.M.I.@.E.m.. | v.5.6.4.} k Q ` T 4 T ` ' _ ` ` ` ` ' ` ` ` ` ` ` ` _ ` ` _ B ",
"N 3 3 3 1 1 4 1 3 3 4 4 3 3 4 4 4 4 3 4 6 S 3 < d N.2.R.x D.M.w 5.4.#.4.5.X.u 7 4 4 B 5 1 3 3 1 3 3 1 1 4 4 3 3 3 4 4 4 4 4 4 6 ",
"B g.g.h.h.z./ g.g.! ! R e.z./ ! ! ! ! / H 5 r.u.-.<.2.&Xh 1.E.5.V.4.o.o.n.*.{ f Q Y 4 ^ h.h.h.k.u.( z.w.R ! / j.u.Q ! ! ! ! Q S ",
"G 0X7X`.[.|._.[.[.l.~.Q.`. X_.~.~.l.k.~.U 3 oX9X;.v v.2Xa 1.&X#XF.V.X.{ 5.2.z A j.e.1 k.rX|.`.|.[.~. X`.Q.Q.~.|.[.Q.~.l.k.l.s.G ",
"K 6Xk.s.R B D D D D G G D D D D L k.s.l.T 3 |.l.Z j v.1Xh -.&X%XD.E.X.{ x.5.X.Z i.` 3 g..Xa.s.D D D D D G G D D D G S ` k.s.a.G ",
"G XXa.R y.XX}.].}.(._ k.|.}.t.'.' L l.l.Y 4 }.j.Z u M.#Xt z Y.%XF.W.| v 5.6.o.Z i.w.3 h.'.s.H }.}.}.}.}.g.` (.}./.s.`.L _ k.u.J ",
"H 6XR ) 0Xf . = ; - = = - & . $ t._ L ~.Y 4 }.j.s j I.D.q * R.&X#X1X5.j <.v.O.i a._ 1 h.|.D [.{.X O - - - @ - = @ . d l.K ` a.H ",
"J 6XT i.=.  V 6XOX6X[.`.`.s.I 5 ; ' L ~.T 4 }.i.s  .$Xm.e X D.%X$X4XN.e o.m.b.d j.` 1 k.|.D |.  O t.9XXX6XQ. Xl.t.D + E U ` a.H ",
"G |.^ e.A 9 7X Xp.u.s.p.s.s.k.I H ` H ~.U 4 /.u.i { M.1.> X O.#X:X5X;Xo.X.5.B.d a._ 3 u.'.D /.O t.0X/.t.a.s.u.s.s.t.N _ L ` i.G ",
"D p./ U 7 K.6Xs.s.s.s.s.s.s.s.s.G ` L ~.U 4 ) t.9 w r t : > k =.8.9.8.#.l c k 9 a._ 4 U l.H _ - 0X/.t.p.s.a.s.s.s.l.! / L ` a.B ",
"G ]./ ` b ~ Q.p.s.s.i.s.s.s.p.i.G ' L ~.I 2 r.~ 7 = : > ; d d d d d i $ $ p k + W W < w.`.D z.= `.p.s.s.s.s.s.s.s.l.T / L w.a.D ",
"G 6XT i.%.C Q.p.s.s.s.s.s.s.s.a.G w.L Q.P , :.7 . . - : o @ @ @ @ @ @ . : z x . ; 9 , u.|.D |.= p.p.s.s.s.s.s.s.s.k.T / I ` j.K ",
"K 6XT i.A 0.`.p.s.s.s.s.s.s.p.a.G ` K Q.K , i X X w p p o               - k k     @ + 0.[.D {.- XXp.s.s.s.s.s.a.s.k.R ! L ` a.G ",
"B Q./ ^ s W Q.s.s.s.s.s.s.s.s.p.H ` K Q.K , = X h o.z h $             $ r m k     o + J l.G e.@ Q.a.p.s.s.s.s.s.s.k.R / L w.a.S ",
"G ~./ / 8 d./.p.s.p.s.s.s.s.j.s.G ` L Q.J , 7 o & : $ X             X h [ w $     @ + P l.G y.- 6Xa.s.s.s.s.s.s.s.l.T / P ` j.S ",
"G  XR t.Z >._.a.s.s.s.s.s.s.k.' H w.K ~.I < E ; . .                   X X X     - 9 , r.'.D `.- '.s.s.s.s.a.k.a.k.k.P / L ` a.G ",
"G _./ ^ i + / k.l.l.k.k.k.l.w.N S ` H ~.Y 2 ~ J # ; @ ; @ @ @ = @ @ - - # O ; + g J < / _.G '   D t.l.k.l.k.k.l.k.Y 1 _ I ` a.G ",
"G [.R T >.+ < U R T T Q R R 6 5 / e.H ~.Y 4 /.s.D p.Y T T R ! T T T R T T U s.S k._ 3 y.`.D t.d + S ! ! T Q R R L 1 S a.K ' i.D ",
"D s.t.P p.>.! / / / / / / / / ` k.L ` Q.Y 4 ' s.! / s.! ! / ! ! / / / ! ! l.R / k.' 4 R l._ I l.J _ ! / ! ! ! ! / _ a.` Y t.a.S ",
"B s.Q.t.I L I P L L L L L P P L L ` l.k.T 4 e.k.k.R L L I L L I I L L L L H ! k.k.' 3 ! l.l._ H Y L I L I L L I L I K Y a.k.a.S ",
"D s.s.k.t.` ` ` ` ` w.` ` ` ` ` ' k.s.l.T 5 e.k.s.s.' ` w.` ` ` ` ` w.` w.` s.s.k.' 4 ! l.s.k.w.` ` ` ` ` ` ` w.` ` _ a.k.a.u.S ",
"D s.p.s.j.s.a.s.k.a.a.s.s.s.s.s.s.a.a.k.Y 4 e.s.a.a.a.s.s.s.s.s.s.a.k.a.s.a.s.a.k._ 4 ! k.p.a.s.s.s.s.s.s.s.s.s.s.s.s.a.a.a.a.S ",
"6 B B B B B B B B B B B B B B B B B B B 0 6 B B B B B B B B B 0 B B B B B B B B S 6 6 6 B B B B B B B 0 B B 0 B B B B B B 0 0 6 "
};
