/* XPM */
static char *result[] = {
/* columns rows colors chars-per-pixel */
"64 64 228 2 ",
"   c #020202",
".  c #0B0C05",
"X  c #060609",
"o  c #0B0B0B",
"O  c #0E1006",
"+  c #1A1D02",
"@  c #14150E",
"#  c #17190A",
"$  c #0D0E12",
"%  c #0F0E1F",
"&  c #140E16",
"*  c #0F121F",
"=  c #141513",
"-  c #171814",
";  c #1B1C14",
":  c #14141B",
">  c #19171C",
",  c #1E2101",
"<  c #1E2117",
"1  c #272906",
"2  c #2E3301",
"3  c #313501",
"4  c #343905",
"5  c #363A09",
"6  c #393D0B",
"7  c #252616",
"8  c #2B2C1D",
"9  c #2E3116",
"0  c #373A16",
"q  c #171626",
"w  c #1C1C25",
"e  c #1C1C2B",
"r  c #231B26",
"t  c #201E2D",
"y  c #1D212E",
"u  c #1F2533",
"i  c #2B2D21",
"p  c #24232E",
"a  c #292729",
"s  c #2E3128",
"d  c #333424",
"f  c #363928",
"g  c #242433",
"h  c #252837",
"j  c #2B2C34",
"k  c #272A39",
"l  c #2C2C3C",
"z  c #322E37",
"x  c #322E3C",
"c  c #2D313C",
"v  c #373837",
"b  c #3B3D33",
"n  c #33323C",
"m  c #433E37",
"M  c #3C410F",
"N  c #3F4311",
"B  c #3F431C",
"V  c #3F4022",
"C  c #3D4036",
"Z  c #3C423B",
"A  c #414614",
"S  c #434816",
"D  c #44471E",
"F  c #464B1B",
"G  c #484E1E",
"H  c #444726",
"J  c #494F20",
"K  c #4D5223",
"L  c #4E5428",
"P  c #515626",
"I  c #565A27",
"U  c #525729",
"Y  c #54592B",
"T  c #585D2D",
"R  c #484937",
"E  c #42443A",
"W  c #504F3B",
"Q  c #4D5237",
"!  c #565C32",
"~  c #5A5E31",
"^  c #575B39",
"/  c #5C622F",
"(  c #5C6134",
")  c #5C653B",
"_  c #5E653B",
"`  c #616639",
"'  c #656A3B",
"]  c #656A3D",
"[  c #2E2D42",
"{  c #312E42",
"}  c #2E3142",
"|  c #323344",
" . c #373745",
".. c #3B3A43",
"X. c #36334A",
"o. c #39354C",
"O. c #363949",
"+. c #3B3A4C",
"@. c #3E3C52",
"#. c #463B48",
"$. c #423D4D",
"%. c #413E55",
"&. c #3F4640",
"*. c #3D4051",
"=. c #434444",
"-. c #474648",
";. c #535642",
":. c #565947",
">. c #5A5C43",
",. c #434354",
"<. c #4B4654",
"1. c #4E4F50",
"2. c #484957",
"3. c #44435A",
"4. c #49465A",
"5. c #4C4B5D",
"6. c #524C57",
"7. c #54525E",
"8. c #585458",
"9. c #605F46",
"0. c #605B5D",
"q. c #5C6249",
"w. c #5D6656",
"e. c #666C43",
"r. c #696E42",
"t. c #656B49",
"y. c #676A4A",
"u. c #6C7246",
"i. c #67714A",
"p. c #6C734B",
"a. c #6E794D",
"s. c #717546",
"d. c #71764B",
"f. c #73784D",
"g. c #636A58",
"h. c #6D7751",
"j. c #6F7A54",
"k. c #767B51",
"l. c #737955",
"z. c #787D53",
"x. c #737E5A",
"c. c #4D4B63",
"v. c #4E4C68",
"b. c #514D62",
"n. c #584F66",
"m. c #4C5367",
"M. c #545264",
"N. c #5C5465",
"B. c #585A65",
"V. c #55546A",
"C. c #5B556B",
"Z. c #5D5A6D",
"A. c #4A5971",
"S. c #5A5875",
"D. c #615966",
"F. c #635E6B",
"G. c #625D72",
"H. c #635D7B",
"J. c #5C626A",
"K. c #67626D",
"L. c #6A7566",
"P. c #666273",
"I. c #696472",
"U. c #6A6877",
"Y. c #6D6A7B",
"T. c #706B71",
"R. c #736C74",
"E. c #746D7E",
"W. c #7D747D",
"Q. c #7B8156",
"!. c #77805C",
"~. c #7D835A",
"^. c #7C8662",
"/. c #7D8866",
"(. c #7E896A",
"). c #81875D",
"_. c #838A64",
"`. c #838E6B",
"'. c #86916E",
"]. c #89916C",
"[. c #808B74",
"{. c #869374",
"}. c #8B9573",
"|. c #8E9976",
" X c #8A9679",
".X c #8E9A7B",
"XX c #919D7D",
"oX c #95A17E",
"OX c #615F82",
"+X c #696886",
"@X c #736B85",
"#X c #7B7583",
"$X c #787589",
"%X c #6A7894",
"&X c #737290",
"*X c #767798",
"=X c #7874A0",
"-X c #817986",
";X c #847C8B",
":X c #857C9A",
">X c #7A8398",
",X c #7782A1",
"<X c #88858B",
"1X c #8E9B8F",
"2X c #8B8590",
"3X c #938997",
"4X c #999399",
"5X c #A5989C",
"6X c #95A283",
"7X c #97A689",
"8X c #98A68A",
"9X c #9CAB8D",
"0X c #9DAC91",
"qX c #A2B297",
"wX c #8789AA",
"eX c #908AA6",
"rX c #8695AA",
"tX c #9293B0",
"yX c #9DA5B4",
"uX c #AABAA2",
"iX c #A5AABC",
"pX c #A7B3BD",
"aX c #AC9FCC",
"sX c #ABB7C4",
"dX c #B2BCC7",
"fX c #BCC7CB",
"gX c #BFC8D5",
"hX c #C7D0D4",
/* pixels */
"N F J J J J N J J N N N F J F S S S S S M M F D G J J F K G F F D S J D A S S S A A M A G J G G F D J F N S S G G N A A S F S M ",
"F 0X7X.XoX7X!.oXXXQ.Q.Q.'.7XQ.Q.k.k.k.Q.I 3 }.9XXXXX X:.#.%.m m m -.[._.f.z.z.f.z.] 3 h.qX6X6X6X|.~.8X`.f.Q.Q.6XXXf.Q.f.f.f.f.F ",
"G 7X/.d.' Y I I Y / ( ( T Y ( / ` k.d.z.I 3 }. Xd.e.#.H.+X+X+XOX@XOX%.m T ~ f.f.k.] 2 h.7Xk.f.~ T T T Y ( ( / T T / / p.f.a.f.J ",
"G XXf.] Y i.a.Q.a.u.I ] a.a.( u.I ( Q.k.Y 4  Xk.u.b 3.%.S.=X:XOX@X&X=XOX#.T U z.k.` 3 j._.f.Y ` a.a.p.k.' I p.a.u.) ] K u.Q.f.J ",
"G oX' Y 9XL.=.Z Z v 7 f Z &.f -.).P ` Q.U 3 '.f.m #.o.X.o.o.o.3.OX:X:Xn.m y.( Y k.' 3 j.].Y i.qX-.E Z Z d 8 C Z Z f g.u.P u.f.G ",
"F 6XI p.L.  O q.w.w.q.^ ;.H 1 , i r.F ~.U 4 /.R 7 | @.o.o.X.X.X.[ OX:X{ o.d d.A k.' 3 l.}.A .Xs   9 g.w.g.Q w.H f , + >.P ' f.G ",
"J 6XY a.=.O !.0X/./.~.~.Q.Q.a.N 0 ' J ~.Y 2 -.x r p o.o.o.$.o.X.v.:X+Xl #.8 e.D k.] 3 l.}.S {.  B 7XoX~./.Q.).Q.Q./ 2 ! P ' f.J ",
"S Q.( ( 8 w.9XQ.d.f.d.a.s.a.Q.r.G ] G ~.U 9 o.V.3.x x { { X.o.%.:XaXS.[ X.7 ^ F k.] 3 ` z.F r.@ 7X|.s.f.a.f.d.f.f.z.I ( K ' f.F ",
"N Q./ ( 8 w.).a.f.f.f.f.f.f.f.s.F ] K ~.I 4 ;.#.S.S.v.3.X.[ [ @.:XtX3.[ { { #.V k.' 3 ( ).S r.- .Xd.f.f.d.f.f.f.f.z.Y ( K ] f.S ",
"J 7XY a.Z D Q.f.f.f.f.f.d.f.d.a.G ] J ).U 3  X;.X.%.S.+X+XS.c.3.+XOX3.%.%.H.=X6.y.' 3 l.}.S }.@ d.f.d.f.f.f.f.f.f.f.T ( L ' k.G ",
"J 7XU h.&.^ ~.f.f.f.f.d.f.f.d.d.F ] G ).Y 4  Xy.C.x { n.@XH.S.@X@XOXOX:X&X*XY.-.t.' 3 l.}.S {.= _.d.f.f.f.f.f.d.f.f.T ( L ' f.J ",
"F './ e.f :.~.f.f.f.f.f.f.f.d.d.G ] G z.U 4 z.g.&X$X2XP.I.6. .c.n.n.n.v.C.#.>.D f.' 3 t._.S !.= `.d.f.d.f.f.f.f.f.z.T ( L ' f.F ",
"N f.) I 7 :.~.f.f.f.d.f.f.f.f.d.F ] K ).U 5 ` y.4.>XsXrX,XA.m.P.o.S.+XZ.3.d u.S k.' 4 Y k.G ` @ `.d.f.f.f.f.d.f.f.k.T ( K ' k.S ",
"J |.I u.b g._.f.f.f.f.f.d.f.f.d.F ] J ).U 4 (.p.v M.rXrX,XA.rX2Xv.=X,XtXP.V ' F k.] 3 p.].S /.> 7Xs.f.f.f.f.f.f.f.k.T ( K ' f.F ",
"F ~.( / f 7 d.f.f.f.f.f.f.f.f.J F ] J ~.Y 5 a.a.Z m.J.rXyX,X,X+X=XiXrX=XJ.H e.S k.' 3 _ ).F d.. T f.f.f.f.f.f.f.k.r.5 ` L ' k.F ",
"G XX/ / f , A u.d.u.s.a.s.d.G M G e.J ~.U 4 '.l.V B.M.1XfX,X%X%XwXgXsX%XJ.J e.F k.' 3 a.].S e.O 5 P f.s.s.d.p.d.] M 6 ] K ' f.F ",
"S Q.) K Q.d 0 G F G F G F F F G k.( P ~.U 4 u.f.H 8 j U.pXdXpXpXsXyX>X+XB.e.u.J k.' 5 ~ z.P ' i.# J F F G F G G F A ~ k.J r.f.S ",
"S f.Q.( I ' ' ' ] ] ] ] ] ] ] ' ( P z.z.Y 4 r.f.^ @ e o.T.hXfXfXgXpXyX>X-._ K d.k.] 3 ~ z.k.J ' r.] ' ' ] ] ] ] ] ] ] P ] k.k.S ",
"N f.f.Q.( F K K G K J G K G K G I z.f.z.Y 4 r.f.>.n p o.e <XgXiXsXyXiX+Xl 0 d.k.f.] 4 ~ z.f.f.K G K K K K G K K J G G ] z.f.d.S ",
"F Q.Q.f.~.~.~.~.z.).).).).~.~.~.~.z.z.~.Y 5 u.l.-.%.q | [ 5.fXsXfXgXiXc.g E z.Q.).r.3 ~ ).z.z.~.).~.~.~.~.~.Q.~.).~.).z.z.z.z.S ",
"N I U U I I L U Y Y P Y U U I I T U I I F 6 m i <.D.x g o.p 2.$XJ.>Xm.} y 7 Y U U K 6 G Y Y Y Y U U Y Y I U U Y Y Y Y Y U U I A ",
"M 4 4 4 4 4 4 4 4 4 4 5 4 3 4 4 4 4 4 4 9 d ..x K.3XZ.j w > w o.*.y y } $ j 0 6 4 6 A 6 3 3 3 4 4 4 3 4 5 4 4 4 3 5 4 5 5 5 5 6 ",
"F {.{.{.{.|.d.'.'.r.u.' ^..Xa.u.u.r.u.q.v 5.| 8.3XE.c.@.r & & 7.3Xn.= y $.;XR.^ u.( 3 e. X{.{. X`.d..X!.' u.r.{.`.e.r.r.r.r.r.F ",
"F 9X|.k.k.f.p.f.f.d.d.p.f.f.d.p.f.f.f.=.5.@X$.#.D.n.I.R.U.o.% r #.#.: M.3XR.-.z q.] 3 d.qX_.z.k.d.d.k.d.d.d.d.f.f.s.s.k.k.f.f.G ",
"J .Xd.f.! J L L L L F J L P G L F p.f.&.*.3.V.@.q l $.T.-XP.,.g q t c b.,.[ | *.&.^ 3 j.`.f.r.J L U L L G F P U K J G Y f.f.f.G ",
"J 6Xu.U (..X/./.(.!.( a.`.`.r./.f.K u.5.P.+.5.Z.} k h h ,.N.Z.,.y t O.h w l C.E.6.^ 3 j.].' Y 9X/./.(.`.r.` ^.`.^.u.].~ ! f.f.G ",
"F 6XY e.6X) Y ( J ) / ! P F K G ] e.G x +.4.P.U.7.,. .O.[ e +.C.+.e h h l h I.K.;.` 2 j.}.A .Xx.T ( U U q.P ^ G J J U k.G ' f.J ",
"K 7XY h.) !.uX|.Q.|.`.^._.z.z.f.A ] J j h g l l %.G.T.F.[ l %.| ,.e q k | p g z >.] 2 x.}.S {.S qX0X)._.XXQ.].z.z.z.Y ~ K ] k.J ",
"S _.( ( ~ !.}.s.f.s.d.d.d.f.f.a.G ] K ..| } +.} e e g g q c.;XI.+.e e O.5.+.y 7.:.' 3 ] ).F l.K 6Xx.u.d.u.f.u.f.f.k.Y ~ K ] k.S ",
"S f.( I K /.~.d.f.f.f.d.d.f.f.s.F ] J <.*.B.;XF.h l 5.U.c.c.#X4X4.X.l @.$XK.| U.D.` 4 T z.F ] J 6Xu.f.f.f.f.k.d.f.z.T ( P ] k.A ",
"F .XT t.q.) Q.d.d.f.f.a.f.f.f.d.G ] J 2.M.B.K.+.e h M.4XE.@.@X#XC.G.N.o.;XR.<.-XT.^ 2 a.].S `.J z.d.f.f.f.f.f.f.f.k.! ( K ] k.F ",
"J 6XT i.i.( Q.s.f.f.f.f.f.f.d.d.F ] K ..b.K.F.c % h c.;XP.,.$XK.K.3XI...#XM.+.Z.&X1.2 x.}.A {.F k.f.f.f.d.f.f.f.k.k.Y ~ K ' k.G ",
"F XXY t.` l.).d.f.f.f.f.f.f.f.s.D ] J ;.F.#X#Xb.q w l b.2.{ c.<.@.P.+.l B.+.} 2.N.<.8 i.{.S `.J {.d.f.f.f.f.f.d.f.z.! ~ P ] f.G ",
"A f.` U P e.k.f.f.f.d.f.f.f.f.s.F e.J g.8.W.eXeX3.r = & : q : w [ } y l | q e } $.5.=.L k.G ] F ~.f.f.d.f.d.f.f.f.k.Y ~ P ] f.S ",
"F `.~ _ ~ (._.f.f.d.f.f.f.f.f.d.F ] J z.b n 4.Y.Y.7.a X X     X : o X $ o $ y l $.4.,.m ~.S z.J 7Xs.f.f.f.f.d.f.f.z.T ~ P ] f.F ",
"F `.~ ` _ i.z.f.f.f.d.f.f.f.d.s.G ] J ~.L 7 g ,.5.o.3.$.p > %.g   q p $ * k R 0 n +.$.o.8.S ^.G _.d.f.f.f.f.f.f.d.z.T ~ P ] f.F ",
"F ].( Y P ( z.k.f.z.z.z.z.z.z.k.S ] J ).U 1 1.6. .X.V.v.t 8.aX#.  4.n.h O.+.^ F R p { S.n.F ' A k.k.z.z.z.z.z.z.z.z.Y ~ P ' f.F ",
"F _.~ P f.P F G J D G F F G F G r.] F ).Y 4 f.;.j $.v.[ #.@XiXm X c.Z.{ 2.7.q.S l.b g c.<.F u.] F G G G F F F G G F Y z.G ' f.F ",
"S f.f.Y ` s.] r.r.r.] r.e.] r.r.u.G d.z.Y 4 ' k.W a l % G.;XE.n X <.K.$.b.F.V u.k.` 1 m 9.s.G d.e.e.] ] ] r.r.r.e.e.f.Y ~ f.f.S ",
"S f.f.z.Y S F S F S F F F F F S G d.k.z.I 5 r.f.y.a r p ,.5.4.n   4.R.<.b.G.:.i.f.] 4 ! z.f.u.F F S F F F S F S S F S ~ k.f.f.S ",
"S z.k.k.k.k.k.k.f.k.z.f.z.k.k.k.z.z.f.~.I 5 u.z.t.c c *.,.,.5.l X M.W.<.N.P.8.t.z.' 4 ( ~.k.k.k.k.k.k.k.k.k.k.k.k.k.k.k.f.f.k.S ",
"A ] ` ' ] ' ] ' ' ] ] ] ] ] ] ] ' ' ] r.K 5 ( ] Q j } 5.5.5.c. .X M.E.+.I.V.8.^ ] T 4 U ' ' ' ' ] ] ] ] ' ] ' ' ' ] ] ] ] ] ' S ",
"M 3 3 3 3 2 3 3 3 4 4 4 3 3 4 4 3 4 4 3 5 A 3 2 7 u O.5.2.*.5.5.w N.F.j R.3.B.f 4 5 A 4 2 2 3 3 3 3 3 3 3 4 4 3 3 4 4 4 3 4 3 6 ",
"S h.h.j.j.l.( h.h.T ~ T e.x.~ ~ ~ ~ ~ ( G 5 y.p.Z l ,.7.+.+.3.Z.b.E.1.g #X,.<.E ~ U 4 ~ j.j.l.l.p.` x.e.Y ~ ~ l.p.T ~ ~ ~ ~ ~ F ",
"F qX7X`.{.].).].].z.).z._.}._.z.~.z.z.~.Y 4 XX8X=.l 2.5.} +.C.Z.Y.$X-.g 2Xb.| R k.e.2 h.uX}.`.].].).}._.z.~.).].].z.~.z.z.z.z.G ",
"J oXz.f.T A S S A F F F S A D S K k.f.z.Y 3  Xx.Z O.5.c.c o.E.F.$X;X<.h <XM.h Z d.] 2 j.}.d.d.S S S S S F G S S S F A ` z.f.f.G ",
"J XXs.T t..X{.{.{./.` z. X}.p.`.] K f.z.U 4 {.l.b +.M.5.c O.W.G.$XY.l e @XC.u C h.] 3 j.].d.K {.{.{.{.{.h.] `.{._.h._.P ` k.f.G ",
"F 6XT q.qXd . = - - = = = @ . @ u.` K ~.Y 4 {.u.s +.b.*.u 5.<X@X$XR.* q F.K.h i f.] 2 l.}.S ].[.X O > - = @ = = @ . f z.J ] f.G ",
"J 6XT a.-.  B 6XoXoX]._.`.f.I 5 # ] P Q.U 3  Xp.f n.M.+.e B.4X$X$XF.X e M.#XX.i d.] 3 l.].S  X  . p.9XXX6XQ.|.z.u.S + R P ' f.J ",
"F |.T u.Z 8 7X.Xs.a.d.d.s.f.f.L G ] K ).I 4 _.p.z M.5.+.+.-X5X<X@X@.X > <.N.} i h.] 3 p.].S ^.O u.qX~.u.p.d.d.f.f.u.M ` K ' f.F ",
"A d.( I 7 L.oXd.f.f.f.f.f.f.f.f.F ] K ~.Y 5 ` e.9 a l k $.8.0.8.*.a > > r e w 9 d.` 4 I z.G ` - qX^.u.f.f.f.f.f.f.z.~ ~ P ' f.F ",
"F ].( ' f ^ Q.d.f.f.a.d.f.f.f.d.G ] J ~.P 3 q.Q 7 j p $ $ 8 d d f f d ; > : = 1 ^ Q 2 e._.S x.= _.s.f.f.f.d.f.f.f.z.T ( K ' f.F ",
"G 7XT a.Z V Q.d.f.f.f.f.f.f.f.d.F e.K ~.K 1 E ; . z c = X - @ @ @ @ @ o $ : X . 7 0 1 j.}.S {.@ s.d.f.d.f.f.d.f.f.k.U ( K ' k.J ",
"G 6XT a.Z q.).d.f.d.f.f.f.d.f.s.G ' G z.H + ;     j j > X             o p g w X X ; 1 y.].S  X= |.d.f.f.f.f.f.f.f.k.T ( P ' f.G ",
"S Q.( / s Q ~.d.f.f.d.f.f.f.f.a.F ' J Q.D + .     j z r &             o j x o.g   @ + U z.G r.@ Q.d.f.f.f.d.f.f.f.k.T ( L ' f.F ",
"S ~.( ( 8 w._.a.f.d.f.f.f.d.f.d.F ] K Q.H + @     & w l p X             X o : & X - 1 ! ~.F i.= oXd.f.f.f.f.f.f.f.k.T ( L ' f.S ",
"F |.I u.C ;.).f.f.f.f.f.f.f.k.r.F ] J z.K 1 f - .     X X                     . 7 0 1 t.].S (.= `.f.f.f.d.f.f.d.f.k.L ( K ] f.G ",
"F /.( T i + ( k.z.z.k.k.k.z.r.6 S ] K ).L 2 Q f # ; O ; # @ @ = @ @ - = ; O < + b L 1 ` ).F e.  S u.z.k.z.z.k.z.k.Y 3 ( P ' f.F ",
"F }.T T >.# 2 U T Y Y Y T T 5 5 ~ r.F ).U 4 _.d.A f.U Y Y ~ Y ~ Y Y Y Y Y U d.A k.' 3 i.`.A u.0 + A ~ ! Y T Y T L 3 S f.G ' f.G ",
"S f.p.P s.^ ~ ( ( ( ( ( ( ( ` ' k.P ] z.Y 5 ] f.T ( k.~ ( ~ ~ ( ( ( ( ( ~ z.T ( k.' 4 T z.` P Q.H ` ~ ( ~ ( ( ( ( ( d.] P d.f.S ",
"S f.Q.u.K K P K K K L K K K L K K ] z.k.Y 4 r.k.f.T K K K K K K P K K K P G ~ k.k.] 4 ~ z.z.` J I K K K K L K P K L K U d.f.f.S ",
"S f.f.f.u.] ] ] ' ] ] ] ] ] ] ] ] x.f.z.Y 5 r.k.f.f.] ] ] ] e.] ] ] ] ] ] ] f.f.f.] 3 ( z.f.k.] ] ] ] ] ] ] ] ] ] ] ` p.k.f.f.S ",
"A f.f.d.d.k.f.f.f.f.f.f.f.f.f.f.d.d.d.k.P 4 r.d.d.d.f.f.d.k.k.d.f.f.d.k.f.d.f.d.f.] 4 ~ f.d.d.k.f.d.f.f.d.f.f.d.f.f.k.d.d.d.d.S ",
"M A A A A A N A A A A N A N A A A A N A N N A A A N A A A A N N A A N A A A A A A N M N A A N A A A A A A A A A A A A N A N N N "
};
