/* XPM */
static char *result[] = {
/* columns rows colors chars-per-pixel */
"64 64 152 2 ",
"   c #020201",
".  c #0B0C03",
"X  c #0E0F08",
"o  c #0E1001",
"O  c #0F1009",
"+  c #131405",
"@  c #161901",
"#  c #1A1C01",
"$  c #12130E",
"%  c #141612",
"&  c #171916",
"*  c #1C1D14",
"=  c #1E2100",
"-  c #1D201B",
";  c #2B2F00",
":  c #242708",
">  c #2F3300",
",  c #313501",
"<  c #343905",
"1  c #363B08",
"2  c #393E0D",
"3  c #232315",
"4  c #272817",
"5  c #282C10",
"6  c #24271C",
"7  c #2B2C1E",
"8  c #2E3212",
"9  c #2E3119",
"0  c #363A14",
"q  c #3A3F12",
"w  c #2B2E23",
"e  c #2E3123",
"r  c #2F332D",
"t  c #343622",
"y  c #3C3E22",
"u  c #34362B",
"i  c #34382E",
"p  c #363A33",
"a  c #3A3E36",
"s  c #3A3F38",
"d  c #3D420F",
"f  c #3D4213",
"g  c #3E441D",
"h  c #3F4022",
"j  c #3C423B",
"k  c #414615",
"l  c #444916",
"z  c #484E15",
"x  c #464B1B",
"c  c #494E1E",
"v  c #4B511E",
"b  c #464D20",
"n  c #494F20",
"m  c #44462A",
"M  c #47492E",
"N  c #4B4D2C",
"B  c #4D5223",
"V  c #4E5528",
"C  c #515626",
"Z  c #535826",
"A  c #585C27",
"S  c #515728",
"D  c #54592A",
"F  c #595D2D",
"G  c #464831",
"H  c #4B4F36",
"J  c #4C5034",
"K  c #4F543C",
"L  c #505336",
"P  c #565D32",
"I  c #5A5F31",
"U  c #55593E",
"Y  c #5C622F",
"T  c #5C6134",
"R  c #5D653A",
"E  c #5F683E",
"W  c #616637",
"Q  c #616837",
"!  c #616639",
"~  c #656A3D",
"^  c #686C3E",
"/  c #3F4640",
"(  c #404741",
")  c #464C45",
"_  c #494F46",
"`  c #515741",
"'  c #545A43",
"]  c #595D41",
"[  c #575E4A",
"{  c #5E6840",
"}  c #5B624B",
"|  c #5C6454",
" . c #5E6858",
".. c #636741",
"X. c #656C43",
"o. c #696E42",
"O. c #656F48",
"+. c #6A6F49",
"@. c #6C7246",
"#. c #677149",
"$. c #6C734B",
"%. c #6E794D",
"&. c #707546",
"*. c #737846",
"=. c #71764B",
"-. c #73784D",
";. c #646B54",
":. c #636D5C",
">. c #6D7751",
",. c #6F7A54",
"<. c #68715D",
"1. c #767C51",
"2. c #787D53",
"3. c #737E5A",
"4. c #657062",
"5. c #6B7564",
"6. c #6E7969",
"7. c #737D6C",
"8. c #7B8156",
"9. c #76815C",
"0. c #7D835A",
"q. c #7C8662",
"w. c #7D8866",
"e. c #7F8B6A",
"r. c #808555",
"t. c #80865D",
"y. c #81885D",
"u. c #838A64",
"i. c #838E6B",
"p. c #86906D",
"a. c #89916C",
"s. c #808B74",
"d. c #869374",
"f. c #8B9574",
"g. c #8E9975",
"h. c #8A9778",
"j. c #8D9A7B",
"k. c #929D75",
"l. c #919D7D",
"z. c #95A17E",
"x. c #929E80",
"c. c #95A284",
"v. c #9AA681",
"b. c #9DAB87",
"n. c #97A689",
"m. c #98A688",
"M. c #9BAA8D",
"N. c #9DAC91",
"B. c #A1B095",
"V. c #A2B298",
"C. c #A7B89F",
"Z. c #AABAA2",
/* pixels */
"f x x b x b g x x k k k l x l f k k k k k 2 x x b x b k x x k k g k b x f k k k k f d k x x x b x k b k k k k x x f k k k l f f ",
"x M.n.j.c.c.0.l.z.1.8.-.a.M.0.1.1.1.1.2.D < f.M.x.x.c.i.p.m.0.1.-.u.M.i.-.2.1.1.1.~ , >.V.x.x.c.h.u.m.i.1.2.2.c.j.1.8.-.-.-.-.x ",
"x m.w.=.~ S Y D D T T T Y D T T ! 1.-.2.D < f.g.=.+.D P I D I T T F D I T I -.-.1.~ , >.n.1.-.F F F F F T T I D F T F $.1.=.$.x ",
"x l.=.^ D $.%.%.%.#.A ~ %.%.T @.C ! 2.1.S , d.1.=.D X.+.#.#.$.D I $.$.R ..P S 1.1.~ > ,.i.-.F ! $.%.%.>.! F $.,.@.Q ~ B $.1.%.x ",
"b c.~ D M.5.) j j p 4 i j / i ) r.Z W 2.D , h.1.D i.x.R X.O.X.V F O.$.T R 0.T D 1.~ > ,.a.F @.B._ ( s j t 6 a G s i ;.&.C @.=.x ",
"x c.Z $.6.  o }  . .[ U ` m : # w o.x 0.D , f.-.B j.R 3.9.E ,.q.~ ,.F T T B =.l 1.~ , ,.f.f j.r   8 :.| :.H | M y : @ ] C ! =.x ",
"x c.F -./ o 9.N.u.y.0.0.0.8.&.k 0 ~ n 0.D , f.-.V w.P Z.f.1.0.0.1.9.-.1.8.x ^ x 1.~ > 1.f.k d.  k c.c.t.u.2.y.2.2.T ; P C ~ >.n ",
"k 3.T Y w } N.8.=.-.=.-.*.-.-.@.c o.n 0.S 1 +.=.x ~ R j.$.=.=.-.-.-.-.-.1.x ^ x 2.~ , T 0.x o.$ c.j.-.=.=.-.-.-.-.1.D T B ~ =.k ",
"l 8.T Y 7  .y.*.-.-.-.-.-.-.-.$.x ~ n 0.D < @.=.x ^ U f.&.=.-.-.-.-.-.-.2.x o.x 2.~ < T t.x @.% l.=.-.-.-.-.-.=.-.1.F I C ~ =.k ",
"x c.F %.j h 8.-.-.-.-.-.-.=.-.&.x o.B 0.S < f.1.C i.x -.-.-.-.-.-.-.-.-.2.x o.l 1.~ > 1.a.k f.$ &.-.-.-.-.-.-.-.-.1.P I C ~ =.b ",
"b c.S %.( K 0.-.-.-.-.-.-.-.-.&.x ~ n 0.D , h.1.S i.S u.=.-.-.-.-.=.-.-.2.x ^ x 1.~ > 3.f.l d.% u.=.-.-.-.-.-.-.-.1.F I B ~ =.b ",
"x p.T ^ i ' 0.-.-.-.-.-.-.-.-.=.x o.n 0.D < 3.-.n 1.D u.=.-.-.-.-.-.-.-.2.x o.l 1.~ > X.u.x 9.% u.=.-.=.-.-.-.-.-.1.F I C ..=.x ",
"f -.T A 4 ' t.-.-.-.-.-.-.-.-.$.x o.n 0.D < ~ %.x T P u.=.-.-.-.-.-.-.-.1.x o.x 1.~ < D 2.c ! $ i.-.-.-.-.-.-.-.-.1.F I B ~ =.k ",
"x j.Y @.i 4.u.-.-.-.-.-.-.-.-.-.x ~ n r.D , i.=.B 9.R j.&.-.-.-.-.-.-.-.2.x o.l -.~ > $.a.l w.& m.&.-.-.=.-.-.-.-.1.P I B X.=.x ",
"l 0.T T u 5 &.-.-.-.-.=.-.-.-.v x o.n 0.S < %.=.n @.V 0.-.=.-.-.-.-.=.-.2.c ^ x 8.~ < R 0.x =.X D 1.-.-.-.-.-.-.1.o.2 ! C ~ =.k ",
"x j.Y Y u = k @.=.$.=.&.=.-.v 1 x ~ n 0.D < e.1.x ~ B =.=.&.=.-.&.=.=.$.-.x @.l -.~ , %.a.l o.O < C -.&.&.=.=.=.o.2 1 ~ n ..=.b ",
"f 8.! V 8.t 0 x x x x x x x x x 1.T S 0.S 1 +.=.v -.~ l x x x x x x x x k o.=.x 1.~ < I 2.C ~ +.* c x x x x x x x k T 2.B ~ =.k ",
"l -.2.T Z ^ ^ ~ ~ o.o.~ ~ o.~ ^ T S 2.2.D < o.1.&.v ~ ~ ~ X.~ X.~ o.~ o.o.~ n -.1...< I 2.1.n ! ^ ~ ~ ^ ~ o.o.~ o.~ ~ C ~ 1.=.k ",
"f 1.-.8.T c B n n n n B n n n n S 2.-.2.D < o.1.-.$.x B B n B n n n n n n x -.-.1.~ < I 2.-.1.C C n n n B B n n n n x ~ 2.-.=.k ",
"l 8.1.1.8.0.0.0.0.0.r.0.r.t.0.0.0.2.2.0.D < &.8.2.8.0.0.0.0.8.r.0.r.0.0.t.r.2.1.2.^ < I r.2.2.2.r.2.t.r.3.r.r.0.0.0.0.8.2.2.-.k ",
"d D D S D D S D D Z D D D D S D D D D D x 2 C C S S S S S Z S Z D S D S Z A D D F C 2 c P S D D D S D D D S D D S D S D S S S f ",
"2 , < < < , < < < 1 < < < < < < < < < < 2 k < , < < < < 1 < 1 1 1 1 , < 1 1 < < < 1 k 1 , , , < < < , 1 1 < 1 , < 1 1 1 1 1 , q ",
"x d.d.d.d.h.=.p.p.o.o.^ 9.j.=.o.o.o.o.=.C < u.f.d.d.h.2.0.h.-.^ o.-.l.3.^ +.o.o.+.T , O.j.f.f.h.i.>.x.3.^ o.+.f.i.o.o.o.+.o.o.x ",
"x N.g.2.1.-.$.-.-.=.=.=.-.-.=.=.=.1.1.2.D < h.x.2.8.-.=.%.1.$.=.=.=.1.-.&.&.1.1.2.~ , %.B.q.1.-.=.=.-.=.=.=.&.-.=.=.=.-.-.-.=.x ",
"x l.-.=.D B V V V B x n V V c B n =.1.1.D , f.3.-.T n S C S S v c D S B C x ! -.-.~ , ,.i.-.o.n V V V V x x C C B n x F -.-.=.b ",
"b x.@.S e.j.q.e.e.9.T ,.i.i.#.w.-.n @.2.D < d.1.W +.N.7.5.5.5.J ] 5.6...:.u.C ~ 1.~ , ,.i.^ F M.q.w.e.i.@.W q.s.7.=.a.I F =.=.b ",
"x c.D O.c.R P P n R P D D x B c ~ o.x t.D , h.-.b N.p   * u r r 6 w * + . 9 -.k 1.~ , ,.f.d l.3.P P S S ..S P x z x Z 1.x ..=.b ",
"b n.D $.E 3.C.g.8.k.i.w.u.1.2.-.k ~ n 0.S < h.-.S 7.  g b.b.k.k.t.g.r.&.z @ ~ x 1.~ > 3.f.l f.k V.N.u.u.x.2.f.2.2.0.F F B ~ =.b ",
"x u.I R F 9.f.=.=.$.=.=.&.-.=.=.x o.B 8.D < 1.=.B } - b.z.-.@.&.-.-.-.1.+.z o.x 1.~ , ~ u.x 1.n x.3.-.-.+.=.=.1.-.2.P I B ~ =.l ",
"k =.R S B q.0.=.-.-.-.-.-.-.=.=.x ~ B 0.D < ..=.x N i b.*.$.-.-.-.-.-.-.2.c o.x 1.! < F 1.n ! n x.$.-.-.-.-.=.=.-.2.F I B o.=.k ",
"x l.F O.X.R 2.1.-.-.-.-.-.-.-.&.x ~ n 0.D < i.-.C <.- r.=.-.-.-.-.-.-.-.2.x ^ x 1.~ , >.p.k i.x 1.-.-.-.-.-.-.=.-.2.F I B ~ =.b ",
"x c.D $.#.T 1.=.-.-.-.-.-.-.-.=.x o.n 0.D , f.-.Z 6.- r.-.-.-.-.-.-.-.-.2.x o.l 1.~ , 1.f.l f.x 1.-.-.-.-.-.-.-.-.1.F I B ..=.b ",
"x l.F O.{ 1.0.=.-.-.-.-.-.-.-.=.x ..n 0.S < i.-.C ;.w k.&.-.-.-.-.=.-.-.1.x ^ x 1.~ , %.p.k i.n f.=.-.-.-.-.-.=.-.2.F I N ~ =.x ",
"k -.T S C X.2.-.-.-.-.-.-.-.=.=.x o.n r.D 1 ~ $.x H 6 t.-.-.-.-.-.-.-.-.1.x o.z 1.~ < F 2.x ~ x 2.-.-.-.-.-.-.-.=.2.F I C ~ =.k ",
"l i.F ! I w.u.=.-.-.=.-.-.-.-.&.x o.n r.S < 0.%.C } p v.&.-.-.-.-.-.-.-.2.x o.l 1.~ , X.u.z 3.B m.=.-.-.-.-.-.-.-.1.F I n ~ =.x ",
"l i.P E E O.8.-.-.=.-.-.-.-.-.=.x ~ n 0.D < 9.-.B ;.* 8.1.-.-.-.-.-.-.1.o.k o.x 1.~ , X.u.x 3.B u.=.-.-.-.=.-.=.-.2.F I S ..=.x ",
"x f.P D C T 2.2.2.2.2.2.2.2.2.-.l ~ n r.D < q.-.v L   z +.2.2.2.2.2.2.~ k < +.z 1.~ , o.u.z ^ k -.2.2.2.2.2.2.2.2.3.P F n ^ =.x ",
"l u.I S -.C x x x x x x x x x c +.~ n r.D < 1.$.l -.t # z c c x x x n k , I -.k 1.~ , ~ u.l +.~ x x z x x x x x x l S 2.n ~ =.k ",
"k -.-.F W =.^ o.o.o.o.^ o.o.o.o.&.n =.2.D < @.-.~ C -...o.o.^ o.o.o.o.o.o.1.n o.1.! < F 1.=.c =.o.o.o.o.o.o.o.o.o.o.-.F I -.=.k ",
"k 1.-.-.D k x x l l x x l x x l n -.1.1.Z < @.-.-.~ k x k x x x x x l x x k o.1.1.~ < I 1.-.=.l x x x l x x l x x x k I 2.-.>.k ",
"k 1.1.1.1.1.1.2.1.1.1.2.1.1.1.2.1.-.1.2.D < @.1.1.1.1.1.1.1.1.1.1.2.1.2.1.1.1.1.2.^ , T 2.1.1.1.1.1.1.1.2.1.1.1.1.2.1.1.-.1.-.k ",
"k o.~ ! ! ~ ~ ~ ~ ~ ~ ! ~ ~ ~ ~ ~ ~ ~ o.C 1 T ^ ~ ! ! ^ ! ~ ~ ! ! ~ ~ ~ ~ ~ ! ~ ^ F < D o.~ ~ ~ ! ~ ~ ~ ~ ~ ~ ~ ~ ~ ~ ~ ~ ~ ! k ",
"2 ; , , , > , , , < < < , , , , < < < < 2 q , , , , , , , , , < < , > , < < < < , 1 k < ; , , , , , , , , < < , > < < < < , , 2 ",
"k >.>.,.,.,.W >.>.F I F o.3.R I I I P I c 2 O.=.,.,.3.~ o.3.R I P ! 3.X.F I I I T S < I ,.,.,.1.$.! 3.o.F F I >.+.F I I I P F k ",
"n V.m.i.p.f.r.a.a.0.0.2.u.g.t.2.8.2.1.0.F , l.B.i.p.g.u.u.g.0.0.2.t.g.u.2.r.1.1.2.o.> ,.Z.g.i.a.i.t.g.u.2.2.t.f.f.2.r.2.1.2.1.x ",
"x x.-.-.F f x l k x x x z k x x B 1.-.2.D , s.u.-.~ d k k k l x x x k x x x =.-.1.~ , ,.f.=.-.k z l k l x x x k k x l ! 2.-.=.b ",
"b l.=.F +.j.d.d.s.q.! 1.f.d.$.i.~ B 2.2.D < f.2.o.P j.d.f.f.f.o.=.f.h.1.q.1.x =.1.~ , ,.i.-.B f.f.s.d.f.=...s.d.u.-.u.B ! -.=.x ",
"b x.F ! B.r . % & & % % & % . $ +.! B 0.S < d.=.n N.3.k B x n x x n x x k ..=.x 1.~ , ,.a.l p.s.  X & & & $ & $ $ . u 2.n ..=.b ",
"b c.F %.)   g c.z.c.a.u.u.-.Z 1 * ^ B r.D , h.-.S i.F V.m.2.h.l.8.f.=.-.2.x o.x 1.X.> 1.f.k g.  + $.N.x.c.8.g.2.@.l # M C ~ =.x ",
"x f.F o.j 9 c.j.&.$.=.=.=.-.1.V x ~ B 8.D < u.-.n 3.U N.2.&.-.-.-.=.-.-.2.x ^ l 1.! , +.a.l q.O @.N.q.@.=.=.=.=.1.#.k ! B ~ >.x ",
"k -.R A 3 5.z.=.-.-.-.-.-.-.-.-.x o.B 0.D 1 ~ =.x I E g.+.-.-.-.-.-.-.-.2.x o.x 1.~ , F 2.z ~ % V.0.&.-.-.-.-.-.-.2.F I B ~ -.k ",
"l a.I ~ i U 8.-.-.-.-.-.-.-.-.=.x ^ x 0.C < 3.-.n ,.S u.=.-.-.-.-.-.-.-.2.x ^ x 1.~ , +.u.x 3.% u.=.-.-.-.=.-.-.-.1.F T B ~ =.x ",
"x c.D -./ h 1.-.-.=.-.-.-.-.-.&.x ^ n 0.D , h.>.S s.k -.-.-.-.=.-.-.-.-.2.x o.l 1.^ , 1.f.k f.$ @.-.=.-.-.-.-.-.-.1.P I C ~ =.n ",
"b c.F -.j } y.-.-.-.-.-.-.-.-.&.x ~ B 0.D < h.-.C i.P f.=.-.-.-.-.-.-.-.2.x o.x 1.! > ,.f.l s.& g.=.-.-.-.-.-.-.-.1.F I B ~ =.b ",
"k 3.W F e J 8.-.-.-.-.-.-.-.-.=.x o.n 0.D < $.=.x o.B 0.-.-.-.-.-.-.=.-.2.x ^ x 1.~ , R 0.x o.$ 0.=.-.-.-.-.-.-.-.1.F I B ~ =.k ",
"k 0.I W 7 :.q.-.-.-.-.-.-.-.-.=.x ~ n 0.D < $.$.x ^ R g.&.-.-.-.-.-.-.-.1.x o.x 1.~ < T r.x +.% x.=.-.-.-.-.=.-.-.1.P I C ^ >.k ",
"x g.F $.a ` t.-.-.-.-.=.-.1.1.~ x o.n 0.D < i.=.n q.I a.=.-.-.-.-.-.-.-.2.x o.x 1.~ , $.i.k i.% i.1.-.-.-.-.-.-.1.-.B I S ~ =.x ",
"x y.T F 7 @ W 1.2.-.2.2.2.2.X.2 k ~ n r.S < 1.=.x ! n 2.1.1.1.1.1.1.2.2.0.x o.k 1.~ , ~ t.x ^   k @.2.1.1.1.1.1.1.D , ! n o.=.l ",
"x f.F D ] @ ; D F D F D D F 1 1 I o.x t.D < u.-.l -.D F F F P F F F D D D D =.k 1.~ , +.i.k &.t # k I P F F P F C , k =.n ~ =.b ",
"k =.@.C -.] P T T T T I T T ! ~ 1.C ^ 2.D < ..-.P T 1.P I I I I I I T I I 2.F I -.~ < F 2.~ C 2.M W I I I I I I I ! =.~ S =.+.k ",
"k -.2.@.C C C C B C B V V B B C n ~ 1.1.Z 1 o.1.1.F c C C B C B C B C B B n I 1.1.! < I 2.2.! c Z B C B C n C C C C n S =.2.=.k ",
"k -.-.1.$.! ! ~ ~ ~ ~ ~ ~ ~ ~ ~ ^ 1.-.1.Z 1 +.-.-.-.~ ~ ~ ~ ~ ~ ~ ~ ~ X.~ ~ -.-.1.~ < I 2.-.1.^ ~ ~ ~ ~ ~ ^ ~ ~ ~ ~ ! =.-.-.+.k ",
"k =.=.=.=.1.=.-.-.-.=.-.-.=.-.-.-.=.-.1.D < o.-.=.-.-.-.-.-.-.-.-.=.=.-.-.-.-.=.-.! < F 1.=.=.-.-.-.-.-.-.-.-.-.-.=.-.=.=.-.=.k ",
"q f f f f f f f f f f f f f f f k q q f q 2 q k q f q q f f q f f q f f f f f f k q 2 2 k q f q f f f q q q q k q q k q q q q 0 "
};
