/* XPM */
static char *result[] = {
/* columns rows colors chars-per-pixel */
"64 64 206 2 ",
"   c #010101",
".  c #090B05",
"X  c #0B0E09",
"o  c #0F110C",
"O  c #171702",
"+  c #12140E",
"@  c #15180F",
"#  c #1A1D0E",
"$  c #131611",
"%  c #161913",
"&  c #1A1D15",
"*  c #1B1E18",
"=  c #1E220E",
"-  c #1D2116",
";  c #1E221A",
":  c #20230F",
">  c #212516",
",  c #252A16",
"<  c #292E13",
"1  c #21261C",
"2  c #24291D",
"3  c #292D1B",
"4  c #2D3016",
"5  c #2D321B",
"6  c #323717",
"7  c #393E14",
"8  c #31361C",
"9  c #363C1B",
"0  c #393E1A",
"q  c #262B21",
"w  c #292E21",
"e  c #2C2F28",
"r  c #2C3225",
"t  c #2E3429",
"y  c #313724",
"u  c #343A24",
"i  c #393F26",
"p  c #30372B",
"a  c #33392D",
"s  c #393E2C",
"d  c #343730",
"f  c #343930",
"g  c #3E4315",
"h  c #3C421A",
"j  c #3C4325",
"k  c #3C452D",
"l  c #3C4431",
"z  c #3F4839",
"x  c #4D510F",
"c  c #585B05",
"v  c #424614",
"b  c #444914",
"n  c #414619",
"m  c #454B1A",
"M  c #494E1A",
"N  c #4C5117",
"B  c #4D531B",
"V  c #535816",
"C  c #585D14",
"Z  c #555B1A",
"A  c #595F1B",
"S  c #5E6104",
"D  c #5D6218",
"F  c #676A06",
"G  c #6D7108",
"H  c #74790A",
"J  c #616616",
"K  c #656B18",
"L  c #666C1C",
"P  c #6D7315",
"I  c #6D7318",
"U  c #757B15",
"Y  c #767C15",
"T  c #71771A",
"R  c #404622",
"E  c #434A24",
"W  c #434B2C",
"Q  c #494F2B",
"!  c #4C5327",
"~  c #4B532C",
"^  c #545B24",
"/  c #585F21",
"(  c #535B2C",
")  c #404737",
"_  c #434C34",
"`  c #434D3B",
"'  c #475033",
"]  c #4A5333",
"[  c #4F5934",
"{  c #465139",
"}  c #4B553C",
"|  c #4E583D",
" . c #525B33",
".. c #50563F",
"X. c #525C3D",
"o. c #595F3D",
"O. c #5D6427",
"+. c #5B6229",
"@. c #5E6732",
"#. c #56613B",
"$. c #5C633B",
"%. c #626A28",
"&. c #6C7425",
"*. c #6B732B",
"=. c #737B23",
"-. c #626B30",
";. c #636D3B",
":. c #697337",
">. c #6C763C",
",. c #6E793A",
"<. c #727D3B",
"1. c #454F40",
"2. c #4A4F42",
"3. c #475044",
"4. c #4B5342",
"5. c #4E5940",
"6. c #4E5649",
"7. c #525740",
"8. c #525C43",
"9. c #585E41",
"0. c #535C4B",
"q. c #555E50",
"w. c #556044",
"e. c #5C6143",
"r. c #5D6943",
"t. c #56624B",
"y. c #5A654C",
"u. c #5E6A4E",
"i. c #5C6453",
"p. c #5D6951",
"a. c #626D43",
"s. c #616D4E",
"d. c #677143",
"f. c #697444",
"g. c #6F7A46",
"h. c #65714D",
"j. c #6A754B",
"k. c #6E7949",
"l. c #727D46",
"z. c #727D4A",
"x. c #626D53",
"c. c #686F55",
"v. c #606758",
"b. c #62695A",
"n. c #647154",
"m. c #6A7256",
"M. c #6E7B55",
"N. c #66735A",
"B. c #6B755A",
"V. c #6B7B5D",
"C. c #717E51",
"Z. c #747C5C",
"A. c #787F59",
"S. c #6B7263",
"D. c #6C7C61",
"F. c #717760",
"G. c #7D8314",
"H. c #7C831B",
"J. c #7B8221",
"K. c #7B852E",
"L. c #7F892F",
"P. c #778132",
"I. c #7B8532",
"U. c #7F8A33",
"Y. c #77813F",
"T. c #7B843C",
"R. c #7F893A",
"E. c #768145",
"W. c #7A8543",
"Q. c #7E8943",
"!. c #76824B",
"~. c #7A874D",
"^. c #7D8949",
"/. c #758253",
"(. c #72815A",
"). c #798059",
"_. c #7D8576",
"`. c #7D8678",
"'. c #848A14",
"]. c #828919",
"[. c #808721",
"{. c #838C23",
"}. c #838C29",
"|. c #88922F",
" X c #838C35",
".X c #828D3D",
"XX c #879133",
"oX c #8A9434",
"OX c #8E9836",
"+X c #86913D",
"@X c #8A943B",
"#X c #8E993B",
"$X c #919C3C",
"%X c #D1D700",
"&X c #D3DA00",
"*X c #D8DF00",
"=X c #DBE200",
"-X c #828D40",
";X c #838F48",
":X c #859043",
">X c #8A9541",
",X c #868D6D",
"<X c #8D956D",
"1X c #828A72",
"2X c #879073",
"3X c #899173",
/* pixels */
"<X1X2X2X1X3X3X2X2X2X2X2X2X2X2X2X3X3X3X2X2X2X2X2X3X2X3X3X2X3X3X<X<X3X<X<X<X<X<X<X<X<X<X<X<X<X<X<X<X<X<X<X<X<X<X<X<X<X<X<X<X<X3X<X",
"_._._._.`.`.`.`.`.`.`.`.`.`.`.1X_._.1X`.`.1X1X1X1X1X1X1X1X1X1X1X1X,X,X1X1X,X,X,X,X,X,X,X,X<X,X,X<X<X,X,X,X,X,X,X,X,X,X1X1X1X1X,X",
"S.S.S.S.S.S.S.S.S.S.S.S.S.S.S.S.S.S.S.S.S.S.F.F.S.S.S.F.Z.F.V.Z.Z.Z.F.Z.Z.A.Z.A.A.A.A.(.).Z.A.A.).).~.).A.A.A.A.A.A.Z.A.Z.Z.m.Z.",
"c.q.6.3.2.2.1.2.2.2.2.2.2.2.2.2.2.4.} 4.2.2.2.4.......4.7.7.8.e.9.9.9.o.o.o.o.e.$.$.$.$.-.;.$.$.$.$.$.$.$.$.o.o.$.o.o.o.o.e.c.j.",
"c.0.s p r p t t t p y p d p p y u u p p u u u u u i i i i R j R *X*X=X=X& & & & - & & & & & & & : & & & & & & & & & & & % & e d ",
"c.q.l 3 r u l l k l k k f l k l k k k k l k W W W W ) W W 0 9 9 *X*X=X=X+ @ & - ; ; ; ; ; ; ; ; ; > ; ; 1 ; 1 - 1 - 1 - ; ; e t ",
"c.q...W W } 0.t.t.t.y.t.y.y.y.y.t.y.y.y.y.y.y.u.s.s.a.a.o.! R 9 *X*X=X=X+ & > 3 t t t t t t t t e y p y e p e p e p e p e e d d ",
"c.q...{ 7.y.p.n.x.N.N.N.x.N.N.x.n.V.n.n.B.M.M.j.m.M.M.j.d.$.Q g *X&X=X=X+ & q p p f a l a f f f d d f d s f s a a s s a s d e d ",
"N.t.} } i.p.p.p.p.y.t.y.u.y.t.u.x.y.y.u.s.y.s.s.s.a.s.M.z.a.! n &X&X*X=X+ ; r a a t t t d t t t t t t d t t t e p e r a a a p p ",
"n.t.} } y.p.p.p.8.f t _ } a s w.0.s i | ] u _ #.Q j [ j.C.d.( n *X&X=X=X@ ; r f a q % ; q ; & 1 q * * e e * * q 2 % - e p p t p ",
"m.i.4.5.y.x.p.5.k ; - r u , q z ) 3 , i 9 , 8 j 8 < ~ k./.>.( b *X&X=X=X+ ; t f t - o $ & $ o $ * o + ; q $ o * % X $ * e p p d ",
"N.i.t.t.i.N.t.l ; q p > - a l r 3 s y > 3 j u < < R #.z.!.d.( M &X*X=X=X+ ; r f f q % X X % * $ o & * $ % * * o $ % $ + - t p d ",
"m.b.v.p.p.N.i.a - t z r q _ } r 3 ) W 3 u Q W 4 6 ! ;.z.z.>.+.B &X&X=X=X@ 1 r f a w ; o o * ; % $ * ; % % q 1 $ % 1 % o * e d f ",
"m.b.i.p.p.p.p.{ y ; q z ` a u z ) y y W W u s Q h 0  .z.~.l.O.V &X&X=X=X+ - r f f ; $ $ ; & % * * % % ; 1 % * q ; $ + & q p f d ",
"N.b.p.p.p.p.p.} u - ; z } u r { { y y ' R 5 R ~ R 0 ( l.W.<.%.Z &X%X*X=X$ - p f p ; o % ; & $ * ; % % 1 1 % % q 1 $ o & q p d d ",
"c.b.p.p.p.p.y.k ; r l p r z z u u ] ' y s Q W 0 0 ! :.W.^.<.%.C &X%X*X=X@ - e a a q - + o * ; % $ 1 1 * % q 1 % * ; % o - p d f ",
"m.b.i.p.p.x.i.s ; r l r w z ` u u ] ' u j ] W 0 h ^ :.!.;X<.%.J &X&X=X=X$ * q l d q * $ $ * ; * % 1 q % * 1 ; $ * * $ $ * e d d ",
"m.b.p.p.p.p.i.5.i ; 1 s _ t y ` ` u j | ] 9 E ( E n / W.;XT.&.J %X&X=X=X$ 1 q p p ; o $ ; % $ ; q % % 1 q $ % ; * $ $ * e e d d ",
"m.b.v.u.p.p.y.} u > q s k r t _ ' j k ] ] R Q ( m m %.W.;XT.&.J %X%X=X=X$ 1 r l p 1 $ $ ; * % 1 1 * * ; 1 % $ * * $ $ % q d d d ",
"m.b.v.u.p.n.y.a - t z r > k _ 5 u [ ] 9 W $.( 7 v +.,.Q.-X X=.P %X%X*X*X$ * e p p e * o $ ; q * $ 1 q % $ 1 * $ $ 1 * o * d d d ",
"B.b.i.p.p.p.p.z 2 r s t t s k u i _ _ E ~  .! g v Z :.-X:X X=.P %X%X=X=X+ ; r p d q % o o * 1 * * * ; * $ * * % % ; $ $ * t d d ",
"N.b.i.p.p.p.p.5.j - - k _ 3 , W Q 8 j X.[ 9 n B b b %..X>X X=.U &X%X=X=X$ ; r l p * X + % $ o 1 q * $ * * $ $ 1 ; o o ; e t d d ",
"m.b.p.p.p.p.p._ 3 # - t u , 3 u i u j Q E 7 g v b N *.-X>XXXJ.Y %X%X=X=X$ ; q l l ; $ X $ o o * * * $ * % o $ % $ o X $ q t d d ",
"B.b.p.p.p.n.y.a & 3 j 3 > u j < 8 [ [ 9 h ! M 7 N *.T.:X>XXXJ.Y %X%X=X=X$ ; e p p t ; $ X $ * $ $ ; 1 $ $ * % o + ; $ X * t d d ",
"B.b.v.u.p.p.p.z a _ 5.l j } X.k _ a.r.Q ( ;.@.^ O.P.-X+X#XoX[.Y %X%X=X=X$ ; r l p p t 1 * 1 q ; * q t * * q q % ; q 1 ; 1 t d d ",
"c.b.p.p.u.p.p.y.u.u.u.u.u.s.s.r.s.j.j.d.f.k.l.l.W.Q.-X@X#X|.].G.%X%X=X=X$ ; q t p p p p t p p p p p p e p p p e t p t t t p d d ",
"y.q.p.i.p.i.u.n.n.x.n.n.n.n.n.m.j.m.j.z.!.!.!.Q.Q.-X:X@XoX}.].].%X%X=X=X$ ; q r p p t l l p p f l t p l l t p l f p p l p p f d ",
"5.6.t.p.p.p.p.x.p.x.u.x.p.h.h.h.j.j.j.k.g.l.E.W.Q.Q.:XXXXX}.].'.%X%X=X=X$ & 1 r t p t p t t p p t t p p p t p p p p p p p p d f ",
"} 1.| w.p.p.p.p.u.p.u.x.s.s.s.h.h.j.j.k.g.l.E.E.W..X+X@X|.{.].'.%X%X=X=X$ & 2 w t p p p p p p p p p p p p p p p p p p p p p p d ",
"..` ` | y.p.p.p.u.p.u.s.u.h.h.s.h.h.j.k.k.l.E.W.Q.-X:XXX}.H.'.'.%X%X=X=X% % - 2 t p p p p p p p p p p p p p p p p p t p p p t d ",
"| ) ` | y.p.p.p.p.u.p.u.s.h.s.h.h.j.j.k.g.l.E.E.Q.-X>X XT P Y '.&X%X=X=X% + X % q l p p p p p p p p p p p p p p p p p p p d t d ",
"| 1.} 8.p.p.p.p.x.u.x.s.x.s.h.h.h.j.j.k.g.!.E.E.T.:X+XL.I F H '.&X%X=X=X@ X . @ 1 l p p p p p p p p p p p p p p t p p p p p t d ",
"5.3.0.p.p.p.p.p.p.p.x.u.s.s.s.h.h.a.h.h.h.E.E.W.Q.R.U.K.J.G.G G.%X%X=X=X. X @ ; w r p p p p p p p p p p t t p p p p p p p p p l ",
"w.q.p.p.p.p.p.p.u.x.u.s.s.s.s.h.h.h.E.!.E.E.E.E.Q.R.K.K.L.H.G.G %X&X=X=X  o 2 r 3 w t p p p p p p p p p r l t p p p p p t p p p ",
"x.p.p.p.p.p.p.p.u.x.u.s.s.s.s.h.h.h.h.f.h.E.E.E.Q.R.K.L.OXOXG.F %X%X=X=X  + r k w w p a p p p p p p p p p t p t p p p p p p p p ",
"D.i.t.t.u.p.p.p.p.p.u.s.s.s.s.h.h.h.h.E.h.E.E.E.W.Q.K.L.$XOXG.F &X%X=X=X  $ t p r 3 p p p p p p p p p p p p p p p p p p p p p f ",
"N.i.5.5.t.x.p.p.p.u.u.s.s.s.n.h.h.h.h.j.h.E.E.E.W.Q.P.L.$XoXH.F %X%X=X=X  $ p a w w t p p p p p p p p p p p p p p p p p p p p d ",
"n.y.{ } t.x.p.p.p.u.x.u.u.s.s.s.h.!.h.f.E.h.E.E.W.T.P.I.#X#XH.S &X&X=X=X  $ t a r w t p p p p p p p p p p p p p p p p p p p t d ",
"c.y.| | t.p.p.p.p.p.u.u.s.s.s.s.h.h.j.!.E.E.E.E.W.Y.P.P.#XR.G.S %X%X=X=X  $ p a r 3 p p p p p p p p p p p p t t p p p p p p t d ",
"c.p.0.0.u.p.p.p.p.x.u.x.s.s.s.h.h.h.h.h.h.h.!.!.W.Y.P.P.#XR.K S %X%X=X=X  $ p a r 3 p p p p p p p p p p p p j t p t p p p p p d ",
"m.b.i.p.p.p.p.p.p.u.u.x.u.s.s.s.h.h.h.!.h.f.E.E.E.Y.:.P.R.R.K c &X%X=X=X  $ t p w w p p p p p p p p p p p p p p p p p p p p p d ",
"m.b.p.p.i.p.p.p.p.p.u.u.s.u.u.n.u.h.h.j.h.E.h.!.E.Y.P.P.R.P.D c %X%X=X=X  o q u w w p a p p p p p p p p p p p p p p p p t p l d ",
"m.b.v.u.u.i.i.p.p.u.p.p.u.s.s.s.s.h.h.h.j.f.f.!.!.E.P.*.&.L C c &X%X=X=X  o - 2 2 w p p p p t p p p p p p p p p p p p p p p d d ",
"m.b.v.u.y.p.p.p.p.p.u.u.x.u.u.n.s.h.h.h.h.h.h.!.!.E.>.%.V x V D %X&X=X=Xo X . + ; r p p p p p p t p p p p p p p p p p p p p p d ",
"N.b.p.p.p.p.y.p.u.p.p.p.u.s.u.s.s.h.h.h.j.j.!.h.E.E.Y.%.V g V L &X%X=X=X& o . o 2 y p a p p p p p p p p p t p p p p p p p p d d ",
"B.b.p.p.p.y.p.p.p.p.u.p.x.u.s.u.s.s.s.h.h.j.h.E.h.E.f.:.O.Z Z L &X&X=X=X& $ % - w p p p p p p t p p p t p p p p p p p p t p d d ",
"N.b.y.y.i.p.i.p.p.p.p.p.p.u.u.n.s.s.h.h.h.j.h.f.h.E.h.E.P.%.D A &X&X=X=X+ - ; w p p p p p p p p p p p p p p p p p p p p p p p d ",
"N.i.5.8.y.p.p.p.p.p.p.p.x.u.u.s.s.s.s.s.h.h.j.h.E.h.!.!.P.-./ Z &X&X=X=X+ - 2 r p p a p p p p p p p p p p t p p p p p p p p p d ",
"c.y.} } y.p.p.p.p.p.p.p.p.u.p.u.u.s.s.h.s.h.h.h.E.E.!.d.>.@.^ B &X&X=X=X$ & 1 e t p r l p p p p p p t p p p p p p p t p p p p p ",
"c.q.} { t.p.p.i.i.p.p.p.p.p.p.p.s.u.s.s.s.h.s.!.s.h.h.!.E.;.^ B &X&X=X=X$ * q t l p t t p t p r p p p p p p p p p p p p p p p p ",
"c.i.8.0.y.p.p.p.p.p.p.p.p.p.p.s.u.n.s.s.h.s.h.h.s.E.h.!./.>.+.B &X&X=X=X$ ; r l t t p p p p t k p p p p p p p p p p p p p p p p ",
"m.b.u.y.i.i.p.i.p.p.p.i.u.u.p.p.u.s.u.u.n.s.s.h.h.h.h.h./.d.( g &X*X=X*X$ ; r t p p p p p t p p p p p t p p p p p t p p p p p p ",
"c.b.0.t.u.p.p.p.p.p.p.p.p.p.u.p.u.u.n.n.s.s.h.h.h.h.h.!.a.#.^ g *X&X=X=X$ - q j p p p p p p t p p p p p p p p p p p p p p p p f ",
"c.i.5.5.y.p.p.i.i.p.p.p.p.p.p.p.p.p.u.u.u.s.s.s.s.h.h.h.;. .j h *X*X=X=X$ & 2 r p p p p p p p p p p p p p p p p p p p p p p p p ",
"m.i.{ | y.p.p.p.p.p.p.p.p.p.u.p.p.u.p.s.s.s.u.s.h.h.(.h.;.( j h *X*X=X=X$ & 1 r p p p p p p p p p p p p p p p p p p p p p p p f ",
"c.q.| | y.p.p.p.p.p.p.s.p.p.p.p.u.n.p.p.u.n.n.h.s.s.s.a.#.[ j h *X*X=X=X$ & 1 q p p p p p p p t p p p p p p p p p p p p p p p p ",
"t.t.} | w.u.p.p.p.p.p.p.p.p.x.p.s.s.x.p.s.s.s.s.n.n.s.a.;. .j 6 *X*X=X=X% & 2 w t j p p p p k t p p p p p p k p p p p p p p p p ",
"5.z l k k 1.t.p.i.t.t.u.p.t.y.p.t.u.u.u.u.u.u.u.u.r.[ k k k j h *X&X=X=X% & - > ; q r t p p p p p t p t t t r p p p t p p t p p ",
"z l ; @ @ r z w.5.5.5.5.| } 5.5.} | 5.5.} | | X.#.} y = = < 8 j =X*X=X=X% @ o X X % q w q r q w 3 r w w q w w w q t q r e q e t ",
"1.l % $ + w 1.3.5.z | | } } } } } } 5.1.} 5.| X.#.] r = = = , 6 *X=X=X=X@ + X X . % 2 q q q q w w 3 w w w w 3 2 q q q q e 1 q t ",
"5.1.l l z 3.t.q.t.q.p.q.p.t.p.p.q.p.p.q.p.t.p.t.s.t.5.1.z j - = =X*X=X&X. o & ; q w j t t t k j t p p p k t p t p t t t p t e p ",
"1.3.q.v.N.D.(.(.(.D.(.D.(.V.D.(.N.D.(.(.(.D.(.D.(.(.(.(.V.| ; . . 2 X.(.(.h.; l k k l l k k k k k k k k k k l k l l l p l p p l ",
"3.6.p.N.N.D.D.D.(.D.D.D.N.D.D.D.D.D.D.D.(.D.D.(.(.D.N.(.(.5.- . . - 5.(.(.(.n.l l k k l k k k z k k k l k k k k l k k k k t d l ",
"w.w.t.(.N.N.(.(.(.(.(.(.(.(.(.(.(.(.(.(.(.(.(.(.(.(.(.N.(.#.6 O O 6 #./././.(.k k k k k k k k k k k k k k k k k k k k j p k p l "
};
