/* XPM */
static char *result[] = {
/* columns rows colors chars-per-pixel */
"64 64 214 2 ",
"   c #040303",
".  c #090706",
"X  c #0D0A05",
"o  c #06090B",
"O  c #0C0D0C",
"+  c #130E06",
"@  c #0E1001",
"#  c #0F110B",
"$  c #151306",
"%  c #1E1603",
"&  c #1A1C01",
"*  c #12130C",
"=  c #1A1C0E",
"-  c #050E14",
";  c #0C0F13",
":  c #0D1112",
">  c #0E1319",
",  c #131312",
"<  c #171916",
"1  c #191A14",
"2  c #13161A",
"3  c #15191D",
"4  c #1B1C1C",
"5  c #241B04",
"6  c #281B03",
"7  c #201F1F",
"8  c #1E2100",
"9  c #1E2116",
"0  c #2E2204",
"q  c #2A2E03",
"w  c #22240D",
"e  c #2E240E",
"r  c #262908",
"t  c #332707",
"y  c #3C2600",
"u  c #3E2C02",
"i  c #2E3302",
"p  c #2F330A",
"a  c #313501",
"s  c #3F3007",
"d  c #343905",
"f  c #363B09",
"g  c #393E0D",
"h  c #262517",
"j  c #292B13",
"k  c #24251D",
"l  c #2B2C1D",
"z  c #332C12",
"x  c #2E3116",
"c  c #363816",
"v  c #161C24",
"b  c #1C1E22",
"n  c #151F28",
"m  c #1E2021",
"M  c #19232C",
"N  c #1C2632",
"B  c #1E2834",
"V  c #1F2A39",
"C  c #252524",
"Z  c #2B2C23",
"A  c #252828",
"S  c #2A2B2A",
"D  c #2E3123",
"F  c #2F332D",
"G  c #343523",
"H  c #373A27",
"J  c #32352B",
"K  c #212A32",
"L  c #222E3B",
"P  c #27313C",
"I  c #363933",
"U  c #422D01",
"Y  c #463200",
"T  c #4B3400",
"R  c #4E3900",
"E  c #42320A",
"W  c #533D00",
"Q  c #523E0F",
"!  c #3D420F",
"~  c #3C4113",
"^  c #3F441A",
"/  c #3E4123",
"(  c #3C423B",
")  c #564101",
"_  c #5B4402",
"`  c #5A470C",
"'  c #414615",
"]  c #444816",
"[  c #414619",
"{  c #464B1B",
"}  c #494E1E",
"|  c #584D1B",
" . c #634C09",
".. c #68540D",
"X. c #6D581A",
"o. c #735D1B",
"O. c #78630E",
"+. c #786517",
"@. c #444727",
"#. c #4A4F20",
"$. c #4D5223",
"%. c #4E5528",
"&. c #515626",
"*. c #565A27",
"=. c #515728",
"-. c #54592B",
";. c #595D2D",
":. c #454932",
">. c #4A4D34",
",. c #494E3B",
"<. c #4C5033",
"1. c #4F543C",
"2. c #535637",
"3. c #565C32",
"4. c #5A5F31",
"5. c #5C622F",
"6. c #5C6134",
"7. c #5D643A",
"8. c #5C653B",
"9. c #7E6A29",
"0. c #616737",
"q. c #616639",
"w. c #656A3D",
"e. c #686D3E",
"r. c #273444",
"t. c #3F4640",
"y. c #464A45",
"u. c #515741",
"i. c #545A43",
"p. c #575D47",
"a. c #555758",
"s. c #725C42",
"d. c #5B644A",
"f. c #5D6656",
"g. c #656C43",
"h. c #666B46",
"j. c #696E42",
"k. c #7B6148",
"l. c #6C7246",
"z. c #67704A",
"x. c #6C734B",
"c. c #6E794D",
"v. c #707546",
"b. c #737846",
"n. c #71764B",
"m. c #73784D",
"M. c #626C5B",
"N. c #6D7651",
"B. c #6F7A54",
"V. c #717650",
"C. c #767C51",
"Z. c #787D53",
"A. c #737E5A",
"S. c #5F5F60",
"D. c #6B7665",
"F. c #717273",
"G. c #867318",
"H. c #927C1A",
"J. c #8B7825",
"K. c #8A762A",
"L. c #8D7556",
"P. c #9A7C5B",
"I. c #7B8156",
"U. c #76815C",
"Y. c #7D835A",
"T. c #7C8662",
"R. c #7D8866",
"E. c #7A8569",
"W. c #7F8B6A",
"Q. c #99841E",
"!. c #9A851E",
"~. c #A18A1D",
"^. c #988325",
"/. c #9A8632",
"(. c #A18C23",
"). c #A48E2D",
"_. c #A69229",
"`. c #B09829",
"'. c #A99539",
"]. c #BBA326",
"[. c #80865E",
"{. c #81885D",
"}. c #B19D41",
"|. c #B6A245",
" X c #BAA648",
".X c #BBA749",
"XX c #838A64",
"oX c #838E6B",
"OX c #86906D",
"+X c #89916C",
"@X c #808B74",
"#X c #869374",
"$X c #8B9573",
"%X c #8D9976",
"&X c #8A9778",
"*X c #8E9A7B",
"=X c #919D7D",
"-X c #AE8D69",
";X c #95A17E",
":X c #C0AD4C",
">X c #7E8186",
",X c #878685",
"<X c #969796",
"1X c #95A284",
"2X c #97A689",
"3X c #98A688",
"4X c #9BAA8D",
"5X c #9DAC91",
"6X c #A1B095",
"7X c #A2B298",
"8X c #A7B89F",
"9X c #A9B9A1",
"0X c #B7B6B4",
"qX c #CDCECE",
/* pixels */
"~ { { @.{ { ^ { #.^ ~ ~ { } ] ^ ' ' ' ] ~ g { { { { #.[ { { [ ' ^ ] { { ^ ~ ] ' ' ^ g ' { @.{ #.{ [ #.[ ' ' ' { { ^ ^ ~ ' ~ ~ ! ",
"{ 4X2X*X;X2XY.=X;Xm.I.m.+X4XI.I.Z.m.m.Z.-.d &X5X=X=X3XoX+X3XY.C.C.Y.3XoXm.I.m.m.Z.w.a c.6X1X=X1X*XY.4XoXm.I.I.;X*Xm.I.m.I.m.m.{ ",
"{ 2XXXn.8.;.;.-.;.5.7.6.-.=.6.;.0.Z.m.Z.-.d #X%Xm.l.=.;.;.;.4.6.6.;.;.6.6.4.m.m.m.w.a N.2XZ.n.-.-.5.-.;.5.6.;.;.;.6.;.b.Z.m.c.{ ",
"{ =Xn.e.-.x.c.c.c.j.*.w.I.I.5.l.&.0.I.m.-.a #Xm.n.-.g.z.z.z.z.-.4.x.z.8.d.5.=.I.C.w.a B.XXm.;.w.c.x.c.m.8.;.x.c.l.0.w.#.x.m.c.{ ",
"{ 1Xw.-.4XD.y.( ( I l H ( t.J y.{.&.0.Z.-.d &XC.-.oX1X7.g.h.g.&.-.g.x.6.6.Y.6.;.Z.0.a N.+X;.z.6Xy.y.( ( D l I y.( I z.v.&.l.v.} ",
"{ 1X*.x.D.  @ d.f.f.d.1.1./ r 8 l l.{ [.&.a #Xm.$.*X7.A.T.8.A.U.w.B.;.6.6.$.v.' Z.w.a A.$X! *XF   x M.f.M.<.d.:.H 8 $ i.$.w.m.{ ",
"{ 1X;.c.t.@ U.5XR.{.Y.Y.I.I.l.~ c 0.} [.-.d $XV.%.R.3.8X#Xm.Y.[.I.U.m.I.I.{ j.{ C.0.a B.+X] #X  ^ 2X;X{.XXI.Y.I.I.5.i 3.%.w.n.{ ",
"^ I.6.5.l f.5XI.n.m.c.b.c.c.I.l.} w.$.I.-.d x.n.{ w.8.*Xx.n.m.n.m.n.n.n.I.{ j.] C.w.d 6.Y.} l.* 1X&Xn.v.n.m.m.m.m.Z.-.6.$.w.m.[ ",
"^ I.6.6.l f.{.m.m.m.m.m.m.m.m.n.{ e.#.[.&.d x.v.} w.8.#Xv.m.m.m.m.m.m.m.Z.{ j.] Z.0.d 6.[.} l., =Xn.n.m.m.m.m.m.m.Z.-.6.%.w.n.] ",
"} 1X-.c.( / I.m.m.m.m.m.m.m.m.b.{ w.#.[.=.d &XV.%.W.{ C.n.m.m.m.m.m.m.m.Z.{ g.{ m.e.a A.+X] #X* b.m.m.m.m.m.m.m.n.Z.-.6.$.w.n.{ ",
"} 2X-.c.,.1.Y.m.m.m.m.n.m.m.m.x.{ e.#.I.-.d &XG o O # # O O 1 m.g.$ O , g.{ e.{ Z.q.a A.+X] #X< XXn.m.m.n.m.n.m.m.m.;.4.%.w.n.#.",
"^ OX5.w.I i.Y.m.m.m.m.m.m.m.m.v.{ e.#.[.=.i :.z y 0 ` +.+.o.U H @.9.` 0 H c j.{ C.w.a g.oX] U., oXn.m.m.m.m.m.m.m.Z.;.6.$.g.x.{ ",
"! b.8.*.h i.Y.m.m.n.m.m.m.n.m.n.{ w.$.I.-.p o u _ ..H.`.^.H. .+ g ].G.y 5 e w.[ Z.0.d -.Z.} q.* XXn.m.m.m.m.m.m.n.C.;.4.$.w.n.' ",
"} *X;.l.J D.XXn.m.m.m.m.m.m.m.n.} w.#.[.-.q > y +..X X}.s y ~.W ..(...6 Y 0 k ^ Z.w.a x.+X] W.< 3Xb.m.m.m.m.m.m.m.Z.;.4.$.w.n.{ ",
"] Y.6.5.J j n.m.m.m.m.m.m.n.m.#.{ w.#.Z.H r 5 o./._. X.XK.o.O.0 ) (.G...) 0 , [ Z.w.a 7.Y.{ x.X -.Z.m.m.m.n.m.m.C.g.g 0.%.w.n.[ ",
"{ *X5.5.H 8 ' l.v.c.n.v.n.m.{ ! { g.#.V.* % U '.'.G.'.}.:X'.Y   z (.(.(. .6 1 [ m.w.a x.+X{ j.+ f &.m.v.n.v.n.n.g.g f w.$.g.n.{ ",
"^ I.6.&.I.D c { } } { } { { { } m.0.=.V.+ % T H.(.!. .E H.J.+   0 ~.Q.Q._ u E w :.q.d 4.Z.$.0.z.1 } { } { { } { { ] 4.Z.} e.n.' ",
"^ m.I.6.*.e.e.w.w.0.0.e.w.w.w.w.4.&.Z.l.* 5 W O.J.`.X.Q (.J.+ z | _.)._. .U T $ k q.d 4.Z.Z.&.0.e.w.e.0.e.w.w.w.w.w.e.&.w.Z.x.' ",
"' I.b.I.8.} #.#.$.$.#.$.$.#.#.} =.Z.m.x.$ % _ R K..X X}..X'.y }.|.}.|.:Xo.T U + Z 7.d ;.Z.m.Z.$.} } #.$.$.} } $.#.} { w.Z.m.n.' ",
"' I.m.I.I.Y.Y.Y.Y.Y.Y.Y.[.I.[.[.[.m.Z.V., 5 _ T ` X.}.:X).^.o..X.X.X/.o.` R U $ Z w.d 4.[.Z.Z.I.[.[.I.[.I.[.Y.Y.[.[.[.Z.Z.Z.V.[ ",
"~ =.=.*.*.*.*.%.=.=.-.-.*.*.=.=.-.-.-.%.* 5 _ U U U K.}.^.H.(.'.}.}.+.y ) R U + 9 $.f } -.-.-.-.=.=.-.&.-.-.-.=.=.-.-.-.-.-.&.g ",
"! d d d d d d d d f d f d d f d d d d p O 5 W U R _ W _ }.:X X .) ` _ ) T Y R + $ f ~ g a a d a d f d d d d d d d f d g d d f g ",
"{ #X#X#X#X&Xx.OXOXj.j.e.T.&Xn.l.j.j.j.h.c r 0 U T W T R K.K.K.W R R R R Y u t / <.6.d g.*X&X#X&XXXn.*XU.e.j.l.#XoXg.j.j.j.j.h.{ ",
"{ 4X%XC.C.m.n.m.m.n.n.x.m.m.n.x.n.Z.V.Z.-.a b E Y u W _ R R R W W _ R u R t C n.C.w.i c.6XT.C.V.n.n.C.n.n.n.n.m.m.v.v.m.Z.V.n.{ ",
"{ *Xx.n.-.$.%.%.%.%.{ #.%.%.{ $.#.v.C.Z.%.i E.G 0 T Y T W W W _ W Y Y Y 6 j 4.V.C.w.a A.oXn.j.$.%.%.%.%.} { %.%.%.} #.;.m.V.n.{ ",
"#.1Xx.=.W.*XE.R.W.U.6.c.oXOXl.R.m.#.l.Z.*.d #XJ 5 s U u R W W W R U u y $ ,.&.e.C.w.a B.+Xe.-.4XR.R.W.OXl.q.T.oXU.x.oX;.-.m.x.#.",
"{ 1X*.g.1X8.3.6.$.7.5.%.&.{ $.#.w.g.{ [.=.d #XG , v u T T T T T U R t v 4 Z V.] Z.0.i B.+X' *XA.-.6.=.=.d.$.3.#.} { &.C.} w.n.@.",
"{ 2X-.N.8.A.8X%XI.%XoXW.XXZ.Z.m.' e.{ [.*.d &XD O v h e e e e e e e h v , $ w.{ m.w.a A.$X] $X' 7X5X{.XX=XY.$XZ.Z.[.;.;.%.w.n.} ",
"{ XX6.7.5.U.$Xn.n.x.v.m.n.m.m.n.{ w.#.Y.-.d U.G , b 3 v 3 3 2 v 3 3 3 b ; j e.{ Z.w.a g.XX{ C.#.1XA.x.n.v.n.n.m.n.Z.;.6.$.0.m.{ ",
"^ m.6.=.$.T.Y.n.m.m.m.m.m.m.n.n.{ e.#.Y.=.p x K 2 . v N N N 4 K N B 3   v C c ^ Z.0.d -.Z.{ q.#.1Xj.m.m.m.m.n.m.m.Z.-.4.&.w.v.' ",
"{ *X;.g.g.7.C.m.m.m.m.n.m.n.m.n.{ w.#.L.-.q o B v   v L K K 4 K K L 2   N M * ^ Z.w.i x.+X] oX{ Z.m.m.m.m.m.m.m.n.Z.-.6.%.w.n.@.",
"{ 1X;.z.z.6.C.m.m.m.m.m.m.m.m.v.{ e.#.[.=.i # B n   n V C C C C A V 2   N n < [ Z.0.a A.$X' &X} C.m.m.m.n.m.m.m.V.Z.;.4.$.w.n.{ ",
"{ =X;.g.w.B.Y.n.m.m.m.m.m.m.m.n.{ j.#.Z.x h y.<Xa.  b A b 7 C 7 b K 2 . F.>Xy.l >.w.a x.+X] oX#.&Xn.m.m.m.m.m.m.m.Z.4.4.%.e.n.{ ",
"' m.7.=.%.g.Z.m.m.m.m.m.m.m.n.v.{ h.#.V.$ I ,X0XS.  4 S 3 4 C 3 b Z , . ,X0XF.7 k q.d -.Z.} w.{ Z.m.m.m.n.m.m.m.m.C.-.4.%.0.n.' ",
"{ oX;.7.4.R.XXn.m.m.m.n.m.m.m.n.{ w.#.V.* y.qX<Xy.  4 A 4 4 4 4 7 S < . S.<XqXS k q.a g.XX] Z.#.3Xn.m.m.m.m.m.m.n.Z.-.6.%.w.V.[ ",
"{ oX6.8.7.z.I.n.n.m.m.m.m.m.n.n.{ j.#.V.* F ,Xa.S   < C 7 7 m 7 7 m ,   r.S.P.4 l w.a g.XX{ T.#.XXn.m.n.m.m.m.n.m.Z.-.6.%.w.n.{ ",
"{ +X4.-.&.6.I.Z.Z.Z.Z.C.Z.Z.Z.m.] w.#.V.< # 1 7 ,   , b C C A A C 4 ,   2 b 3 O Z 0.a g.XX{ e.' m.Z.Z.Z.Z.Z.Z.Z.Z.Y.-.4.$.w.n.{ ",
"' XX6.&.m.&.{ } { } { } { { { } j.w.#.V.* , - -Xk.  ; 2 N K O K n 2 o X P.P.- ; l q.a w.XX] l.w.{ } { { { { { } { { =.Z.} w.n.[ ",
"' m.m.-.6.n.e.j.j.e.e.j.j.j.j.j.v.#.m.n.l 5 - -Xs.  ; > N N   V N > - X P.L.: G :.q.d ;.Z.v.} n.j.e.j.j.j.j.j.e.g.e.n.;.4.C.v.[ ",
"' m.m.C.-.' { ] { { ] { ] { { ] } m.V.Z.-.p # . X . ; > N N . L M > O . X + 1 n.C.w.d 4.Z.m.v.{ { { { ] { ] ] { { { ' 4.Z.m.x.' ",
"' Z.m.C.C.Z.Z.C.Z.Z.C.C.Z.m.C.C.Z.C.C.Z.-.p 1 O O . , 2 b v . b b 3 , . o O 4 >.2.@.e 4.Z.Z.Z.m.Z.Z.Z.C.Z.Z.Z.Z.m.Z.C.C.m.C.n.' ",
"' w.w.w.w.0.w.w.0.w.w.w.0.w.w.w.w.w.w.j.#.z < , O . 2 b 4 4 . b 4 b ,   , , , , , , w &.g.q.w.w.0.w.0.w.w.w.0.0.e.0.w.w.w.w.q.' ",
"g a a a a i a a a d d d d i d d a d d i 5 1 * , O   v L r.L . r.r.K 2   O , O , , , < = q a a i a a i a a d d a a d d d d d a g ",
"' N.N.B.B.A.6.N.N.;.4.;.j.A.7.;.4.4.4.;.c w , , O   v K P K . P L K 2   O , , # # , = G z.B.B.A.x.q.A.g.;.4.4.A.x.;.4.4.4.4.3.' ",
"{ 7X3XoX+X$X[.+X+XI.I.Z.oX%XY.I.I.Z.Z.Y.3.i C C 1 . 4 Z C 7   k C C < . O 4 4 4 4 < w C.9X&X+X+X+XY.%XXXI.I.I.+X+XZ.Y.Z.C.Z.m.{ ",
"{ 1Xm.m.;.~ ] ' ' { } { ' ] { { $.Z.n.Z.-.p D.N.>.. 4 C A 7 . C C C <   O j g.h.g.2.q B.$Xn.n.] ] { ] ] { { { ' ] } ' q.Z.n.n.@.",
"{ ;Xn.;.z.*X#X#X#XW.w.C.$X#Xz.oXe.$.Z.Z.=.d $XC.>.# A F J S , S F F C O , >.{ v.m.w.i V.+Xn.$.#X#X#X#X#XB.w.W.#XR.m.oX$.q.C.n.{ ",
"{ 1X;.8.6XJ X , < < * * < , X $ z.0.$.Y.=.d #Xm.#.4XA.[ #.#.#.#.{ #.{ { ] w.n.{ C.w.a V.+X] OX@X  O < < < * < , * X G Z.$.w.n.{ ",
"{ 2X-.c.y.  ^ 2X;X1X+XXXXXm.*.f = e.} [.=.d &XV.%.W.3.7X2XZ.&X=XI.$Xn.m.Z.{ e.{ Z.w.a A.$X' &X  @ l.4X;X1XI.&XI.l.' 8 :.*.w.n.{ ",
"{ &X;.l.I x 2X*Xx.x.m.v.n.m.m.%.} w.#.[.=.d XXV.$.A.4.4XZ.v.n.n.m.n.m.m.Z.{ j.] Z.0.a z.+X] T.+ x.6XY.l.n.n.v.m.m.l.~ 6.$.w.V.{ ",
"' n.6.*.j D.;Xn.m.m.m.m.m.m.m.m.{ e.{ [.=.d w.v.{ 4.d.%Xv.m.m.n.m.m.m.m.Z.} j.{ Z.w.d -.m.} w., 6XY.x.m.m.m.m.m.m.I.;.4.%.0.n.^ ",
"{ OX4.e.I 1.I.n.m.n.m.m.m.m.m.n.{ e.} [.*.d Y.m.#.C.=.XXn.m.m.m.m.m.m.n.Z.{ e.{ m.w.d j.XX] A., XXn.m.m.m.m.m.m.m.Z.;.6.$.e.x.{ ",
"{ 2X-.c.,.H I.n.m.m.m.m.m.m.m.v.{ w.$.I.=.d &XC.%.#X] m.m.m.m.m.m.m.m.n.Z.{ e.] Z.w.i A.$X] $X* x.m.m.m.m.m.m.m.n.Z.-.6.&.e.n.{ ",
"{ 1X;.c.( d.{.n.m.m.m.m.m.m.n.n.} w.#.[.=.d $XV.%.W.4.#Xn.m.m.m.m.m.m.m.Z.{ j.{ Z.w.a B.+X] #X< %Xn.m.m.n.m.n.m.C.Z.-.6.$.w.x.#.",
"' I.6.6.D ,.I.m.n.m.m.m.m.m.m.n.{ w.} [.=.f x.v.{ e.%.I.n.m.m.m.m.m.m.m.Z.{ j.] C.w.a 6.[.] j.* I.n.m.m.m.m.m.m.n.C.;.4.%.w.n.{ ",
"] I.6.6.l M.{.n.m.m.n.m.m.m.m.n.} w.#.Y.=.f x.x.} w.7.&Xv.m.m.m.m.m.m.m.Z.{ j.{ C.w.d 6.[.{ z., ;Xn.m.m.m.m.m.m.m.Z.-.4.%.w.n.' ",
"{ &X;.x.I u.[.n.m.m.m.m.m.m.C.j.{ w.#.[.&.d oXn.%.T.4.#Xn.n.n.m.m.n.m.n.Z.{ j.{ Z.w.a x.+X] oX, oXZ.m.m.m.m.m.V.C.C.&.4.%.e.n.{ ",
"] XX5.5.Z & 0.Z.m.I.C.C.C.Z.e.g ' e.#.[.=.d C.n.{ q.} Z.Z.Z.Z.Z.Z.Z.Z.Z.Y.{ w.] m.w.a q.[.{ w.  ' j.Z.Z.Z.Z.Z.Z.C.=.i 0.$.0.n.{ ",
"{ +X;.*.p.& q -.5.-.-.-.;.;.g f 4.g.{ [.=.d XXm.' n.=.;.-.3.;.-.-.-.;.-.-.=.m.' C.w.a z.+X' l.G & ' 4.3.-.-.;.-.%.i ' m.#.w.n.{ ",
"' m.x.&.m.2.3.6.6.6.6.6.6.6.6.w.C.&.w.Z.=.f e.n.;.0.C.4.4.4.4.4.6.4.6.4.4.Z.;.6.C.w.d ;.Z.q.&.Z.@.0.4.6.4.4.4.4.4.0.n.w.&.n.x.' ",
"' m.Z.n.&.&.&.&.$.%.$.%.%.%.$.$.#.e.Z.Z.-.f j.Z.m.;.} &.&.%.$.&.$.&.$.%.%.$.4.C.C.w.a 4.Z.Z.q.#.=.$.&.$.&.%.#.&.#.%.#.-.n.C.v.[ ",
"' m.n.C.l.w.0.w.0.w.w.w.w.0.w.e.g.C.m.Z.-.f j.m.m.m.w.w.w.w.w.w.w.w.w.w.w.0.m.m.C.w.d 4.Z.m.m.e.e.w.w.w.w.w.e.w.e.w.w.v.V.m.n.' ",
"' m.n.n.m.V.m.m.m.m.n.m.m.m.m.m.C.n.n.Z.&.d j.m.m.V.n.m.m.m.m.m.m.m.m.m.m.m.n.n.C.w.d 4.Z.n.V.C.m.m.m.m.m.m.V.Z.m.m.C.n.n.n.x.] ",
"g ~ ~ ~ ~ ~ g ~ ~ ' ~ ~ ~ ~ ~ ~ g ^ g ~ g g ~ ~ ~ ~ ~ g ~ ~ ~ g ~ ~ ~ ~ ~ ~ ~ ~ ~ g g g ' g g ~ ~ ~ ~ g ~ ^ g g ~ g g ~ ~ ~ c g "
};
