/* XPM */
static char *result[] = {
/* columns rows colors chars-per-pixel */
"64 64 215 2 ",
"   c #040303",
".  c #090603",
"X  c #0C0B04",
"o  c #050609",
"O  c #0E0C0C",
"+  c #130500",
"@  c #130C03",
"#  c #110E0C",
"$  c #0E1001",
"%  c #0F100C",
"&  c #161403",
"*  c #1C1502",
"=  c #171903",
"-  c #1B1B03",
";  c #12130D",
":  c #19190C",
">  c #0B0E12",
",  c #110F11",
"<  c #0E1216",
"1  c #131313",
"2  c #171915",
"3  c #191916",
"4  c #13161A",
"5  c #151A1C",
"6  c #1A1B1C",
"7  c #251B04",
"8  c #29140A",
"9  c #371C0C",
"0  c #211D19",
"q  c #1F2107",
"w  c #1F261D",
"e  c #272607",
"r  c #332401",
"t  c #372906",
"y  c #3D2A00",
"u  c #2F3300",
"i  c #2B3009",
"p  c #313501",
"a  c #343905",
"s  c #363B09",
"d  c #393E0D",
"f  c #272719",
"g  c #35261A",
"h  c #2E3414",
"j  c #373A17",
"k  c #0F1820",
"l  c #151C22",
"z  c #1B232D",
"x  c #1B2632",
"c  c #1D2A38",
"v  c #242424",
"b  c #2B2D23",
"n  c #25282A",
"m  c #2C2C2C",
"M  c #352A22",
"N  c #2D3327",
"B  c #373728",
"V  c #34362B",
"C  c #282C33",
"Z  c #212D3A",
"A  c #2E3337",
"S  c #2F3933",
"D  c #353C32",
"F  c #383B37",
"G  c #422D00",
"H  c #5E2401",
"J  c #463201",
"K  c #4B3501",
"L  c #4B3704",
"P  c #523C00",
"I  c #67300D",
"U  c #4B382A",
"Y  c #543C2C",
"T  c #3D420F",
"R  c #3C4113",
"E  c #3F441C",
"W  c #3E4224",
"Q  c #3B4536",
"!  c #3C423B",
"~  c #5A4403",
"^  c #5A450A",
"/  c #414615",
"(  c #444816",
")  c #41471B",
"_  c #464B1B",
"`  c #494E1E",
"'  c #644D06",
"]  c #6B560B",
"[  c #725C0F",
"{  c #6D5713",
"}  c #7C6815",
"|  c #454926",
" . c #494F20",
".. c #4D5223",
"X. c #4E5529",
"o. c #515626",
"O. c #565A27",
"+. c #515728",
"@. c #54592B",
"#. c #595D2D",
"$. c #474A36",
"%. c #5B4632",
"&. c #4B523B",
"*. c #565D32",
"=. c #5A5F31",
"-. c #565E3C",
";. c #664B36",
":. c #6B553D",
">. c #5C622F",
",. c #5C6134",
"<. c #5D643A",
"1. c #5C653B",
"2. c #616639",
"3. c #656A3B",
"4. c #656A3D",
"5. c #283748",
"6. c #393F43",
"7. c #3F4542",
"8. c #3D4A46",
"9. c #414441",
"0. c #474D45",
"q. c #4A5049",
"w. c #545B43",
"e. c #545947",
"r. c #565757",
"t. c #7A5941",
"y. c #5B644A",
"u. c #5D6656",
"i. c #656C43",
"p. c #696E42",
"a. c #676E49",
"s. c #6C7246",
"d. c #677149",
"f. c #6C734B",
"g. c #6E794D",
"h. c #717546",
"j. c #71764B",
"k. c #73784D",
"l. c #626C5B",
"z. c #6D7651",
"x. c #6F7A54",
"c. c #767B51",
"v. c #787D53",
"b. c #737E5A",
"n. c #6A7566",
"m. c #707578",
"M. c #8A7517",
"N. c #884629",
"B. c #975432",
"V. c #A05E36",
"C. c #887325",
"Z. c #907B29",
"A. c #875D42",
"S. c #87684A",
"D. c #976B4E",
"F. c #AB7550",
"G. c #A97F60",
"H. c #C07C53",
"J. c #7B8156",
"K. c #76815C",
"L. c #7D835A",
"P. c #758266",
"I. c #7C8662",
"U. c #7D8866",
"Y. c #7E8A6B",
"T. c #7D8C70",
"R. c #99851F",
"E. c #A08B1F",
"W. c #9A8625",
"Q. c #9E8922",
"!. c #9C8836",
"~. c #A79129",
"^. c #80865E",
"/. c #81885D",
"(. c #B39E43",
"). c #BEAA48",
"_. c #838A64",
"`. c #838E6B",
"'. c #86906D",
"]. c #89916C",
"[. c #869374",
"{. c #8B9573",
"}. c #8D9976",
"|. c #8A9778",
" X c #8E9A7B",
".X c #919D7D",
"XX c #BC8C65",
"oX c #95A17E",
"OX c #CE835B",
"+X c #E59E71",
"@X c #CEA879",
"#X c #EBAB7C",
"$X c #F5AE7E",
"%X c #FAB37F",
"&X c #767E82",
"*X c #778488",
"=X c #898F80",
"-X c #959698",
";X c #95A284",
":X c #97A689",
">X c #98A688",
",X c #9BAA8D",
"<X c #9DAC91",
"1X c #A3B298",
"2X c #A9A8A7",
"3X c #AABAA2",
"4X c #D0AC83",
"5X c #EABC88",
"6X c #FAB986",
"7X c #FEBC87",
"8X c #E2CC96",
"9X c #FDD395",
"0X c #F8E498",
"qX c #FAD0A1",
"wX c gray80",
/* pixels */
"R ) _  ._ _ E _ _ E T R _  .E / / / / ( R T _ _ _ _ _ ) _ _ E R R (  .E E R / / / / d / _  .`  .) /  .) / / / _ _ R R / / ( E T ",
"_ ,X:X X;X;XL..X.XJ.J.J.].>XJ.J.k.k.k.J.@.p |.,X X;X;X`.'.:XL.J.J.L.:X'.k.J.j.J.v.4.p z.<X;X.X;X}._.>X_.k.J.J.oX Xc.J.c.k.k.g._ ",
"_ >XU.k.4.@.=.@.@.=.,.>.#.#.>.=.2.J.k.c.@.a {.}.k.s.@.=.#.#.=.,.,.#.@.>.,.=.j.J.k.4.p z.:Xc.k.#.#.#.@.=.=.,.,.#.=.>.#.s.c.k.f._ ",
"_ .Xk.4.@.f.g.f.g.s.O.3.g.g.>.s.+.,.J.J.+.p [.c.f.@.i.f.d.f.d.@.#.f.f.1.4.*.O.j.c.4.u x.`.k.#.1.g.g.j.z.2.#.f.k.s.2.3...s.c.j._ ",
"_ ;X3.@.,Xn.0.! ! D f V ! 8.V 9.J.@.<.J.O.a [.J.@.Y.;X<.y.p.p.+.*.p.g.,.1.J.1.@.c.3.p x.].#.a.1X0.9.! ! N f F 9.Q V l.h.+.s.j._ ",
"_ ;X+.f.n.  $ y.u.u.y.-.w.| e q b p._ J.@.p [.k... X1.K.K.1.x.P.4.x.#.,.,...h./ c.3.p x.{.R  XN   h l.u.l.&.y.| B q * w...3.k._ ",
"_ ;X#.g.9.X K.<X_._.L.L.L.J.h.T d 4...L.@.p [.k.X.U.@.3X{.k.L.L.c.L.k.k.J.( 4._ c.3.u b.].( [.  E ;XoX^._.v./.v.J.>.u *.+.4.k._ ",
"/ J.,.,.h u.<XJ.j.g.j.j.j.k.k.s.` 4. .L.@.a s.g. .3.1. Xh.k.k.k.k.g.k.k.J. .4._ v.4.p ,.L._ s.; ;X}.j.j.k.k.k.k.k.v.@.,...4.g./ ",
"( J.,.,.h u._.j.k.k.k.k.k.k.k.h._ 4...S.*.T s.g. .4.1.{.f.k.k.k.k.k.k.k.k._ p._ J.3.p 1.^.( s.2 .Xj.j.k.k.k.k.k.j.v.#.,...4.j.( ",
"_ ;X#.g.8.E J.k.k.k.k.k.j.k.k.f.` 4. .^.+.p |.k.X.'.( k.k.k.k.k.k.k.k.k.J.` 4._ k.3.a x.].( [.; h.k.k.k.j.k.k.k.k.v.@.,...4.j._ ",
"_ ;X@.g.7.&.L.j.k.k.k.k.k.k.k.h._ 4.` ^.+.p |.k.X.Y.+.U.j.k.k.k.k.k.k.k.J._ p.( c.4.u x.{.( [.2 _.j.k.k.k.k.k.k.k.v.#.,...4.j. .",
"_ ].,.4.V e.L.k.k.k.k.k.k.k.k.j.` 4. .v.+.T K.g.W S n F S D V D g.g.$.S Q E p._ c.4.p p._.( K.1 _.j.k.k.k.k.k.j.k.k.@.,...i.j.) ",
"R k.<.O.f e.L.j.k.k.j.k.k.k.k.s._ 4. .^.+.s 2.i.h @ * 7 e 8 e @ a.a.B 7 7 j 4._ c.4.s @.v.` 3.; _.j.k.k.k.k.k.k.k.c.#.=...4.j./ ",
"_  X#.s.F l._.k.k.k.k.k.k.k.k.k.` 4. .^.@.a P.5 p J K [ ~.Q.Z.~ i 6 Z.M.L * Q ( c.3.u f.'.( U.3 ,Xj.k.k.k.k.k.k.k.c.=.=...p.j._ ",
"( L.,.>.B i k.k.k.k.k.k.k.k.k. ._ 4. .L.@.a f.o r J Z.C.] ' ' M.^ r Q.[ y 7 U h k.3.a <.L._ j.X #.c.k.k.j.k.k.k.c.i.d 2...i.j./ ",
"_ .X=.>.B - / s.j.s.j.j.h.k.` d ` i. .L.+.a P.O J { ).Z.y J ^ E.{ K R.M.L P J   g.4.u f.].( p.% a o.k.h.j.j.h.k.i.d s 4...2.g. .",
"( c.2...J.N d ` ` _ _ ` ` _ ` ` J.>...J.@.q N y C.(.W.[ y !.!.' r # W.E.Z.^ y   c.1.i >.S. .3.a.: ` _ ` _ _ _ ` ` / ,.v. .4.k./ ",
"( k.v.2.O.3.4.4.4.4.4.4.4.4.4.4.>.X.J.c.+.= * K Z.~.Q.[ y !.!.r X X ] M.~.' G 7 y.X.a >.K.v...2.i.4.4.4.4.3.4.4.4.4.4...3.v.j./ ",
"E k.k.J.2._ .... ....... .` ` X.X.J.f.J.+.= * P [ R.W.[ r M.}   X 8 r ' R.~ y P e 6 a >.J.J.v. .o. . . .` o. .`  .` _ 3.v.k.j./ ",
"/ J.J.k.v.^.L.J.J.^.J.L.^.^.^.S.L.J.J.J.@.= - P M.E.' P G ' P   :.@X  7 ~ e X .   6 u >.J.J.v.^.^.v.^.^.v.^.^.^.^.^.^.v.v.v.k./ ",
"R O.+.+.O.+.+.@.+.O.+.@.@.O.+.+.@.@.@.@._ - - P ] } K J J r t Y XX6XY g 7 . O :.f ; d ` @.+.+.+.o.+.+.+.@.+.+.+.O.+.+.O.+.+.+.d ",
"d a p a a a a a a d a a a p s a a a a a T - 7 ~ J y G J G @ M 6X6X$X+XA.X   0 9X:.& / d p a a a a a a a s s a a a s s s s s s d ",
"_ |.[.|.[.|.j.`.'.p.s.3.L. Xj.s.s.p.p.f...; * K J G K r * S.OX6X%X#Xg ;.XXM * $X;.; p i.}.[.[.{._.j. Xb.3.p.s.|.`.3.s.p.a.a.p.) ",
"_ ,X}.c.c.k.j.k.j.j.j.f.g.c.j.f.j.c.c.v.@.e $.r G J r @ o @XqX5X7X4X  ;.9XU O F.:.B p z.1X_.v.k.k.j.c.j.k.j.h.k.k.j.j.k.k.k.k._ ",
"_  Xj.j.X...X.X.X.X._  .X.X._ X.` s.c.v.@.a `.v t J     . @XqXqXqX8X  %.7XU . 4 c.2.p x.`.k.i. .X...X.X.` _ X.X... ._ @.c.c.f._ ",
"_ ;Xs.@.U.;XI.U.Y.K.<.z.'.'.p.U.k...s.v.+.a [.z.W 7 A.D.G.8X0X0X0X0XF.G.#XU f &.c.4.p x.].4.*.,XU.U.Y.`.s.2.I.`.b.j.'.*.@.g.g._ ",
"_ ;X@.i.;X1.@.,. .<.#.@.@.( ` ` 4.4.` L.+.a [.j.j : F.+X7X9X0X0X0X0X7X+XH.g Q / v.4.u x.{./ }.b.*.*.X.+.1.X.*.`  .X.+.c. .2.j. .",
" .;X@.z.1.b.3X}.J. X_.U._.v.J.k._ 4. .L.@.a |.c.j @ I V.+X6X7X7X7X6X+XF.I + Q _ c.2.u b.{.( [.( 1X<X_._..XL.{.v.v.S.>.*.o.4.f. .",
"/ `.=.<.=.K.{.f.k.h.j.j.j.k.k.f._ 4.o.^.o.a v.k.j O 9 Y B.H.H.H.OXH.B.;.9 + F _ c.4.a 2._./ c. .;Xv.j.j.j.j.j.k.k.c.*.=...4.j._ ",
"/ j.,.+...I.L.k.k.k.k.k.k.k.k.j.` 4. .v.+.a 4.a.j o k 9 H N.B.B.B.B.H 9 3 . Q ( c.4.a #.v. .2. .;Xp.k.k.k.k.j.j.k.c.#.=...4.j./ ",
"_  X#.a.i.<.c.k.k.k.k.k.k.k.k.h._ 4. .^.+.a `.S m x . 4 m C A g m A Y M o l S f j.4.a z.]./ `. .v.k.k.j.c.j.k.k.j.v.#.=...4.j. .",
" .;X@.f.d.,.c.k.k.k.k.k.k.k.k.s.` 4. .^.+.a Y.  l Z . < x x l 4 l n U M   l x   j.2.u b.{./ [. .c.k.j.c.j.k.k.k.j.v.#.,...3.f.| ",
"` }.@.a.y.c.L.h.k.j.k.k.k.k.k.f._ 4...L.@.a `.# x 5.. 4 Z v v n n v U m   Z 5.. c.i.a f.]./ `. .|.j.k.k.k.k.k.k.k.c.#.=...4.j._ ",
"/ k.<.@.+.4.v.k.k.k.k.k.k.k.k.j._ 4. .L.@.f $.q.*X-X  A *XC n *X9.4 &Xr.  m.-Xr.e.Q a @.v.` 4._ v.j.k.k.k.k.k.k.k.c.#.=...i.j./ ",
"_ _.#.<.=.U._.k.k.k.k.k.k.k.k.h.` 4...J.+.= m -X2X2X  A *Xn n &X6., m.q.. &X2X-X$.O u i._._ c...;Xj.k.k.k.k.k.k.k.c.#.=...4.j.) ",
"_ '.,.1.1.s.J.k.k.k.k.k.k.j.k.j.` 4...J.+.= F wX-Xm.. , m l 6 6 l 0 n 6   r.=XwXr.; a i._._ I._ _.j.k.k.k.k.k.k.k.c.#.=...i.j._ ",
"_ ].,.@.+.,.v.v.v.v.v.v.v.v.v.k.( 4...L.@.= 6 r.U F o # 0 v v 6 l v 6 4 . n F r.n : a a._._ 4./ c.v.v.v.v.v.v.v.v.v.@.*.o.4.j._ ",
"/ U.#.+.k.o._ _ _ _ _ _ _ _ _ ` s.3.` J.@.= O 6 m V o # l v v v v n 6 < o M U l ; 2 a <./.( s.3._ ` ` ` _ _ _ _  .( +.v.` 4.z./ ",
"( k.k.@.,.j.p.3.p.3.3.s.p.p.p.p.s...k.v.@.- 4 k G.5X+ o 4 x l . l Z < >   XX6Xl 6 w a #.v.j. .k.p.4.p.3.3.p.3.p.p.i.k.=.=.k.j./ ",
"/ k.k.v.#.( _ _ _ _ _ ( ( _ _ ( ` k.k.v.@.h w.< %.A.O o 4 x x   l Z < >   ;.t., w.-.p ,.v.k.s._ _ _ _ _ _ _ _ _ _ _ / =.v.k.j./ ",
"/ v.c.c.c.c.c.v.c.c.k.v.c.v.c.v.c.k.c.J.@.a s.X       > 4 z z   6 Z < > o     . c.4.p ,.J.k.c.c.c.v.c.c.v.c.c.c.v.c.k.v.k.v.j./ ",
"/ 4.4.4.2.4.3.3.3.2.4.4.3.3.2.3.4.4.4.4...s ,.# > > o > 6 6 4   1 6 6 1 o O O 1 b b f W p.4.4.4.4.2.4.2.3.4.3.2.3.3.4.4.4.4.2./ ",
"d u a u u u a u a a a p p u a a a a a a d s i # 1 1 o 1 n n l   5 C z 4 o 1 , 1 1 O O q u u u u a a u a a a a a u a a a a p p d ",
"/ z.f.x.x.b.,.z.z.#.,.#.a.b.,.*.=.,.#.,._ 7 B 1 , 1   4 c 5.5.  l 5.Z l . O , 1 1 1 1 2 x.x.x.c.d.,.b.i.#.#.=.x.f.#.=.=.=.=.*./ ",
"_ 1X>X_.].{.^.].].J.J.J._.{.^.J.J.v.v.L.#.u T.# > O o 1 n n v . l A n 6 o , # # O O O B 3X}.].].].^.}._.J.L.L.].].v.v.v.v.v.k.| ",
"_ oXJ.k.#.R ( ( ( _ ` _ _ / _ ( ..c.j.v.+.a [.0.$.$.; 3 A v w o 3 n m 0   # b &.$.Q f y.{.k.k.( / ( ( ( _ _ _ / ( ` / 3.v.j.f.` ",
"_ .Xj.#.d. X[.[.[.U.2.J.|.[.f.`.4...c.v.@.p {.c.i.X.9.v e.F m X 0 F q.B 1 . N s.c.3.u x.].k...[.[.[.[.[.c.2.`.[._.k.`. .2.k.j._ ",
"_ ;X#.y.<XV . 1 2 3 ; 1 1 ; X ; a.3...L.@.a [.k...,Xb.(  . ...` `  .` _ / 4.k._ c.3.u x.].( '.T.o O 3 3 2 O 2 1 ; O B v. .i.j._ ",
" .;X@.g.0.  E ;X;X;X]._._.k.o.s q i. .L.O.p |.k...U.@.1X:Xv.|..XJ.{.k.k.v._ p.( c.4.a x.{./ |.  X s.<XoX;XJ.}.v.s.( - $.o.3.k._ ",
"_ {.#.s.Q f ;X|.j.s.j.j.k.k.k.o.` 4...L.@.a U.k.X.K.,.<XJ.h.j.j.k.h.k.k.v._ p._ v.2.u s.`./ I.O s.<XL.s.s.k.j.k.k.s.T 2...3.k._ ",
"R k.1.O.f n.oXk.k.k.k.k.k.k.k.k._ 4...L.+.a 4.g.( ,.y.{.s.k.k.k.k.k.k.k.v._ p._ c.3.a #.v.` 2.2 1XU.h.k.k.j.k.k.k.v.=.,...4.g.R ",
"( ].=.3.V -.J.h.k.k.k.k.k.k.k.k.` 3...U.@.a K.k...c.+._.j.k.k.k.k.k.k.k.v._ 3._ c.3.a p./._ J.1 /.f.k.k.k.k.k.k.k.v.@.,...4.j._ ",
" .;XO.g.0.E J.k.k.k.k.k.k.k.k.h._ 4. .S.+.a |.k.X.T._ k.k.g.k.k.k.k.k.k.v._ p.( c.3.u b.{.( {.; s.k.k.k.k.j.k.k.k.c.*.=.+.4.j. .",
" .;X#.g.! y.L.j.k.k.j.k.k.k.k.h.` 4. .^.+.a |.k.o.Y.>.'.j.k.k.k.k.k.k.k.v._ p._ v.3.u x.{./ [.1 {.k.k.k.k.k.k.j.k.c.#.=...3.j._ ",
"E J.,.,.b &.J.k.k.k.k.k.k.k.k.f.` 4.` L.+.a f.j. .4.o.L.j.k.k.k.k.k.k.k.v._ p.( c.4.a =.L.` a.# J.k.k.k.k.k.k.k.k.v.#.=...4.j./ ",
"/ J.,.>.b u._.k.k.k.k.k.k.k.k.k.` 4. .^.+.s f.f.` 3.1.|.s.k.k.k.j.k.k.k.v._ p._ c.4.a ,.L.` p.2 oXk.k.k.k.k.k.k.j.v.=.=...4.g._ ",
"_ }.#.s.Q w.^.k.k.k.j.k.k.k.c.p.` 4. .^.+.a `.j. .I.*.{.j.k.j.j.k.k.j.c.v.` i._ c.3.a d.].( `.1 `.k.k.k.k.j.k.j.k.c...=.+.4.j._ ",
"( /.,.#.f * ,.v.v.k.c.c.c.v.p.d / 4. .^.+.a c.j._ 2. .v.v.c.v.c.c.v.c.c.L./ i.( c.4.a <.^._ 4.  ( f.v.c.v.c.v.v.c.@.u 2...4.k.) ",
"_ {.#.#.w.: u +.#.@.#.#.#.#.d a =.i.` ^.+.a _.k./ k.+.#.#.#.=.#.@.#.#.#.#.+.k./ c.4.a d.`.( s.j * T =.*.#.#.#.#.X.p / j. .4.j._ ",
"/ k.s.o.j.-.*.=.,.,.,.=.=.,.<.3.c.o.4.v.O.s 4.j.#.,.c.*.=.=.=.=.,.=.=.=.#.v.#.=.k.3.a #.v.2.o.v.$.2.=.=.=.=.=.=.=.2.j.4.+.f.j./ ",
"/ k.v.s.o.o.o.....+.........+... .4.v.v.@.a p.c.c.#. .+...o...o.....o.o.o.` =.c.c.4.a #.v.J.2. .o...o...o.....o. .o. .+.j.k.j./ ",
"/ k.k.c.h.4.3.3.4.4.4.4.4.4.4.4.i.c.k.v.+.s p.c.k.k.2.4.4.4.4.4.4.3.3.4.4.3.k.k.k.4.a *.v.k.k.4.3.3.3.3.4.3.4.4.4.4.3.j.c.k.f./ ",
"( k.j.j.j.z.k.k.k.k.j.k.k.k.k.k.k.j.j.v.+.s p.k.j.j.k.k.j.k.k.k.k.k.k.k.k.c.k.j.k.3.a #.k.k.k.k.k.k.k.k.k.k.k.k.k.k.k.k.k.k.j./ ",
"d R R R R R R R R R R R R R R R R R R R d d R R R R R R R R R R R R R R j d R R R R d R R T R R R R R R R R R R / j d / j d j d "
};
