/* XPM */
static char *result[] = {
/* columns rows colors chars-per-pixel */
"64 64 215 2 ",
"   c #030303",
".  c #0C0C05",
"X  c #03040A",
"o  c #080908",
"O  c #0B0B0A",
"+  c #120F07",
"@  c #0E1006",
"#  c #191505",
"$  c #1A1C01",
"%  c #13130D",
"&  c #1A1B0D",
"*  c #0F1111",
"=  c #121312",
"-  c #171916",
";  c #15191D",
":  c #181818",
">  c #1B1C1B",
",  c #231B04",
"<  c #231909",
"1  c #301805",
"2  c #221C16",
"3  c #1F2209",
"4  c #2E2203",
"5  c #2A2E04",
"6  c #262809",
"7  c #332402",
"8  c #3B2B01",
"9  c #3B280D",
"0  c #2E3202",
"q  c #2D310B",
"w  c #313501",
"e  c #343905",
"r  c #30340F",
"t  c #363B08",
"y  c #393E0D",
"u  c #242213",
"i  c #272915",
"p  c #23241C",
"a  c #2B2C1D",
"s  c #3C2B11",
"d  c #2E3115",
"f  c #363A15",
"g  c #383A17",
"h  c #131B24",
"j  c #221E20",
"k  c #1B232D",
"l  c #242423",
"z  c gray17",
"x  c #342923",
"c  c #2F3123",
"v  c #2F332B",
"b  c #333525",
"n  c #33352C",
"m  c #383B2B",
"M  c #212B36",
"N  c #2F2F30",
"B  c #363A31",
"V  c #373A37",
"C  c #471F12",
"Z  c #412E00",
"A  c #452D07",
"S  c #572B09",
"D  c #443301",
"F  c #4A3500",
"G  c #493805",
"H  c #553E00",
"J  c #483718",
"K  c #672706",
"L  c #513C2B",
"P  c #3D420F",
"I  c #3C4113",
"U  c #3D431C",
"Y  c #3F4224",
"T  c #3C423B",
"R  c #564002",
"E  c #5A4301",
"W  c #5F4905",
"Q  c #414615",
"!  c #444816",
"~  c #484319",
"^  c #464B1B",
"/  c #494E1E",
"(  c #504611",
")  c #644D04",
"_  c #644F09",
"`  c #6A5409",
"'  c #685711",
"]  c #6F5115",
"[  c #7A630D",
"{  c #7B6612",
"}  c #464B23",
"|  c #494F20",
" . c #45462A",
".. c #4D5223",
"X. c #4E5529",
"o. c #515626",
"O. c #565A27",
"+. c #515728",
"@. c #54592B",
"#. c #595D2D",
"$. c #484934",
"%. c #4E5237",
"&. c #565D32",
"*. c #5A5F31",
"=. c #525438",
"-. c #5A5E3C",
";. c #6F4C35",
":. c #714E32",
">. c #5C622F",
",. c #5C6134",
"<. c #5D643A",
"1. c #5C653B",
"2. c #616737",
"3. c #616639",
"4. c #656A3D",
"5. c #686D3E",
"6. c #3B3E42",
"7. c #3F4640",
"8. c #464A45",
"9. c #545A43",
"0. c #545A44",
"q. c #575A55",
"w. c #5E6542",
"e. c #5A614B",
"r. c #5D6656",
"t. c #656C43",
"y. c #696E42",
"u. c #666B48",
"i. c #70674B",
"p. c #6C7246",
"a. c #677149",
"s. c #6C734B",
"d. c #6E794D",
"f. c #707546",
"g. c #71764B",
"h. c #787549",
"j. c #73784D",
"k. c #646B54",
"l. c #626C5C",
"z. c #6D7751",
"x. c #6F7A54",
"c. c #6A745D",
"v. c #767B51",
"b. c #787D53",
"n. c #737E5A",
"m. c #5E6061",
"M. c #6A7566",
"N. c #6F7170",
"B. c #8F2801",
"V. c #846E15",
"C. c #8B7519",
"Z. c #927C1C",
"A. c #874D26",
"S. c #A7673E",
"D. c #855C41",
"F. c #916749",
"G. c #A27744",
"H. c #B97E51",
"J. c #7B8156",
"K. c #76815C",
"L. c #7D835A",
"P. c #7C8662",
"I. c #7D8866",
"U. c #7F8B6A",
"Y. c #97811E",
"T. c #9A851E",
"R. c #9A8622",
"E. c #9F8A24",
"W. c #A28D24",
"Q. c #AC9422",
"!. c #A89436",
"~. c #80865E",
"^. c #81885D",
"/. c #AE9B41",
"(. c #B09D42",
"). c #B6815C",
"_. c #B5A245",
"`. c #838A64",
"'. c #838E6B",
"]. c #86906D",
"[. c #89916C",
"{. c #808B74",
"}. c #869374",
"|. c #8B9573",
" X c #8D9976",
".X c #8A9778",
"XX c #8E9A7B",
"oX c #919D7D",
"OX c #A69370",
"+X c #95A17E",
"@X c #C2835C",
"#X c #CB8D63",
"$X c #DC9869",
"%X c #E09A6C",
"&X c #ECAC7A",
"*X c #717E83",
"=X c gray54",
"-X c #929E80",
";X c #95A284",
":X c #97A689",
">X c #98A688",
",X c #9BAA8D",
"<X c #9DAC91",
"1X c #B3AF98",
"2X c #A1B095",
"3X c #A2B298",
"4X c #A7B89F",
"5X c #ADB6AC",
"6X c #FFBB8C",
"7X c #FFC18F",
"8X c #FFCC95",
"9X c #FFEA9B",
"0X c #FAE1AD",
"qX c #FFF8A4",
"wX c #C3C3C3",
/* pixels */
"I ^ ^ } ^ ^ U ^ ^ U P Q ^ | U ! Q Q Q Q I I ^ ^ } ^ } ^ ^ ^ U Q I Q ^ ^ U Q Q Q Q I P I ^ } } ^ ^ Q } ^ Q Q Q ^ ^ U P ! Q Q U P ",
"^ ,X:XXX;X;XL.+XoXJ.J.j.[.>XJ.J.b.j.j.b.@.e |.,XoX-X:X`.].,XL.v.v.^.,X'.j.b.j.j.b.4.e d.3X-XoX;XXX~.,X`.j.J.J.;X XJ.j.J.v.j.j.^ ",
"^ >XI.g.4.O.#.O.O.#.,.>.#.O.,.>.3.b.g.b.+.e |. Xj.p.@.#.#.@.,.,.,.#.@.#.,.,.j.j.b.4.e z.:Xv.g.@.#.#.@.#.,.,.>.>.#.>.>.p.v.j.d.^ ",
"^ oXg.5.@.s.d.d.d.a.>.4.d.d.>.a.o.2.b.b.@.w }.j.g.@.t.a.a.a.a.@.,.s.d.<.3.&.@.b.j.3.0 x.`.v.#.4.s.d.s.v.,.#.a.j.5.1.4...p.v.s.^ ",
"^ ;X4.@.,XM.8.T T V i n T 7.n 8.J.o.2.J.+.e |.v.@.U.;X<.t.u.t.@.@.u.d.,.1.L.,.#.v.4.e x.[.#.a.2X8.8.T T c a T T T B k.f.o.p.g.^ ",
"^ ;XO.s.M.  @ e.r.r.e.-.9. .6 $ b 5.^ L.@.e }.j...XX1.K.K.1.x.P.t.v.@.,.,...s.Q v.4.0 x.|.P XXv   r l.r.r.%.e. .U $ $ 9...4.j./ ",
"^ ;X#.d.8.. K.<XI.^.L.L.L.J.f.P f 4...L.+.w }.j.X.U.&.4X|.v.L.L.v.L.j.b.J.^ 5.^ b.4.0 v.|.Q }.  U ;X+X^.`.J.^.J.b.,.0 &.o.3.s.} ",
"Q K.,.>.a e.<XJ.g.j.g.d.j.j.j.f./ 4.| L.@.t s.g.^ 3.1.XXs.g.g.g.j.d.j.g.b.^ 5.^ v.3.e ,.J./ p.= ;XXXg.g.g.j.g.j.j.b.@.,...5.j.Q ",
"U L.,.,.a r.`.g.j.j.j.j.j.j.j.f.^ 4...J.@.e s.s./ 4.<.|.g.j.j.j.j.j.j.j.b.^ y.^ v.4.e ,.~.! p.= oXg.g.j.j.j.j.j.j.b.@.,.X.4.g.Q ",
"/ ;XO.d.T Y J.j.j.j.j.g.j.j.g.d./ 4./ ~.o.e }.v.X.'.! j.j.j.j.j.j.j.j.j.b.^ y.^ v.4.w x.[.! |.% f.j.j.j.j.j.g.j.j.v.@.,.X.4.j./ ",
"/ ;X@.d.$.0.J.j.j.j.j.j.j.g.j.f.^ 4.| J.@.e |.j.} V u B c c c c c c b c m 3 m ^ v.t.w v.|.! }.- `.g.j.j.j.j.j.j.j.b.@.,.X.4.g.} ",
"^ ].>.t.v 0.L.j.j.j.j.j.j.j.j.g./ 5.| ~.@.e L.s.U + & < u u u u u < % + + + u Q j.3.0 t.`.! K.= `.g.g.j.j.j.j.j.j.v.@.,...4.j.Q ",
"P d.,.O.i 0.L.j.j.j.j.j.j.j.j.g.^ 4...L.@.t 3.c , 8 V.E./././.(.!.Z.R 8 R F D % %.3.e O.v./ 3.= '.g.g.j.j.j.g.j.j.b.@.*.X.4.g.Q ",
"/ XX>.p.B c.`.j.j.j.j.g.j.j.j.g./ 4.| L.@.e U.p 6 [ C.W._._._._.!.T.W F E F Z o $.3.e s.[.! `.- >Xg.j.j.j.j.j.j.j.b.*.*...4.j.^ ",
"! L.,.,.b i g.j.j.j.j.j.j.g.j.| ^ 4.| L.@.e z.p J W.Z.E./././._.!.Y.` H R F D + %.4.e 1.L.^ j.o #.v.j.j.j.j.j.j.v.t.y 2.X.4.g.Q ",
"^ oX#.#.m $ Q p.d.f.g.f.g.g./ P / 4.| K.O.6 c s F H C.W.R.R.R.R.E.R.Z.V.H R H Z d a 5 s.[.! t.+ t o.j.f.f.g.g.g.t.y t 4.| 4.j.^ ",
"U J.2...J.c f / / ^ / / ^ / ^ / j.2...J.+.6 o 8 R ` [ C.Y.Y.Y.Y.Z.{ R.C.H D 8 F 4 O 0 ,.J...4.u.& / / ^ ^ ^ / / ^ Q *.v.| t.g.~ ",
"Q j.J.,.O.5.5.4.4.5.4.4.4.4.5.5.*.o.J.d.@.6 . 7 _ W.W R Y.R.T.E.{ Z C.Z.E , X D 4 = 5 *.b.b...2.5.4.4.4.4.5.5.4.4.4.5.o.5.v.s.Q ",
"Q j.j.j.2./ | | / / / ..| / | | +.K.J.J.@.6 . F ` W.C.{ _ ) ` Y.Z.V.[ R , 7 Z F 4 O 5 #.b.j.b...o.| | | / ..| | | | / 4.b.j.g.Q ",
"! J.J.J.J.L.L.L.~.J.~.L.L.~.~.b.F.K.J.J.@.6 @ 8 _ Z.R.Z.W F F V.Z.E.) 8 X 7 H Z g c 0 ,.~.b.b.J.~.b.~.~.b.~.~.L.~.b.~.b.b.v.j.Q ",
"P @.@.@.O.@.@.@.+.@.+.@.@.+.O.@.@.@.O.@.^ 6 o X , H C.W.Q.t   F [ W.` D X , Z . g X.y / +.@.+.@.o.o.@.+.@.@.@.+.@.@.@.@.@.@.o.y ",
"P e w w w w t w e t e t w e e t e t e t y q o < 8 H _ ' ( ;.;.1 G [ 8 s F.] A 6 q t I y e e w e e e e e e e e e e e t t e t t y ",
"^ }.}.}.}. Xd.].].y.p.5.P.XXg.5.y.y.y.s...6 p A H H D 1   :.$X2 # H o x 8XG.S p.p.,.e t.XX}.}.}.`.j.XXn.5.y.y.}.'.4.y.y.y.u.y.^ ",
"^ ,X Xv.v.j.s.j.j.f.g.s.j.j.d.s.d.v.j.J.@.e }.v , F R D   D.%X@X;.    a qXG.S j.b.4.0 s.3XP.b.j.j.g.v.g.g.g.g.v.j.g.g.j.v.j.g.^ ",
"} XXg.g.@...X.X.X.X.^ / X.X./ X./ p.j.b.@.e }.=.Y 7 F F , L F.%XH.8.=.h.9XG.S g.j.4.e x.].g.y...X...X.X./ ^ X.o.X./ / @.v.v.s.^ ",
"^ ;Xp.@.U.XXI.I.U.K.,.d.U.].y.I.j...p.J.+.e }.b.%.X 7 F ) # . %X8X0XqX9X6XS.S 3.v.4.0 x.[.5.@.,XU.I.U.'.y.2.P.'.L.s.'.*.@.j.g.} ",
"^ ;X@.t.;X1.&.,...1.>.X.O.^ ..| 4.4.^ ~.+.e }.j.U o D H F 8 A #X6X6X7X&XA.J i.Q b.4.e x.[.Q XXK.&.&.+.+.w.+.&./ } / o.v./ 3.j.^ ",
"} :X@.d.1.K.4X XJ.XX`.U.`.b.b.j.Q 4...L.+.e .Xj.} v 4 F 8 8 A F.H.$X$X).S , 3.! v.3.0 n.|.! |.Q 3X<X~.`.oXK.}.b.b.L.@.#.X.4.j.} ",
"Q `.*.<.#.K.|.p.g.p.g.g.g.g.j.f./ 4...~.o.e v.j...e.= o o o X X 1 K K ] p.( p.Q b.4.e 3.`.^ v.| ;Xb.g.j.p.j.g.j.j.b.&.*...4.g.! ",
"Q j.<.@...P.L.g.j.j.j.j.j.j.j.g.^ 4.| J.@.e 4.s./  .> o o O = h 2 9 < J b./ p.! j.4.w #.b.^ 4.| -Xp.j.j.j.j.j.j.j.v.#.,.o.4.g.Q ",
"^ XX#.u.w.1.J.j.j.j.j.j.j.j.j.p./ 4...~.@.e '.j.o.c.= o o = j M k h O b J.^ 5.^ v.4.e s.[.Q '.} b.g.j.j.j.j.j.j.j.v.@.*.X.4.g.^ ",
"^ :XO.s.a.,.v.j.j.j.j.j.j.j.j.g.^ 4.| L.o.e |.v.+.M.% * ; S B.: h M - > a g y.Q b.3.0 n.[.! }./ v.j.j.j.j.j.j.j.j.v.#.*.| 4.j.} ",
"^ oX#.u.3.x.L.g.j.j.j.j.j.g.j.g./ 1...P.@.w ].j.o.c.: O h C K J b h 6.6.X f t.^ v.4.e s.[.! '.| |.g.j.j.j.j.j.j.j.v.@.*.o.4.j.^ ",
"Q j.,.o.+.t.b.j.j.j.j.g.j.j.j.p./ t...F.@.t t.g.^ $.: O 2 h j W.'   N.*XX f t.^ v.4.e @.b./ 4.^ K.j.j.j.j.j.j.j.j.v.#.,.X.4.j.I ",
"^ '.,.1.,.I.`.g.j.j.j.j.j.j.j.g.^ 4...~.+.e n.j...9.j O : 6.m.1XN.  N V o f 5.^ v.4.e t.`.^ b.| >Xf.j.j.j.j.j.j.j.v.#.,.X.4.g.^ ",
"^ '.*.1.1.a.J.g.j.g.j.j.j.j.j.g./ 4.| b.@.e n.g.o.k.= O = q.=X5XN.  : > o r p.! v.3.w t.`.! P.^ `.g.j.j.j.j.j.h.j.v.@.*.| 4.s.^ ",
"^ [.*.@.O.,.J.b.J.b.b.b.b.b.b.j.U 4...L.@.e P.j./ =.  + = *XwX=X8.  ; - o 5 y.^ v.4.e y.`.^ 4.Q v.v.b.b.b.b.b.b.b.b.#.&.o.4.g.^ ",
"Q `.,.o.j.o.^ ^ ^ ^ ^ / ^ ^ ^ / p.4./ L.@.e v.g.! b.> O O 6.m.8.N * = * o  .j.Q v.4.e 3.`.! p.4.^ / ^ / ^ ^ ^ ^ / ^ @.b.| 4.g.Q ",
"Q j.j.@.,.s.5.y.y.5.5.5.5.y.5.p.f./ d.J.@.e t.v.3.o.m o   = l 2 l N *   X -...y.v.3.e #.b.f./ j.t.t.5.y.5.5.y.y.t.t.j.&.*.j.g.Q ",
"Q v.j.v.#.Q ^ ! ^ ^ ! ^ ^ Q ^ ^ / j.f.J.O.t y.j.y.a % o   D.#X2 i.0XL   o f y.j.v.4.e *.b.j.f.^ ^ ! ^ ! ^ ^ ! ^ ! ~ Q *.b.j.s.Q ",
"Q v.v.v.v.j.b.b.v.b.j.b.b.j.v.b.J.j.v.b.} q -.w.=.= O O X L D.: L OXx   * %.w.w.i.t.e *.J.v.v.j.J.j.j.J.b.v.v.v.b.b.v.v.v.j.j.Q ",
"Q 4.4.3.4.4.4.4.3.3.4.4.4.4.3.5.4.4.3.t.> = = = = * = = o     X X X   O = = = =  .*.t @.y.3.4.4.4.4.4.3.4.3.5.3.4.4.4.3.4.4.3.I ",
"y 0 w w 0 0 e 0 e e w e e 0 w w w e 6 3 = = = = * = = *   : h M ; X O * * * = = & u y y 0 w 0 0 0 w 0 0 e w e 0 w e e e e e e y ",
"Q z.z.x.x.v.<.s.x.#.,.#.t.n.,.,.>.>.Y a = * = = * = = * o ; M M h = = * = * = = u a w &.x.x.x.v.d.2.K.t.#.,.*.v.s.#.*.*.#.*.&.Q ",
"^ 3X,X`.[. X~.[.[.J.L.J.`.|.L.J.K.b.b.b.2 * = = = = = * o : l l N 8.= X = = = = =.y.w v.4X.X[.|.].^. X`.J.J.J.[.[.b.J.b.v.b.j.^ ",
"^ ;Xv.j.#.I ! Q Q ! ^ ^ ! ! ^ ^ ..v.j.v.} 0 c.k.%.* = % o - : l z N z l O d -.-.y.4.0 x.|.j.g.! Q ! ! ! ^ ^ / ! ~ ^ ! 2.b.j.s.^ ",
"^ -Xj.#.a.XX}.].}.I.3.b.|.}.s.'.4...v.b.@.e |.b.-.p n v l n B B m $.q.8.p u.^ f.v.4.w x.'.g./ [.}.}.].}.x.3.'.}.I.j.'.o.<.v.j.} ",
"^ ;X#.1.<Xv . - > - = = - = . % y.4...J.@.w }.v...,XK.Q ../ ../ / | } Q ! 5.s.^ v.4.w x.|.! }.{.X @ - - - % - = % . b b.| 4.j.^ ",
"} :X@.d.8.  U ;X+X;X].`.`.j.O.t & 5.| ~.o.e .Xj.X.'.&.3X>Xb.|.oXJ. Xg.j.b.^ 5.^ b.3.e x.|.Q |.  @ p.<X+X;XJ. XJ.p.Q $  .@.5.d.^ ",
"^ |.#.y.T d :XXXf.s.g.g.g.j.J.../ 4.| ~.o.e `.j.} n.-.,Xb.g.j.g.g.f.j.j.b./ t.! j.4.0 s.[.Q P.% p.2XL.p.g.g.g.g.j.p.I ,...5.j.^ ",
"P g.,.#.u M.;Xf.j.j.j.j.j.j.j.j.^ 5./ ~.o.t 3.g.^ *.w.|.p.g.j.j.j.j.j.g.b.^ y.^ b.4.e @.b.^ 1.= 3XL.p.j.j.j.j.g.j.b.#.,.X.4.s.Q ",
"^ [.#.5.n -.J.g.j.j.g.j.j.j.g.d.^ 5.| b.O.e L.j.| v.@.`.g.j.j.j.j.j.j.g.b./ 5.^ b.4.e y.`.! L.= `.s.j.j.j.j.j.j.j.J.#.,.X.3.j.^ ",
"/ :XO.x.8.U J.g.j.j.g.j.j.j.j.f.^ 4.| ~.+.e .Xj.X.}.! j.j.j.j.j.j.j.j.j.b.^ 5.! j.4.e v.|.! |.% p.j.j.j.j.j.j.j.j.v.&.,...4.j.^ ",
"^ ;XO.d.T e.^.g.j.j.j.j.j.j.g.g./ 4.| ~.+.e .Xj...U.*.}.g.j.j.j.j.j.j.g.b./ y.^ b.4.0 x.[.! }.-  Xj.g.j.j.j.j.j.j.b.@.*...4.j.^ ",
"^ J.,.>.c %.L.j.j.j.j.j.j.j.j.g./ 4.| L.+.e s.j.^ t...L.g.j.j.j.j.j.j.j.b.^ y.! b.3.e <.L.^ p.% J.j.j.j.j.g.j.j.j.v.@.,.X.t.j.Q ",
"U J.,.,.a r.I.g.j.j.j.j.j.g.j.g./ 4.| L.@.t s.s.^ t.1. Xf.j.j.j.j.j.j.j.b.^ y.^ v.3.e *.L./ p.= ;Xp.j.j.j.j.j.j.j.b.#.*...3.j.Q ",
"^  X#.p.V 0.^.j.j.g.j.j.j.j.v.y./ 4.| L.@.e U.j.X.P.*.|.g.j.j.j.g.j.j.j.b.^ y.! b.4.e s.'.! '.= '.j.j.j.j.j.j.j.v.j.o.*.X.5.g.^ ",
"^ `.,.>.a $ 2.j.b.b.v.v.v.b.4.P ! 4.| ~.o.e j.j.^ 3.| b.b.v.v.b.v.b.v.b.J.^ 5.^ v.4.e 1.^.^ 4.  ! s.b.b.v.v.v.b.v.@.w ,.X.3.g.^ ",
"^ }.#.O.9.$ 5 O.#.@.#.@.#.#.y t ,.5.^ ~.@.e P.j.Q j.+.@.@.#.#.@.#.@.@.@.@.+.g.Q v.4.0 p.`.Q p.b $ Q *.@.@.#.#.#.X.w Q g.} 4.g.^ ",
"Q g.p...h.9.&.,.,.,.,.*.,.,.3.3.j.o.4.b.@.e 5.j.#.,.v.*.*.*.*.*.,.,.<.*.*.b.#.,.v.4.w #.b.4.o.b. .2.,.*.,.*.*.,.*.2.j.4.o.s.s.Q ",
"Q j.b.p.o...o.o.....X.X.X.......| 4.b.b.@.e p.b.j.#.| o.X.....o.......X.....*.j.b.4.e ,.b.b.3.| o.o.....X...X.........o.g.v.f.^ ",
"Q j.j.b.s.3.4.4.4.4.4.3.3.4.5.5.t.v.j.b.@.e y.j.j.j.4.4.4.4.4.4.4.4.4.4.4.4.j.j.j.4.e #.b.j.v.4.4.4.4.4.4.4.4.4.4.4.3.g.j.j.g.Q ",
"Q j.g.g.g.j.j.j.j.j.j.j.j.j.j.j.j.g.g.v.o.e y.j.j.j.j.j.j.j.j.j.j.j.j.j.j.j.j.j.j.4.e *.j.g.j.j.j.j.j.j.j.j.j.j.j.j.j.g.g.g.s.~ ",
"y I I I I I I I I I I I I I I I I I I I I y I I g I I y I I I I I I I I I I I I I g y y Q I y I I I I I I I I I I I I I I I g t "
};
