/* XPM */
static char *result[] = {
/* columns rows colors chars-per-pixel */
"64 64 222 2 ",
"   c #030303",
".  c #0C0D04",
"X  c #02050A",
"o  c #070808",
"O  c #0B0B0B",
"+  c #0F1107",
"@  c #1B1506",
"#  c #1B1C01",
"$  c #12130D",
"%  c #191609",
"&  c #0E1315",
"*  c #121312",
"=  c #131417",
"-  c #171915",
";  c #1A1B15",
":  c #161A1D",
">  c #1C1C1B",
",  c #241B05",
"<  c #231909",
"1  c #201F1F",
"2  c #1F2109",
"3  c #1F2118",
"4  c #2C2103",
"5  c #2B2F02",
"6  c #272708",
"7  c #24250C",
"8  c #342501",
"9  c #3C2C01",
"0  c #362A09",
"q  c #2F3301",
"w  c #2E3209",
"e  c #313501",
"r  c #343905",
"t  c #39320A",
"y  c #363B09",
"u  c #393E0D",
"i  c #282717",
"p  c #2A2B1D",
"a  c #33251B",
"s  c #2E3216",
"d  c #383A15",
"f  c #191D25",
"g  c #1B2026",
"h  c #1B232C",
"j  c #1C2734",
"k  c #232323",
"l  c #2C2E23",
"z  c #292828",
"x  c #382C22",
"c  c #2E3124",
"v  c #2F332C",
"b  c #373827",
"n  c #33362A",
"m  c #242B34",
"M  c #2F3135",
"N  c #363A34",
"B  c #491C04",
"V  c #432F00",
"C  c #57230F",
"Z  c #453200",
"A  c #4B3500",
"S  c #4F3900",
"D  c #4B3E0A",
"F  c #533C01",
"G  c #58310E",
"H  c #453D17",
"J  c #523918",
"K  c #663314",
"L  c #543B2B",
"P  c #3D420F",
"I  c #3C4113",
"U  c #3E431C",
"Y  c #3F4127",
"T  c #3C423B",
"R  c #5A4301",
"E  c #594303",
"W  c #5F520F",
"Q  c #414615",
"!  c #4C4216",
"~  c #444816",
"^  c #464B1B",
"/  c #494E1E",
"(  c #51451B",
")  c #614B05",
"_  c #6D5609",
"`  c #745E0E",
"'  c #634D15",
"]  c #786516",
"[  c #464C20",
"{  c #4A4F21",
"}  c #43462D",
"|  c #48492B",
" . c #554925",
".. c #4D5223",
"X. c #4E5429",
"o. c #515626",
"O. c #565A27",
"+. c #515628",
"@. c #54592B",
"#. c #595D2D",
"$. c #464931",
"%. c #454837",
"&. c #4D5239",
"*. c #515533",
"=. c #565C33",
"-. c #5A5F31",
";. c #575B3C",
":. c #6A4F2F",
">. c #694834",
",. c #724F39",
"<. c #5C622F",
"1. c #5C6134",
"2. c #5D643A",
"3. c #5C653B",
"4. c #616737",
"5. c #616639",
"6. c #656A3D",
"7. c #686D3E",
"8. c #3F4640",
"9. c #414543",
"0. c #494D49",
"q. c #545A44",
"w. c #555B45",
"e. c #54544D",
"r. c #695F4F",
"t. c #5D6348",
"y. c #5D6656",
"u. c #656C43",
"i. c #696E42",
"p. c #676A49",
"a. c #696E49",
"s. c #6C7246",
"d. c #677149",
"f. c #6C734B",
"g. c #6E794D",
"h. c #707546",
"j. c #737846",
"k. c #71764B",
"l. c #73784D",
"z. c #6A6C56",
"x. c #626C5D",
"c. c #6D7751",
"v. c #6F7A54",
"b. c #68715D",
"n. c #767C51",
"m. c #787D53",
"M. c #737E5A",
"N. c #6A7566",
"B. c #6C736D",
"V. c #78797B",
"C. c #8C2803",
"Z. c #8C4A1F",
"A. c #826C14",
"S. c #8A7518",
"D. c #927D1B",
"F. c #8D5128",
"G. c #8A582C",
"H. c #8C6538",
"J. c #936A49",
"K. c #977154",
"L. c #AC7D58",
"P. c #C17F53",
"I. c #7B8156",
"U. c #76815C",
"Y. c #7D835A",
"T. c #7C8662",
"R. c #7D8866",
"E. c #7F8A6A",
"W. c #95801D",
"Q. c #98831E",
"!. c #A28B1E",
"~. c #9A8521",
"^. c #9C8822",
"/. c #A18C27",
"(. c #A99537",
"). c #AF9931",
"_. c #80865E",
"`. c #81885D",
"'. c #B29E44",
"]. c #BB815D",
"[. c #BCA746",
"{. c #838A64",
"}. c #838E6B",
"|. c #86906D",
" X c #89916C",
".X c #808B74",
"XX c #869374",
"oX c #8B9573",
"OX c #8D9976",
"+X c #8A9778",
"@X c #8E9A7B",
"#X c #919D7D",
"$X c #95A17E",
"%X c #ACA273",
"&X c #C6855C",
"*X c #D69467",
"=X c #D0936A",
"-X c #E39D70",
";X c #E8B97C",
":X c #6F7C81",
">X c #8C9086",
",X c #95A284",
"<X c #97A689",
"1X c #98A688",
"2X c #9BAA8D",
"3X c #9DAC91",
"4X c #A1B095",
"5X c #A2B298",
"6X c #A7B89F",
"7X c #AABAA2",
"8X c #ECB282",
"9X c #FBB886",
"0X c #DCCE93",
"qX c #FAC68A",
"wX c #F1D48E",
"eX c #FDC694",
"rX c #FFE19A",
"tX c #F6F29C",
"yX c #F9D8A3",
"uX c #FFFEA6",
"iX c #B8B9C0",
"pX c #C0C0C0",
/* pixels */
"I ^ ^ [ ^ [ U ^ ^ U P P ^ [ ~ U Q Q Q Q I u ^ ^ ^ ^ [ ^ ^ ^ ^ U U Q [ ^ I Q Q Q Q I u ~ ^ [ [ [ ^ Q [ ^ I Q Q ^ ^ U I ~ U I I P ",
"^ 2X<X@X$X<XY.#X#XI.I.I.|.<XY.I.m.l.l.Y.O.e +X2X,X@X<X{.|.1XI.n.l.`.<X|.l.I.l.l.m.6.e c.4X,X#X,XOX_.1X}.l.I.I.$X#Xl.I.l.I.j.g./ ",
"^ 1XR.k.6.O.<.#.O.<.1.1.@.O.<.#.5.m.l.m.@.r XXOXl.s.+.#.#.@.=.1.1.#.#.1.=.<.l.l.l.6.q v.<Xn.l.+.#.-.@.#.1.1.-.#.O.1.-.h.m.l.g.^ ",
"^ #Xk.7.@.d.g.g.g.s.O.6.g.I.<.d.o.5.m.m.+.r XXn.k.+.p.f.f.d.d.@.1.f.d.1.u.<.+.I.n.6.q v.{.l.#.u.f.g.g.l.6.O.f.g.s.4.6...f.n.f.^ ",
"[ ,X6.@.2XN.9.T T N i v T 8.n 0.I.O.4.m.O.e XXn.+.E.,X2.t.d.d.O.#.d.f.1.2.I.1.#.m.5.e v. X#.a.4X0.%.N T c p N 9.T N z.h.o.h.k.^ ",
"^ ,XO.f.N.  . t.y.y.t.;.;.Y 2 2 l 7.^ Y.+.r XXn...@X3.U.U.6.v.U.6.v.#.1.1...f.U m.5.e n.oXI @Xn   s x.y.x.&.t.| d # # q...4.l.^ ",
"^ ,X@.g.8.. Y.3XR.{.Y.Y.I.I.j.P d 7.{ Y.@.r XXl.X.R.@.6XXXl.Y.Y.n.Y.l.l.I.^ 7.^ m.5.e M.oXQ XX  U ,X$X`.{.I.`.I.I.1.q ;...6.l.^ ",
"Q I.1.1.p y.3XI.g.l.j.g.j.g.I.s.^ 7.{ Y.+.y f.h.{ 6.3.@Xh.l.l.l.l.g.l.j.I./ 6.^ n.6.r 1.m./ i.$ ,X+Xl.k.k.l.l.l.l.n.@.1...6.g.~ ",
"U I.1.<.s y.Y.j.l.l.l.l.l.j.l.f./ 6.{ m.+.y f.k./ 6.2. Xf.l.l.l.l.l.l.l.m.^ 7.~ m.6.r 1._.~ i.- #Xh.l.l.l.l.l.k.l.n.@.1...6.l.Q ",
"/ ,X#.g.8.Y I.l.l.l.l.l.l.l.l.h.^ 6.{ _.+.r +Xl.X.}.^ l.l.l.l.l.l.l.l.l.I.^ 7.^ m.6.e v.oX~ oX$ k.l.l.l.l.l.l.l.l.m.@.1.X.6.l.^ ",
"^ <X@.c.8.;.Y.l.l.l.l.l.l.l.l.k./ 6./ Y.O.r OXl.X.|.X.{.k.l.c.l.l.l.l.l.m.^ i.^ l.6.q M. X~ XX- {.k.l.l.l.l.l.l.l.n.#.-.{ 6.l.[ ",
"~ |.<.u.v q.Y.l.l.l.l.l.l.l.l.f./ 6...Y.+.y U.l.i 3 - k i > i i 3 ; 3 > > ; 2.^ n.6.q i.{./ M.* }.k.l.k.l.l.l.l.l.n.#.1...6.g.^ ",
"I l.1.O.i q.Y.l.l.l.l.l.l.l.l.h./ 6.{ Y.O.r =.;.6 , 4 , , H (  . . . .! t , | I n.6.r O.m./ 5.* {.l.l.l.l.l.l.l.l.n.#.-.o.6.l.Q ",
"/ OX<.s.N N.{.l.l.l.l.l.l.l.l.l./ 6...Y.+.r y.o 9 F R A E /.).[.[.[.[.).A.V + 3 n.6.e f. XQ R.- 1Xh.l.l.l.l.l.l.l.m.-.-...6.k.^ ",
"U Y.1.<.n 7 j.l.l.l.l.l.l.l.l./ ^ 6...Y.+.r ;.o 8 A R A E D.(.[.[.'.(.^.W.D.< 2 n.6.r 2.Y.^ g.. =.n.l.l.l.l.l.l.n.i.u 5.{ 6.k.~ ",
"[ #X#.<.b # Q s.k.f.h.k.h.l./ u / 6./ Y.o.w w.@ 9 S E ) ` ~./.(.(.(.(.^.D.S.0 7 u.2.e g. X^ i.+ t o.l.h.h.k.h.h.u.u y 6...u.f.[ ",
"I I.3...I.c d / ^ ^ ^ ^ ^ ^ ~ / n.1.o.Y...$ 7 A F R F S.^.~.Q.W.D.D.D.~.A.A A 8 * +.r -.Y.{ 6.a.% [ ^ / / ^ / ^ ^ ~ -.m.{ 7.k.Q ",
"P I.I.<.O.7.6.6.6.7.7.6.7.i.6.7.1.o.l.I...+ , Z , , R S.W.) A.^./.~.~._ ` S.F 8 O *.r -.m.m...4.i.6.6.6.6.6.6.6.u.6.7.o.6.m.f.Q ",
"I I.j.I.4./ { { { ..{ { { { { / +.I.g.n...$ , Z @ , 9 ] ] R A.Q.S.S.S.) ` /.) 8 O *.r #.m.k.m...{ ..../ ../ { ..{ / / 6.m.l.h.Q ",
"~ I.I.l.I.Y.Y.Y.m._._.Y._.m._._.K.U.I.I...$ , A R 0   X p !./.W.) F S S./.~._ Z O *.r 1.Y.m.m.Y.I.Y.Y.Y.Y.Y.Y.Y._.Y.Y.m.m.m.n.Q ",
"I +.+.O.O.O.o.+.+.+.O.O.+.O.+.O.+.+.O.@.~ w d < 9 ' K.L.K.H ' _ @ D S.~.D._ 0 @ O Q u { @.+.+.+.#.O.O.+.+.O.O.+.O.+.+.@.+.+.+.I ",
"P e r r r r r r r r y r r r y y y y y r u I 5 $ 4 G.eX9X=Xk t A @ J D.D.] F @   O w I u e r r r r r e r y y r r r y y y t y r u ",
"^ XXXXXXXX+Xf.|.XXi.s.7.Y.@Xf.7.i.i.i.f...y T.XX:.F.9XL x 8XL . &X,.+ 9 S F A 9 O X.e u.@XXXXXXX{.l.@XU.i.i.s.XX}.i.i.i.i.u.i.^ ",
"^ 2XOXm.n.l.g.l.l.h.k.f.g.n.l.f.l.m.n.m.@.r XX<XK G.rXx < yXK.>.*X,.  V S S 8 s ;.;.e c.4X{.m.n.l.f.n.g.f.k.k.l.l.h.k.l.n.l.g.^ ",
"[ @Xl.k.@...X.X.X.X.^ { X.X.[ ../ s.n.m.o.r XXI.J H.uX| b tX;X*X=X>.  S F Z ; Y l.6.e v.}.l.i.{ X.X.X.X.[ ~ X.o.{ { [ #.l.l.k.[ ",
"^ ,Xs.+.E.@XR.R.E.U.1.c.}.|.s.R.l.{ s.m.o.r XXI.G G.qXwX0XyXqX-Xa 8 S A 8 ; ^ 2.n.6.e n. X6.@.2XR.R.E.}.a.5.T.}.T.f.}.-.#.l.f.^ ",
"^ ,XO.d.,X3.@.1./ 3.<.+.+.^ ../ 6.7.^ _.@.r |.l.D J.P.qXyXeX9X*X< 4 F F 8 o p.Q l.6.q v.oXQ +XM.=.=.X.o.u...=.{ [ / o.l.[ 6.k.[ ",
"[ <X@.f.3.U.6XOXI.@X}.R.{.m.m.l.Q 6./ _.O.r +Xg.X.z.B &X9X9X-XL.G 9 Z R 9 o ;.^ n.6.q M.oX~ +X~ 5X3X{.{.#XY.oXm.m.Y.#.-.o.6.k.[ ",
"~ {.1.1.=.U.oXk.l.f.j.k.h.l.l.h.^ u.{ Y.@.P U.g...w.i J.Z.Z.J a @ + + % } I 7.^ m.6.e u.{.^ n.{ ,Xm.k.l.f.k.h.l.l.m.-.-...6.k.~ ",
"U l.2.+...T.Y.l.l.l.l.l.l.l.l.k.^ 6.{ U.+.e 6.s./ X.N ,.8 B % X O O o   $.^ 7.^ m.6.r O.m.[ 6.{ ,Xi.l.l.l.l.l.l.l.m.@.-.o.6.k.Q ",
"^ @X#.u.u.2.n.l.l.l.l.l.l.l.l.h.^ 7.{ K.+.q E.g.o.b.i } o : h m f &   O $./ 7.^ l.6.e c. XQ }.^ m.k.l.l.l.l.l.l.l.n.#.-.{ u.k.[ ",
"^ ,X#.f.d.1.n.l.l.l.l.l.l.l.l.f.^ 7.{ _.+.P XXI.+.x.$ l = h f g K B & O } ^ i.~ n.6.q M. X~ XX/ n.l.l.l.k.l.l.l.l.n.-.-.{ 6.l.^ ",
"^ @X#.u.3.M.Y.l.k.l.l.l.l.l.l.k.U 6.[ K.+.r }.l.+.e.X f m j m B C.C : O L ^ i.^ n.6.e c. X~ {...+Xk.l.l.l.l.l.l.l.m.@.-.o.6.l.^ ",
"U l.1.O.o.6.n.l.l.l.l.l.l.l.l.h./ 6.{ _.+.r u.h.^ }   B.:XX W D.= = f O T ^ u.^ n.6.r O.m./ 6.^ M.l.l.k.l.k.l.l.k.n.-.-...6.l.Q ",
"^ {.1.2.1.T.{.k.l.l.l.l.l.l.l.f./ 7.{ _.+.r U.l.o.&.o 9.0.  r.%Xe.M = O $./ i.^ n.6.e u.{.~ M...1Xh.l.l.l.l.l.l.l.m.@.1.{ 6.k.^ ",
"^ |.=.6.2.d.I.l.l.l.l.l.l.l.l.j./ 6./ _.+.y M.l...w.o - :   :XiX>X0.= O b I i.~ m.6.e u.{.^ Y.{ {.k.l.l.l.l.l.k.l.m.@.-...u.f.^ ",
"^ oX1.O.o.1.I.m.l.m.m.m.I.n.I.l.I 6...Y.+.r T.l./ }   > 1   0.>XpXB.* O 6 r s.~ n.6.r i.}.^ 6.Q n.m.m.m.m.n.m.m.m.m.@.-.o.6.l.~ ",
"~ T.1.X.l.o.^ ^ ^ / ^ ^ ^ ^ ^ ^ s.7./ Y.O.y n.l.^ u.o * = O N e.V.0.O o 7 1.l.Q n.6.e 5.`.~ s.6.^ ^ / ^ ^ / ^ ^ [ ^ +.m.[ 6.l.~ ",
"Q l.l.O.1.f.7.i.i.7.s.6.7.i.6.s.s./ I.I.+.y i.n.5.^ O o O k 1 > > =   o } l...7.n.6.r #.m.h./ k.i.7.i.i.7.i.i.i.i.i.l.-.=.l.f.Q ",
"Q l.l.n.#.~ ^ ~ ^ ^ ~ ^ ^ ~ ^ ^ / g.s.I.+.y i.l.n.;.O   x 0Xr.1 ].>.  o ; i 6.l.n.6.r -.m.l.f.~ ^ ^ ^ ~ ~ ^ ~ ^ ~ ~ Q -.m.l.k.Q ",
"Q m.l.n.n.l.m.m.l.n.n.l.I.l.l.n.I.g.l.I.@.r u.u.a.;.$   x 4Xe.; K.L   o O - t.p.a.1.0 -.I.n.n.n.n.m.l.n.m.n.m.l.m.m.n.l.n.n.k.Q ",
"U 6.6.6.6.6.6.6.6.6.6.6.6.6.6.6.6.4.6.i...P X.- - = * O .     X     o * * * ; - ; * 7 +.i.6.6.6.6.6.6.6.6.6.6.6.6.6.6.6.6.6.6.I ",
"P q e e e q e e q r r r r q q r r r r r y s ; $ * * * * O   = f f = o * O * * * * * - 7 6 q e e e r q e r r r e e e r r r r e u ",
"I g.c.v.v.M.1.c.v.#.-.#.i.U.1.1.<.#.#.1.[ 2 p * * * O * $ $ k m m :   * * * * * * * $ p &.v.v.n.f.1.M.u.#.#.#.M.f.-.-.-.-.-.=.Q ",
"^ 5X2X{. XoX`. X XY.I.I.{.oXY.Y.Y.m.m.Y.@.e N.* * = *   O 9.M f z = O * * * * * * O % n.7X+X}. X|.`.OX{.I.Y.I. X Xm._.m.n.m.l.^ ",
"^ ,Xn.l.#.I ~ ! ~ ^ ^ ^ ~ ! ^ ^ ..n.l.m.X.r E.p.;.| O 1 z v z i > =   * * * *.w.w.*.5 v.+Xl.k.~ ~ ~ ~ ~ ^ ^ ~ ~ ! / Q 5.m.l.f.^ ",
"^ @Xg.#.d.@XXX|.XXT.3.I.XXXXd.}.6...n.m.+.r XXn.i.X.v 0.e.%.%.N c n z l l n ^ h.m.6.e n.}.k...XXXXXX|.XXv.6.}.XXT.n.}.{ 5.l.k.[ ",
"[ ,X#.3.5Xv . * - ; $ * - * . $ a.4...Y.+.r XXn.{ 2XM.~ X.{ ....^ ..^ ^ ~ 6.f.^ n.5.e v. X~  X.X  $ - - = $ - $ $ o b m.[ u.l.^ ",
"^ ,X#.g.0.  U ,X$X,X|.{.{.l.o.y ; 6./ m.O.r +Xl.X.}.;.4X<Xm.+X+XI.oXl.l.I.^ 7.^ l.6.q M.oX~ XX  . d.2X$X,XI.OXm.s.~ # $.O.6.g.^ ",
"^ +X#.i.T s ,X+Xl.f.j.f.l.l.m.../ 7.o._.O.r {.l.{ M.=.2XI.h.k.k.l.h.l.l.n.^ i.~ m.6.e f.}.~ R.. f.4XY.s.h.k.k.l.l.s.P 4...6.l.^ ",
"I j.2.O.i N.$Xl.l.l.l.l.l.l.l.l.~ 6./ _.o.y 6.h.~ 1.t.OXs.l.l.l.l.l.l.l.m.^ i.^ m.6.r O.m.^ 5.- 5XT.f.l.l.l.l.l.l.m.-.-...6.l.I ",
"^ |.1.7.v ;.I.j.l.l.l.l.l.l.l.j./ 7.{ m.+.r M.n...n.+.{.k.l.l.l.l.l.l.l.m.^ 7.^ l.6.e i.}.~ U.$ {.h.l.l.l.k.l.l.l.m.#.1...u.l.~ ",
"^ ,X+.g.9.Y I.l.l.l.l.l.l.l.l.f.^ 7.{ _.+.r +Xl.X.|.~ l.l.l.l.l.l.l.l.l.n.^ i.~ m.6.e n.oX! XX$ h.l.k.l.l.l.l.l.l.n.@.1...6.l.[ ",
"[ ,X#.g.T t.Y.l.l.l.l.l.l.l.l.h.^ 6.{ _.+.r +Xl.X.E.=. Xk.l.l.l.l.l.l.l.m./ i.^ m.6.q v.oX~ XX- OXk.l.l.l.l.l.l.l.m.#.1...6.l.^ ",
"~ I.2.<.c &.I.l.l.k.k.l.l.l.l.k./ 5.{ Y.+.y f.h.^ i.X.Y.l.l.l.l.l.l.l.l.m.^ 6.^ n.6.r 1._.^ s.$ I.l.l.l.l.l.l.l.l.n.-.=...6.l.~ ",
"~ I.1.1.p x.Y.l.l.l.l.l.l.l.l.l./ 7.{ _.+.r f.g./ 6.2.+Xh.l.l.l.l.l.k.l.n.^ i.^ n.6.r 1.Y.^ i.- $Xf.l.l.l.l.k.l.l.m.@.-...6.l.U ",
"^ OX#.s.N q._.k.l.l.l.l.l.n.n.6./ 6.{ Y.+.r E.l...T.=.OXh.l.l.l.l.l.n.l.n.^ u.^ n.6.e f.|.~ R.* }.l.l.l.l.l.l.l.n.l...-.o.6.l.^ ",
"^ {.1.#.p # 4.m.m.l.n.n.n.m.i.u Q 6...Y.O.r n.k./ 5.{ m.m.m.n.m.m.l.n.n.Y.^ 6.~ n.6.e 6._.^ 6.  ! s.m.m.n.m.n.m.n.@.e 2...6.l.~ ",
"^ oX#.O.w.# 5 +.#.O.#.#.@.-.u r -.7./ Y.+.r R.l.Q l.+.@.=.@.#.@.#.O.@.@.@.+.l.Q n.6.e d.}.Q s.b # P =.#.@.@.#.=...e Q l.[ 6.k.^ ",
"Q k.s.o.j.q.-.1.1.1.1.=.1.-.4.6.m...6.Y.+.y 7.l.#.1.n.-.-.-.1.-.1.1.1.1.-.m.#.1.n.6.r O.m.4.o.m.$.4.-.1.1.-.-.-.-.5.l.6.+.f.l.I ",
"I l.m.f...o.o...o.........X...o...6.m.n.O.r i.m.l.#.{ o.....o.....o.....X./ 1.l.n.6.r 1.m.I.4./ O.....X...o...o.o...{ o.k.l.k.Q ",
"~ l.l.l.f.6.6.6.6.6.6.6.6.6.6.6.6.n.l.m.+.r s.l.l.l.6.6.6.6.6.6.6.6.6.6.6.6.l.l.l.6.r #.m.l.l.6.6.6.6.6.6.6.6.6.6.6.6.h.m.l.f.Q ",
"~ l.l.k.l.l.l.l.l.l.l.l.l.l.l.l.l.l.l.m.+.y i.l.l.l.l.l.l.l.l.l.l.l.l.l.l.l.l.k.l.6.r #.l.l.g.l.l.l.l.l.l.l.l.l.l.l.n.l.l.l.h.Q ",
"u I I I I I u I I I I I I I I I I I d I u u I I d I I u I I I I I I I I I I I I I I u I I I I I I I I I I I I I I d u I I d d u "
};
