/* XPM */
static char *result[] = {
/* columns rows colors chars-per-pixel */
"64 64 54 1 ",
"  c #4B462A",
". c #4E4A2D",
"X c #514C2E",
"o c #534E31",
"O c #565132",
"+ c #595434",
"@ c #5E5937",
"# c #5C5738",
"$ c #605A37",
"% c #625C3B",
"& c #66603D",
"* c #69633E",
"= c #645F40",
"- c #666140",
"; c #6B6542",
": c #6E6944",
"> c #6F6A48",
", c #736C44",
"< c #726C4A",
"1 c #777046",
"2 c #787147",
"3 c #76704D",
"4 c #7C754A",
"5 c #7F784C",
"6 c #7C7653",
"7 c #7E7855",
"8 c #857D4E",
"9 c #857E52",
"0 c #887F50",
"q c #847D59",
"w c #88804F",
"e c #878152",
"r c #8A8253",
"t c #8C855C",
"y c #8F885A",
"u c #908756",
"i c #918957",
"p c #928A5B",
"a c #8C8660",
"s c #8F8962",
"d c #958D63",
"f c #968F68",
"g c #979064",
"h c #999166",
"j c #979068",
"k c #9E976E",
"l c #9F986F",
"z c #9F9870",
"x c #A0996F",
"c c #A39C72",
"v c #A89F75",
"b c #A7A077",
"n c #A8A176",
"m c #ACA479",
/* pixels */
"+1yee0pcllkkllklzye5+o,rre0uzxlllkkklzp0e$X*rer0rkllkkkklkzd0r*+",
"+1ywr0rpxzllkkkklhu82+*uererylxzkllkklkp84@%rrrwruhclklkkkzkd041",
"+1rwr00rdlxlkklkkzhyy$;rerew0pkxkkkkkkzkyi*%yrrr08yhzlkkllkzlpyr",
"+1urre0e8dlllklkllclr$*yr0rr08ylkllkllzzcp&$rewerr0ykkllkkkklcpr",
"+1ueew0re0pcklklzllzk%&u0r0rer0pzlllklkklx>@rrrer0eeuhzlkkkkllhk",
"+1uwrrr0e0edllkkhlllc&*irerrr00rylzzkkkllv<@rr0r9rrerukcllkllllz",
"+4ueewrrrr0eplzlllllx%*i0r0e0re09ykzlkkklc<$urerreerr9uhzlkklkll",
"+,errrrrrrr00dlllllcc-%errrrrrrre0ylllzzlc<@0rrerrerrr0yklllllll",
"+o:urrrurrurrrgccccvc;.%0uurrryrrrrpccxccv<X$0yrurrrrurrylcccccx",
"X.o$$$$%%%*%%$%;;=%--o.X$$$$%%%%*%$%;*;%*;+ .#$@$%%%**%$%%:;%;;%",
"<3<<<<;%*+ +*%%%%:>:><3<>><:%*@.o%;%%%;<>:<3<<>>>%*$.X$*&%%*>>::",
"vccccvhyi:o$riuiyhccccvcccnxip,++8iuyrdvcvccccvcvpi4@o1iyrrpcvcc",
"lklkkkxhru;#0r0r00dckkkkxkzxltw2+8r0ee0pclllklkkxly08o<yerreykzl",
"llkklkllhp*#0rr0r0rdxxkzxkkzzhi4O4yrrr0rylxlkklkxxkd8#,ur0r00yhz",
"lllkkklxch<+0rr0rr00dzxkkzkklzk9+5r0er008plzkkkkkkxkr#,u0ree90yd",
"hklklklxxnq+9rrr0r009dkxkkkklzca+4y0r0ree8pllllkkxkcj@,u0reerr00",
"rhxllklkkb6+erwerrrr00pcllllkkca+4yre0eere0pzlllkkkxf#,y8eerwer0",
"0rdckklkkb6+eyeereerr0edzllklkvaO8uerrrere0rylxlklxcf#1peeeerrer",
"r0ukccccvm7O,eiruerryrruhcvcccnsO*8uuryrrurrrdcccvcvk@$5irurrrur",
"8545sssssj3..*88488484842tdsssdqo %84855484844rddaaft@ %84488488",
"++++++++OOOOOO+O+++++++O+++O+o+++o++O+OO+++++++++OOO+OoOOOO+o+++",
"+;44419staaaaattt51,X.*44118aattyaaats911+.$44113aattssattsq14$o",
"+1iuurukvvvcvcccvhi0,O,iuuryhvvcccccvbxpr1+%iuuuudcvccvcvcvxpu2;",
"+1uee090dklklzlkzcgyr$*yeee00dlxzllzhlchyi;%re0e00plzzlklllcxury",
"+1uerr0erhxxlkkklklhy$*rrrrer0pxlllkkkkllu&$erwree0pzllllkklkzy0",
"+1ur0rr00rdclllkllzzh%*yewrrrwrdzlklklklck>@rerere0rylzzlkkkkzkh",
"+1rrrer000rhclllllzzc%&r0r0rew0edlxllkkkkb<@rerrr0ew0phckkllklzz",
"+4ue0rerr000dllllllzx&*yr0rerre08dllkkklkc<@irerereee9pllkkkkkkz",
"+1uerreer0wewhclklzzz=*yer0eer00w0dxkkkkzv>@rr00rrr0wewpzlzzkkkz",
"++,iyuuuyyryyuhnccvnv;X;ruyuuuyryryhvvvcvm3X*euyuruuryripcvvcvcc",
"X +*&**;*:,,*&;<<<<<<# o******;,***;33<<<3$ X%;****;:,:*;<3<<<<<",
"*;-%%%%$@o.o@$$@@%%%%-;-%=*%$$+Xo$$@#+@=%%=;;%%;%$$+Xo+@@@#@%=%%",
"lllllcdwy%o#0rrrrhcxzzllllcher,X@8ywrwgxzllzlllzlrr4oo1uer0pczzz",
"zzlllcxde9*@0rrrrrjcxxxxzczxhy8,+4urrergcxxxxzzllku84+1urrrrpccz",
"llkkllllgi,@0rer00rjzzklllkcxhp4O4yrrr0rdlxlllkkzxky8+,rr0r0eykz",
"lllkkllkch,+0rre0r00dlzlklkkkck5+4re0ew00plcllklkzxx0@,y0rr0e8dd",
"klllcllkxv7+wy0errr9whclkkkllkca+4uee0r0e0pclklkkkzxj#,yr0r0rrr0",
"rhzlhllllc6+wrwer0rrergxlkkkklca+4yerrrer0rpzkklklzxj#,urrer0ee0",
"0yhcllkxxc6+rreerr0reerdcklkzlca+8u0rrr0re0rdkzlkzzcj#2i0rrrerrr",
"e0yhxccxxnqO4errrrrrrr0yhkczzcbs+;0urrrrrrrredzcxxxvk#%0rrrrrrrr",
"008ehkkfkz7Xo2rw00eee0008dlkkjct+.*r8e88e8e008pkkjkzd%.*r08e8e8e",
"$#++$%###@OXXO++O#+@$$@+@$@###@+X.O@++@+@@$$++#%###@@XXX+@+@@+$$",
"o&,,,*<7646qq7666,:*..%,,*;,7636q966q61*:O.#,,,*>66467q666q3*,+o",
"+4pyrypcvvccvcbbvhp8*O,pyirplvbvcncnbnhpe:O&uuuuihbbvccccvvhpu,&",
"+1uerwwrhcxlzkkkkcgrr%*y0re90hllhcllklzjei*%rrere0dxllllklllkyer",
"+1uwererehclkkkzkkkgr@*rrrr000dclllllhlkku&$rrreeeepzkkkkkkkxhue",
"+1u0errr8ygckkkkkkckg%*ur0r0r0rhkkllllkllh,$rrreerwedllllkkllzhh",
"+1uerrwee8ykzzkkzkkzc&*ur9rrr00rgzzlllkllc<@rrrererw0dklkklllllc",
"+1rrererr00rhlkhklkzz%*y0eererewehllkllklc<$rrr0rer0e0dcxlllllkk",
"+4ie00r0ere0ykcxkkkzc=*pwewr00r0eedckkkllc<%ur0r0rere00pxlllkkkl",
"+$4iuuuuuuyurphnvvvvv;o,uiuuuyyuurphcvcvcm<o:ruruuuuuuwygcvccccc",
"XX+1,,,,,211,,6qq7qqq@ O,,,,1,,211,<qqqq9q- o:2,,,1,111,,qqqq9qq",
"$$#####O#OoO@++OO++O##%#@+#++++o++@+OO+O#+#$$###@+++oo+@+o+#+##+",
"fffdjjt80$.@88889dkfdfffjdfd80*X+18888ykfffjffffd80,oo,e888rjjfd",
"ccccccxdr5%#ey0rrplvcccxcccxhy8*+8urrrphvccccxxcxhp9,+<irrryhccc",
"xllkkxxkpp,@0r0r00rjxxkkllllzdu4O4yeee0rdzzlklllzcdu0+,u00000dkx",
"kkkkllzhcd*$wrrrrr0rhxllkkkzkzk1+4rrere0whxlllkkklch8+,urr9rr0dk",
"zzklklllxc6+errewrewrkcxzkkkkkct+4yrr0erewhckklkklzcd@,rr0rr0rrr",
"ykczkllklb6+8rerrere0ygckkkkkkva+2reerr0r0rhxllllklch#,ur0rrrr00",
"8yhzkklllc6+eywrerwre0rhczkzkkca+8uer0rree0edzllkkzcj#1u0rr90ere",
"e0ulzzllxv7+80rrrrrreewrkkkkllva+1rrrrrrweewrhkzzzlcf#;rreerrrrr",
"rrruzccccbqo+4irrrrrryrrrkbcccvs+O,urrruyrruyrhvcxcvk$X:uryrrrey",
"***&::>>>,%OO$**&**&***&&:>>::>;+X$**&&&**&*&%;>>>;>;+X@****&***",
"O+O+++OO+O++++++++++++++OO+O++O+++++++++O+++++O+O+O+++++++O+++O+"
};
